<svg width="156" height="70" viewBox="0 0 156 70" fill="none" xmlns="http://www.w3.org/2000/svg">
<g clip-path="url(#clip0_4007_10426)">
<path d="M24.8329 65.8156C13.0885 63.8472 4.13944 53.643 4.13944 41.3495V35.1475H0V41.3495C0 55.931 10.792 67.9941 24.8329 70.0002V65.8156Z" fill="black"/>
<path d="M33.1105 65.8156C44.8549 63.8472 53.8039 53.643 53.8039 41.3495V35.1475H57.9421V41.3495C57.9421 55.931 47.1501 67.9941 33.1092 70.0002V65.8156H33.1105Z" fill="black"/>
<path d="M24.8329 0H0V26.8761H4.13818V4.1343H24.8329V0Z" fill="black"/>
<path d="M33.1105 0V4.1343H53.8039V26.8761H57.9421V0H33.1105Z" fill="black"/>
<path d="M24.1186 23.5084H16.7782V12.4043H12.9499V26.8762H24.1186V23.5084Z" fill="black"/>
<path d="M41.6804 26.8762L47.266 12.4043H43.0623L39.9294 22.0435L36.7775 12.4043H32.5159L37.9995 26.8762H41.6804Z" fill="black"/>
<path d="M18.6124 44.0569H21.2968V46.2782C21.0424 46.3776 20.7652 46.4531 20.4742 46.5009C20.1291 46.5588 19.7587 46.5878 19.3745 46.5878C18.7157 46.5878 18.1223 46.4821 17.6121 46.2744C17.1057 46.068 16.6749 45.7773 16.3323 45.4111C15.9896 45.0436 15.7263 44.5968 15.5512 44.0833C15.3736 43.5648 15.2842 42.9858 15.2842 42.3616C15.2842 41.7374 15.3837 41.1874 15.579 40.6764C15.773 40.168 16.0501 39.7237 16.4016 39.3537C16.7518 38.9849 17.1712 38.693 17.6474 38.4866C18.1223 38.2802 18.6502 38.1757 19.2158 38.1757C19.8721 38.1757 20.4667 38.2927 20.9806 38.5256C21.4933 38.7571 21.9116 39.0567 22.2227 39.4166L22.3764 39.5941L24.8077 36.8278L24.6653 36.6919C24.0506 36.1054 23.2431 35.6322 22.2656 35.2861C21.2943 34.9425 20.2273 34.7676 19.0961 34.7676C17.9649 34.7676 16.9684 34.9463 16.0224 35.2974C15.0726 35.6498 14.2336 36.162 13.5281 36.819C12.8202 37.4785 12.2596 38.2877 11.859 39.2216C11.4584 40.1566 11.2556 41.2126 11.2556 42.3603C11.2556 43.5081 11.4546 44.5427 11.8489 45.4689C12.242 46.3977 12.7962 47.207 13.4966 47.8715C14.1945 48.536 15.0411 49.0583 16.011 49.4245C16.9773 49.7895 18.048 49.9745 19.1956 49.9745C20.3432 49.9745 21.3233 49.8587 22.2567 49.6309C23.1889 49.4031 24.0178 49.1036 24.7182 48.7399L24.8278 48.682V40.9042H18.6136V44.0543L18.6124 44.0569Z" fill="black"/>
<path d="M41.7081 35.1455H38.1355L32.0586 49.6175H36.2056L37.2399 46.8562H42.4072L43.5007 49.6175H47.7232L41.7081 35.1455ZM41.4435 43.8156H38.2502L39.8601 39.3969L41.4435 43.8156Z" fill="black"/>
<path d="M78.8043 41.5916C78.0032 40.5558 76.6515 39.919 75.2292 39.919C72.313 39.919 70.1954 42.0082 70.1954 44.8877C70.1954 47.7673 72.3596 49.8564 75.2292 49.8564C76.6238 49.8564 78.0057 49.2045 78.8043 48.1826V49.6173H80.282V34.4355H78.8043V41.5903V41.5916ZM75.2292 48.4997C73.2061 48.4997 71.7927 47.0147 71.7927 44.8877C71.7927 42.7608 73.2288 41.2757 75.2091 41.2757C77.2927 41.2757 78.8635 42.8288 78.8635 44.8877C78.8635 46.9467 77.2675 48.4997 75.2292 48.4997Z" fill="black"/>
<path d="M84.8107 40.1582H83.333V49.6187H84.8107V40.1582Z" fill="black"/>
<path d="M95.3218 35.3906H93.7245V49.6184H101.882V48.1421H95.3218V35.3906Z" fill="black"/>
<path d="M111.604 47.5678V40.1562H110.126V45.0847C110.126 47.3249 108.738 48.4979 107.366 48.4979C105.668 48.4979 104.944 47.5955 104.944 45.4824V40.1562H103.466V46.2174C103.466 48.5633 104.738 49.8558 107.047 49.8558C108.233 49.8558 109.467 49.2102 110.126 48.2638V48.7798C110.126 49.0365 110.145 49.2807 110.186 49.5475L110.198 49.618H111.712L111.703 49.5273C111.684 49.3436 111.604 47.7515 111.604 47.5691V47.5678Z" fill="black"/>
<path d="M122.122 41.5978C121.31 40.5293 120.024 39.9189 118.567 39.9189C115.822 39.9189 113.753 42.0207 113.753 44.8084C113.753 47.596 115.919 49.6185 118.687 49.6185C120.162 49.6185 121.346 49.0585 122.124 47.995V49.5354C122.124 51.7555 120.842 53.0279 118.608 53.0279C117.174 53.0279 115.894 52.4175 115.096 51.3528L113.995 52.4918C115.208 53.783 116.648 54.3846 118.528 54.3846C121.752 54.3846 123.601 52.6176 123.601 49.5342V40.1556H122.124V41.5953L122.122 41.5978ZM118.725 48.2618C116.863 48.2618 115.349 46.6949 115.349 44.7694C115.349 42.8438 116.886 41.2769 118.706 41.2769C120.773 41.2769 122.163 42.728 122.163 44.8889C122.163 46.7805 120.653 48.2618 118.726 48.2618H118.725Z" fill="black"/>
<path d="M133.641 47.5495V43.239C133.641 41.2215 132.267 39.9189 130.139 39.9189C128.394 39.9189 127.057 40.3821 126.164 41.2945L127.073 42.3479C127.875 41.6268 128.788 41.2769 129.861 41.2769C131.453 41.2769 132.164 42.0056 132.164 43.6379V43.7537H131.65C127.549 43.7537 125.721 44.7719 125.721 47.0536C125.721 48.7048 127.072 49.8576 129.005 49.8576C130.462 49.8576 131.468 49.3567 132.244 48.2379C132.253 48.7413 132.293 49.1818 132.364 49.5518L132.376 49.6185H133.813L133.8 49.5241C133.703 48.8294 133.641 47.8905 133.641 47.5495ZM129.422 48.4997C128.144 48.4997 127.319 47.8616 127.319 46.8749C127.319 45.6604 128.743 44.9909 131.332 44.9909H132.164V45.4049C132.164 47.372 131.165 48.4997 129.424 48.4997H129.422Z" fill="black"/>
<path d="M140.51 39.9189C139.301 39.9189 138.068 40.5621 137.432 41.5047C137.432 40.9837 137.424 40.6728 137.371 40.2311L137.362 40.1581H135.85L135.953 42.207V49.6185H137.43V44.8486C137.43 42.212 138.95 41.2769 140.251 41.2769C141.885 41.2769 142.614 42.207 142.614 44.2924V49.6185H144.092V43.5574C144.092 41.2115 142.82 39.9189 140.51 39.9189Z" fill="black"/>
<path d="M150.966 39.9473C148.108 39.9473 145.952 42.083 145.952 44.916C145.952 47.749 148.061 49.8847 150.966 49.8847C153.871 49.8847 155.999 47.7955 155.999 44.916C155.999 42.0364 153.882 39.9473 150.966 39.9473ZM150.966 48.528C148.987 48.528 147.55 47.0089 147.55 44.916C147.55 42.823 148.947 41.304 150.946 41.304C152.945 41.304 154.403 42.7891 154.403 44.916C154.403 47.0429 152.989 48.528 150.966 48.528Z" fill="black"/>
<path d="M84.8938 35.8477H83.2562V37.4838H84.8938V35.8477Z" fill="black"/>
<path d="M77.6076 27.2339C79.7983 27.2339 81.8214 26.2296 82.8858 24.6149L81.5745 23.6899C80.6523 25.0818 79.3548 25.7577 77.6076 25.7577C74.3034 25.7577 71.9048 23.2368 71.9048 19.762C71.9048 16.2872 74.3034 13.7663 77.6076 13.7663C78.9202 13.7663 80.5453 14.5944 81.1562 15.5748L82.5444 14.5466C81.4082 13.1131 79.6093 12.29 77.6089 12.29C73.38 12.29 70.1904 15.5018 70.1904 19.762C70.1904 24.0222 73.38 27.2339 77.6089 27.2339H77.6076Z" fill="black"/>
<path d="M86.7381 17.416H85.2604V26.8777H86.7381V17.416Z" fill="black"/>
<path d="M111.895 24.8083V20.4978C111.895 18.4803 110.52 17.1777 108.393 17.1777C106.648 17.1777 105.31 17.6409 104.417 18.5533L105.326 19.6067C106.128 18.8856 107.04 18.5357 108.114 18.5357C109.708 18.5357 110.417 19.2631 110.417 20.8967V21.0125H109.903C105.804 21.0125 103.975 22.0307 103.975 24.3124C103.975 25.9636 105.325 27.1164 107.258 27.1164C108.714 27.1164 109.72 26.6155 110.496 25.4967C110.505 25.9988 110.546 26.4406 110.616 26.8106L110.629 26.8773H112.065L112.052 26.7829C111.955 26.0882 111.893 25.1493 111.893 24.8083H111.895ZM107.676 25.7585C106.397 25.7585 105.571 25.1204 105.571 24.1324C105.571 22.9179 106.996 22.2484 109.584 22.2484H110.416V22.6625C110.416 24.6295 109.417 25.7572 107.676 25.7572V25.7585Z" fill="black"/>
<path d="M108.275 15.6759H109.644L107.565 12.6856L107.541 12.6504H105.5L108.252 15.6495L108.275 15.6759Z" fill="black"/>
<path d="M86.8187 13.1055H85.181V14.7416H86.8187V13.1055Z" fill="black"/>
<path d="M93.3881 25.7581C92.4862 25.7581 92.1183 25.3214 92.1183 24.2516V18.7732H94.8028V17.4165H92.1183V14.7949H90.6407V17.4165H88.673V18.7732H90.6407V24.6292C90.6407 26.186 91.5338 27.1148 93.0291 27.1148C93.8013 27.1148 94.6226 26.8769 94.8847 26.7926V25.485C94.8847 25.485 93.9185 25.7581 93.3881 25.7581Z" fill="black"/>
<path d="M101.077 25.7581C100.175 25.7581 99.8077 25.3214 99.8077 24.2516V18.7732H102.492V17.4165H99.8077V14.7949H98.33V17.4165H96.3623V18.7732H98.33V24.6292C98.33 26.186 99.2231 27.1148 100.718 27.1148C101.491 27.1148 102.312 26.8769 102.574 26.7926V25.485C102.574 25.485 101.608 25.7581 101.077 25.7581Z" fill="black"/>
</g>
<defs>
<clipPath id="clip0_4007_10426">
<rect width="156" height="70" fill="white"/>
</clipPath>
</defs>
</svg>
