<svg width="70" height="70" viewBox="0 0 70 70" fill="none" xmlns="http://www.w3.org/2000/svg">
<path d="M35 0C25.6571 0 17.1709 3.65868 10.8958 9.62563H0.56547L4.89933 17.1329C1.78925 22.3613 0 28.4718 0 35C0 54.3316 15.6686 70 35 70C54.3316 70 70 54.3316 70 35C70 15.6686 54.3274 0 35 0Z" fill="black"/>
<path d="M15.0144 22.3909V23.7708H11.0646V25.3744H14.6895V26.653H11.0646V28.4844H15.0988V29.8686H9.41883V22.3909H15.0144Z" fill="white"/>
<path d="M19.323 29.8686V29.1132H19.2935C19.1036 29.4255 18.8588 29.6534 18.5592 29.7926C18.2596 29.9319 17.9516 30.0036 17.6393 30.0036C17.2426 30.0036 16.9134 29.953 16.6602 29.8475C16.407 29.742 16.2045 29.5943 16.0568 29.4044C15.9091 29.2145 15.8078 28.9782 15.7488 28.7039C15.6897 28.4296 15.6601 28.1215 15.6601 27.7882V24.4586H17.1498V27.5181C17.1498 27.9654 17.2215 28.2988 17.3608 28.5182C17.5 28.7376 17.749 28.8474 18.1035 28.8474C18.5086 28.8474 18.7997 28.725 18.9812 28.4844C19.1627 28.2439 19.2555 27.8472 19.2555 27.2944V24.4544H20.7409V29.8686H19.323Z" fill="white"/>
<path d="M22.9732 24.4544V25.4588H22.9943C23.0661 25.29 23.1589 25.1338 23.2771 24.9946C23.3952 24.8511 23.5303 24.7287 23.6864 24.6274C23.8383 24.5262 24.0029 24.446 24.1801 24.3911C24.3531 24.3363 24.5346 24.3067 24.7245 24.3067C24.8215 24.3067 24.9313 24.3236 25.0494 24.3574V25.7415C24.9777 25.7288 24.8975 25.7162 24.7962 25.7035C24.6992 25.6908 24.6021 25.6867 24.5135 25.6867C24.2392 25.6867 24.0113 25.7331 23.8214 25.8217C23.6315 25.9145 23.4796 26.0369 23.3657 26.193C23.2517 26.3492 23.1674 26.5349 23.1209 26.7416C23.0703 26.9526 23.0492 27.1763 23.0492 27.421V29.8601H21.5638V24.446H22.9774L22.9732 24.4544Z" fill="white"/>
<path d="M26.691 27.8008C26.7332 28.0076 26.805 28.1933 26.9063 28.3578C27.0075 28.5224 27.1426 28.6533 27.3114 28.7503C27.4802 28.8474 27.6869 28.898 27.9401 28.898C28.1933 28.898 28.4043 28.8474 28.5731 28.7503C28.7462 28.6533 28.8812 28.5224 28.9825 28.3578C29.0837 28.1933 29.1555 28.0076 29.1977 27.8008C29.2399 27.594 29.261 27.3831 29.261 27.1678C29.261 26.9526 29.2399 26.7374 29.1977 26.5306C29.1555 26.3196 29.0837 26.1382 28.9825 25.9736C28.8812 25.8132 28.7462 25.6824 28.5731 25.5811C28.4001 25.4799 28.1891 25.4292 27.9401 25.4292C27.6912 25.4292 27.4802 25.4799 27.3114 25.5811C27.1426 25.6824 27.0075 25.8132 26.9063 25.9736C26.805 26.134 26.7332 26.3196 26.691 26.5306C26.6489 26.7416 26.6278 26.9526 26.6278 27.1678C26.6278 27.3831 26.6489 27.594 26.691 27.8008ZM25.3407 25.9905C25.4715 25.636 25.6614 25.3364 25.9062 25.0916C26.1509 24.8427 26.4421 24.6528 26.7839 24.5135C27.1257 24.3785 27.5097 24.3109 27.9359 24.3109C28.3621 24.3109 28.7462 24.3785 29.0922 24.5135C29.4382 24.6485 29.7336 24.8427 29.9784 25.0916C30.2231 25.3406 30.413 25.6402 30.5438 25.9905C30.6746 26.3449 30.7422 26.7374 30.7422 27.1678C30.7422 27.5983 30.6746 27.9907 30.5438 28.341C30.413 28.6912 30.2231 28.9866 29.9784 29.2356C29.7336 29.4846 29.4382 29.6745 29.0922 29.8053C28.7462 29.9361 28.3621 30.0036 27.9359 30.0036C27.5097 30.0036 27.1257 29.9361 26.7839 29.8053C26.4421 29.6745 26.1467 29.4803 25.9062 29.2356C25.6614 28.9866 25.4715 28.6912 25.3407 28.341C25.2098 27.9907 25.1423 27.6025 25.1423 27.1678C25.1423 26.7332 25.2098 26.3407 25.3407 25.9905Z" fill="white"/>
<path d="M34.6836 28.7461C34.8481 28.649 34.979 28.5224 35.0802 28.3621C35.1815 28.2059 35.2533 28.0203 35.2955 27.8135C35.3377 27.6025 35.3588 27.3915 35.3588 27.1763C35.3588 26.961 35.3377 26.7458 35.2913 26.5391C35.2448 26.3281 35.1689 26.1424 35.0676 25.9778C34.9621 25.8132 34.827 25.6824 34.6625 25.5811C34.4979 25.4799 34.2996 25.4292 34.059 25.4292C33.8185 25.4292 33.6117 25.4799 33.4471 25.5811C33.2826 25.6824 33.1518 25.8132 33.0505 25.9736C32.9492 26.134 32.8775 26.3196 32.8352 26.5306C32.7931 26.7416 32.772 26.9568 32.772 27.1805C32.772 27.4042 32.7931 27.6109 32.8395 27.8177C32.8859 28.0287 32.9576 28.2101 33.0589 28.3663C33.1602 28.5224 33.2952 28.649 33.464 28.7503C33.6328 28.8474 33.8354 28.898 34.0717 28.898C34.308 28.898 34.519 28.8474 34.6836 28.7503M32.7509 24.4544V25.1465H32.772C32.9534 24.8511 33.1855 24.6401 33.464 24.5093C33.7425 24.3785 34.0506 24.3109 34.384 24.3109C34.8102 24.3109 35.1773 24.3911 35.4854 24.5515C35.7936 24.7118 36.0465 24.9271 36.2491 25.1887C36.4517 25.4545 36.5994 25.7626 36.7008 26.1171C36.7978 26.4715 36.8485 26.8387 36.8485 27.2227C36.8485 27.5856 36.7978 27.9358 36.7008 28.2692C36.6037 28.6026 36.4559 28.9022 36.2575 29.1596C36.0591 29.4171 35.8105 29.6238 35.515 29.7758C35.2195 29.9277 34.8693 30.0078 34.4726 30.0078C34.1392 30.0078 33.8269 29.9403 33.5442 29.8053C33.2615 29.6703 33.0294 29.4677 32.8479 29.2018H32.8268V31.7675H31.3414V24.4544H32.7551H32.7509Z" fill="white"/>
<path d="M40.6967 25.7204C40.5194 25.5263 40.2496 25.425 39.8866 25.425C39.6503 25.425 39.4519 25.4672 39.2957 25.5474C39.1395 25.6276 39.0132 25.7288 38.9204 25.847C38.8275 25.9651 38.76 26.0917 38.722 26.2226C38.684 26.3534 38.6629 26.4758 38.6544 26.577H41.0724C41.0007 26.2015 40.8782 25.9145 40.701 25.7162M39.0217 28.5646C39.245 28.7798 39.5658 28.8896 39.9837 28.8896C40.2834 28.8896 40.5406 28.8136 40.7601 28.6659C40.9753 28.514 41.1104 28.3578 41.1568 28.1891H42.465C42.254 28.8389 41.9332 29.3031 41.503 29.5816C41.0682 29.8601 40.5448 29.9994 39.9331 29.9994C39.5067 29.9994 39.1226 29.9319 38.7811 29.7969C38.4391 29.6618 38.1479 29.4677 37.9115 29.2145C37.6755 28.9613 37.4898 28.6617 37.3631 28.3156C37.2323 27.9654 37.1689 27.5814 37.1689 27.1636C37.1689 26.7458 37.2365 26.3829 37.3673 26.0327C37.4982 25.6824 37.6881 25.3828 37.9326 25.1254C38.1774 24.8722 38.4687 24.6697 38.8064 24.5219C39.1437 24.3742 39.5194 24.3025 39.9331 24.3025C40.3928 24.3025 40.7938 24.3911 41.1357 24.5684C41.4776 24.7456 41.7601 24.9861 41.9796 25.2858C42.1991 25.5854 42.3595 25.9272 42.4566 26.3112C42.5537 26.6952 42.5874 27.0961 42.5621 27.5139H38.6544C38.6755 27.9949 38.7979 28.3452 39.0217 28.5604" fill="white"/>
<path d="M46.4276 27.2185C46.3643 27.2733 46.2841 27.3197 46.1912 27.3493C46.0983 27.3788 45.997 27.4084 45.8873 27.4295C45.7775 27.4506 45.6636 27.4674 45.5457 27.4801C45.4275 27.4928 45.3093 27.5096 45.1912 27.5308C45.0814 27.5519 44.9674 27.5814 44.8619 27.6151C44.7522 27.6489 44.6593 27.6953 44.5791 27.7544C44.4989 27.8135 44.4356 27.8894 44.3849 27.9781C44.3343 28.0709 44.3135 28.1848 44.3135 28.3241C44.3135 28.4549 44.3385 28.5689 44.3849 28.6575C44.4356 28.7503 44.4989 28.8178 44.5833 28.8727C44.6677 28.9233 44.7648 28.9613 44.8788 28.9824C44.9928 29.0035 45.1067 29.0119 45.2249 29.0119C45.5204 29.0119 45.7438 28.9613 45.9042 28.8642C46.0646 28.7672 46.1828 28.649 46.2587 28.514C46.3347 28.379 46.3812 28.2397 46.4023 28.1004C46.4191 27.9612 46.4276 27.8472 46.4276 27.7671V27.21V27.2185ZM42.9927 26.1171C43.0138 25.7668 43.1021 25.4799 43.254 25.2478C43.406 25.0157 43.6044 24.8342 43.8408 24.6907C44.0771 24.5515 44.3469 24.4502 44.6424 24.3911C44.9379 24.332 45.2376 24.3025 45.5373 24.3025C45.8113 24.3025 46.0857 24.3236 46.3643 24.3616C46.6429 24.3996 46.9 24.4755 47.1279 24.5852C47.3601 24.6949 47.5458 24.8511 47.6936 25.0494C47.8413 25.2478 47.9131 25.5136 47.9131 25.8385V28.6575C47.9131 28.9022 47.9257 29.1343 47.9553 29.358C47.9848 29.5816 48.0313 29.7504 48.1027 29.8601H46.5964C46.5669 29.7757 46.5458 29.6914 46.5289 29.6027C46.512 29.5141 46.4993 29.4255 46.4909 29.3369C46.2545 29.5816 45.9759 29.7504 45.6509 29.8517C45.3305 29.9487 45.0012 29.9994 44.6677 29.9994C44.4103 29.9994 44.17 29.9698 43.9463 29.9066C43.7226 29.8433 43.5284 29.7462 43.3595 29.6112C43.1907 29.4803 43.0602 29.3116 42.9673 29.109C42.8745 28.9064 42.8238 28.6659 42.8238 28.3874C42.8238 28.0793 42.8787 27.8261 42.9884 27.6278C43.0978 27.4295 43.2371 27.2691 43.406 27.151C43.5748 27.0328 43.7732 26.9442 43.9927 26.8851C44.2122 26.826 44.4356 26.7796 44.6593 26.7416C44.883 26.7078 45.1025 26.6783 45.3178 26.6572C45.5331 26.6361 45.7269 26.6066 45.8915 26.5644C46.0604 26.5222 46.1912 26.4631 46.2883 26.3829C46.3854 26.3028 46.4318 26.1846 46.4234 26.0327C46.4234 25.8723 46.398 25.7457 46.3432 25.6487C46.2925 25.5558 46.2208 25.4799 46.1321 25.4292C46.0435 25.3786 45.9422 25.3406 45.8282 25.3237C45.7142 25.3069 45.5876 25.2984 45.4571 25.2984C45.1616 25.2984 44.9337 25.3617 44.7648 25.4883C44.596 25.6149 44.4989 25.8217 44.4736 26.1171H42.9884H42.9927Z" fill="white"/>
<path d="M50.1622 24.4544V25.2098H50.1918C50.3817 24.8975 50.6265 24.6654 50.9259 24.522C51.2256 24.3785 51.5337 24.3067 51.8461 24.3067C52.2425 24.3067 52.5718 24.3616 52.825 24.4671C53.0783 24.5768 53.2806 24.7245 53.4283 24.9186C53.576 25.1127 53.6773 25.3448 53.7364 25.6191C53.7955 25.8934 53.8251 26.2015 53.8251 26.5349V29.8644H52.3354V26.8049C52.3354 26.3576 52.2636 26.0242 52.1243 25.8048C51.985 25.5854 51.7363 25.4756 51.3818 25.4756C50.9765 25.4756 50.6853 25.598 50.5041 25.8385C50.3226 26.0791 50.2298 26.4758 50.2298 27.0286V29.8686H48.7401V24.4544H50.1622Z" fill="white"/>
<path d="M11.0519 31.8055L14.1747 36.8232H14.1958V31.8055H15.736V39.2876H14.0903L10.9802 34.2784H10.9591V39.2876H9.41883V31.8055H11.0519Z" fill="white"/>
<path d="M19.9518 35.1393C19.7745 34.9451 19.5045 34.8439 19.1416 34.8439C18.9052 34.8439 18.7069 34.8861 18.5508 34.9662C18.3946 35.0464 18.268 35.1477 18.1752 35.2659C18.0824 35.3841 18.0148 35.5108 17.9769 35.6413C17.9389 35.7721 17.9136 35.8945 17.9093 35.9958H20.3274C20.2556 35.6205 20.1333 35.3335 19.956 35.135M18.2765 37.9836C18.5002 38.1985 18.8209 38.3083 19.2386 38.3083C19.5382 38.3083 19.7956 38.2323 20.0151 38.0849C20.2303 37.933 20.3654 37.7768 20.4118 37.6079H21.7199C21.509 38.2576 21.1882 38.722 20.7578 39.0006C20.3231 39.2791 19.7999 39.4181 19.188 39.4181C18.7618 39.4181 18.3778 39.3509 18.0359 39.2158C17.6941 39.0808 17.4029 38.8866 17.1666 38.6333C16.9303 38.38 16.7447 38.0807 16.6181 37.7346C16.4915 37.3884 16.4239 37.0001 16.4239 36.5826C16.4239 36.1647 16.4915 35.8017 16.6223 35.4517C16.7531 35.1013 16.943 34.8017 17.1877 34.5443C17.4325 34.2911 17.7237 34.0885 18.0613 33.9408C18.3988 33.7931 18.7744 33.7214 19.188 33.7214C19.6479 33.7214 20.0488 33.81 20.3906 33.9872C20.7325 34.1645 21.0152 34.405 21.2347 34.7046C21.4541 35.0042 21.6144 35.3461 21.7115 35.7299C21.8086 36.114 21.8423 36.515 21.817 36.9326H17.9093C17.9304 37.4138 18.0528 37.7641 18.2765 37.9794" fill="white"/>
<path d="M25.2688 33.8691V34.865H24.1801V37.5446C24.1801 37.7979 24.2223 37.9625 24.3067 38.0469C24.3911 38.131 24.5599 38.1732 24.8088 38.1732C24.8932 38.1732 24.9734 38.1732 25.0494 38.1606C25.1253 38.1521 25.2013 38.1437 25.2688 38.131V39.2834C25.1422 39.3045 25.0029 39.3171 24.8511 39.3256C24.6991 39.334 24.5472 39.334 24.3995 39.334C24.1674 39.334 23.9522 39.3171 23.7454 39.2876C23.5386 39.258 23.3572 39.1947 23.2011 39.1061C23.0449 39.0174 22.9183 38.8866 22.8297 38.7177C22.7368 38.5489 22.6947 38.3294 22.6947 38.0596V34.865H21.7958V33.8691H22.6947V32.2444H24.1801V33.8691H25.2688Z" fill="white"/>
<path d="M30.548 39.2876L29.5859 35.6497H29.5648L28.6449 39.2876H27.1046L25.3871 33.8691H26.9569L27.9528 37.5488H27.9739L28.8727 33.8691H30.3202L31.2401 37.5362H31.2612L32.2571 33.8691H33.7847L32.0799 39.2876H30.548Z" fill="white"/>
<path d="M35.249 37.2196C35.2913 37.4264 35.363 37.6122 35.4643 37.7768C35.5656 37.9414 35.7007 38.0723 35.8692 38.169C36.038 38.2661 36.2449 38.3167 36.4981 38.3167C36.7514 38.3167 36.9625 38.2661 37.131 38.169C37.304 38.0723 37.4391 37.9414 37.5404 37.7768C37.6417 37.6122 37.7135 37.4264 37.7557 37.2196C37.7979 37.0128 37.819 36.8021 37.819 36.5868C37.819 36.3715 37.7979 36.1562 37.7557 35.9494C37.7135 35.7383 37.6417 35.5572 37.5404 35.3926C37.4391 35.2322 37.304 35.1013 37.131 35C36.9582 34.8987 36.7472 34.8481 36.4981 34.8481C36.2491 34.8481 36.038 34.8987 35.8692 35C35.7007 35.1013 35.5656 35.2322 35.4643 35.3926C35.363 35.553 35.2913 35.7383 35.249 35.9494C35.2068 36.1605 35.1857 36.3715 35.1857 36.5868C35.1857 36.8021 35.2068 37.0128 35.249 37.2196ZM33.8986 35.4095C34.0295 35.0549 34.2194 34.7552 34.4641 34.5105C34.7089 34.2615 35 34.0716 35.3419 33.9324C35.6838 33.7973 36.0676 33.7298 36.4939 33.7298C36.9203 33.7298 37.304 33.7973 37.6502 33.9324C37.9963 34.0674 38.2918 34.2615 38.5362 34.5105C38.7811 34.7595 38.971 35.0591 39.1019 35.4095C39.2327 35.7637 39.3003 36.1562 39.3003 36.5868C39.3003 37.017 39.2327 37.4096 39.1019 37.7599C38.971 38.1103 38.7811 38.4054 38.5362 38.6544C38.2918 38.9035 37.9963 39.0934 37.6502 39.2243C37.304 39.3551 36.9203 39.4223 36.4939 39.4223C36.0676 39.4223 35.6838 39.3551 35.3419 39.2243C35 39.0934 34.7047 38.8992 34.4641 38.6544C34.2194 38.4054 34.0295 38.1103 33.8986 37.7599C33.7678 37.4096 33.7003 37.0212 33.7003 36.5868C33.7003 36.152 33.7678 35.7595 33.8986 35.4095Z" fill="white"/>
<path d="M41.3088 34.8734H41.3299C41.3974 34.7046 41.4945 34.5485 41.6127 34.4092C41.7309 34.2657 41.8656 34.1434 42.0218 34.0421C42.1738 33.9408 42.3384 33.8606 42.5157 33.8057C42.6887 33.7509 42.8703 33.7214 43.0598 33.7214C43.1569 33.7214 43.2667 33.7382 43.3849 33.772V35.1561C43.3173 35.1435 43.2329 35.1308 43.1316 35.1182C43.0349 35.1055 42.9378 35.1013 42.8491 35.1013C42.5748 35.1013 42.3468 35.1477 42.1569 35.2364C41.9669 35.3292 41.815 35.4517 41.7014 35.6078C41.5874 35.7637 41.503 35.9494 41.4565 36.1562C41.4059 36.3673 41.3848 36.591 41.3848 36.8358V39.2749H39.8951V33.8606H41.3088V34.8734Z" fill="white"/>
<path d="M45.2291 31.8055V35.8185L47.1026 33.8691H48.8625L46.8198 35.8608L49.0946 39.2876H47.2926L45.8071 36.8654L45.2291 37.4222V39.2876H43.7437V31.8055H45.2291Z" fill="white"/>
<path d="M53.2848 37.2196C53.327 37.4264 53.3987 37.6122 53.5001 37.7768C53.6014 37.9414 53.7364 38.0723 53.9053 38.169C54.0741 38.2661 54.281 38.3167 54.5339 38.3167C54.7871 38.3167 54.9982 38.2661 55.167 38.169C55.3401 38.0723 55.4752 37.9414 55.5765 37.7768C55.6774 37.6122 55.7492 37.4264 55.7914 37.2196C55.8336 37.0128 55.8547 36.8021 55.8547 36.5868C55.8547 36.3715 55.8336 36.1562 55.7914 35.9494C55.7492 35.7383 55.6774 35.5572 55.5765 35.3926C55.4752 35.2322 55.3401 35.1013 55.167 35C54.994 34.8987 54.7829 34.8481 54.5339 34.8481C54.2852 34.8481 54.0741 34.8987 53.9053 35C53.7364 35.1013 53.6014 35.2322 53.5001 35.3926C53.3987 35.553 53.327 35.7383 53.2848 35.9494C53.2426 36.1605 53.2215 36.3715 53.2215 36.5868C53.2215 36.8021 53.2426 37.0128 53.2848 37.2196ZM51.9344 35.4095C52.0652 35.0549 52.2552 34.7552 52.5 34.5105C52.7448 34.2615 53.0361 34.0716 53.3776 33.9324C53.7195 33.7973 54.1037 33.7298 54.5297 33.7298C54.956 33.7298 55.3401 33.7973 55.6859 33.9324C56.032 34.0674 56.3275 34.2615 56.5723 34.5105C56.8171 34.7595 57.0067 35.0591 57.1376 35.4095C57.2684 35.7637 57.336 36.1562 57.336 36.5868C57.336 37.017 57.2684 37.4096 57.1376 37.7599C57.0067 38.1103 56.8171 38.4054 56.5723 38.6544C56.3275 38.9035 56.032 39.0934 55.6859 39.2243C55.3401 39.3551 54.956 39.4223 54.5297 39.4223C54.1037 39.4223 53.7195 39.3551 53.3776 39.2243C53.0361 39.0934 52.7406 38.8992 52.5 38.6544C52.2552 38.4054 52.0652 38.1103 51.9344 37.7599C51.8039 37.4096 51.7363 37.0212 51.7363 36.5868C51.7363 36.152 51.8039 35.7595 51.9344 35.4095Z" fill="white"/>
<path d="M57.336 33.8691H58.2263V33.4513C58.2263 32.9702 58.3782 32.5735 58.6779 32.2697C58.9776 31.9616 59.4332 31.8097 60.041 31.8097C60.1719 31.8097 60.3069 31.8139 60.4378 31.8266C60.5683 31.8393 60.6991 31.8477 60.8258 31.8519V32.9618C60.6527 32.9407 60.4716 32.9323 60.2816 32.9323C60.079 32.9323 59.9355 32.9787 59.8468 33.0715C59.7582 33.1643 59.716 33.3247 59.716 33.5484V33.8733H60.7414V34.8692H59.716V39.2876H58.2263V34.8692H57.336V33.8691Z" fill="white"/>
<path d="M11.0646 41.2244V47.3221H14.7106V48.7021H9.41883V41.2244H11.0646Z" fill="white"/>
<path d="M16.5885 48.7021H15.1031V43.2878H16.5885V48.7021ZM15.1031 41.2244H16.5885V42.4481H15.1031V41.2244Z" fill="white"/>
<path d="M18.766 48.7021L16.9134 43.2878H18.4748L19.6184 46.9844H19.6353L20.7789 43.2878H22.2558L20.4244 48.7021H18.766Z" fill="white"/>
<path d="M24.0705 48.7021H22.5851V43.2878H24.0705V48.7021ZM22.5851 41.2244H24.0705V42.4481H22.5851V41.2244Z" fill="white"/>
<path d="M26.3196 43.2878V44.0434H26.3491C26.539 43.731 26.7838 43.4988 27.0834 43.3553C27.383 43.2118 27.6911 43.14 28.0033 43.14C28.4 43.14 28.7292 43.1949 28.9824 43.3005C29.2356 43.4102 29.4381 43.5579 29.5858 43.7521C29.7335 43.9463 29.8348 44.1784 29.8939 44.4525C29.9529 44.7268 29.9825 45.035 29.9825 45.3684V48.6978H28.4928V45.6382C28.4928 45.1912 28.4211 44.8577 28.2819 44.6382C28.1426 44.4187 27.8936 44.3093 27.5392 44.3093C27.134 44.3093 26.8429 44.4314 26.6614 44.672C26.4799 44.9126 26.3871 45.3093 26.3871 45.862V48.7021H24.9017V43.2878H26.3196Z" fill="white"/>
<path d="M33.831 47.301C33.9914 47.2166 34.1264 47.1068 34.2277 46.9675C34.3332 46.8286 34.4092 46.6682 34.464 46.4909C34.5146 46.3136 34.5442 46.1279 34.5442 45.9295C34.5442 45.7058 34.5231 45.4951 34.4809 45.2967C34.4387 45.0983 34.367 44.921 34.2699 44.769C34.1728 44.6171 34.042 44.4947 33.8817 44.4018C33.7213 44.3135 33.5187 44.2671 33.274 44.2671C33.063 44.2671 32.8858 44.3093 32.7339 44.3934C32.5819 44.4778 32.4596 44.5918 32.3583 44.7353C32.257 44.8788 32.1853 45.0434 32.1388 45.2291C32.0924 45.4149 32.0713 45.609 32.0713 45.8113C32.0713 46.0139 32.0924 46.1997 32.1304 46.3938C32.1684 46.588 32.2359 46.7611 32.3287 46.9127C32.4216 47.0646 32.5482 47.1913 32.7001 47.2883C32.852 47.3854 33.0461 47.4361 33.2782 47.4361C33.4892 47.4361 33.6707 47.3939 33.8353 47.3094M35.8734 49.1115C35.8143 49.3897 35.6877 49.6515 35.4893 49.8921C35.2955 50.1327 35.0126 50.3395 34.6412 50.5041C34.2699 50.6726 33.7762 50.757 33.1558 50.757C32.89 50.757 32.6199 50.7233 32.3456 50.6557C32.0713 50.5885 31.8181 50.4872 31.5903 50.3479C31.3624 50.2086 31.1767 50.0271 31.0248 49.8076C30.8729 49.5881 30.7885 49.3226 30.7674 49.0186H32.2444C32.3161 49.2972 32.4511 49.4911 32.6537 49.6008C32.8562 49.7106 33.0883 49.7612 33.3542 49.7612C33.7719 49.7612 34.08 49.6346 34.2699 49.3855C34.464 49.1326 34.5526 48.816 34.5484 48.4319V47.7189H34.5273C34.367 48.0059 34.1391 48.2166 33.8395 48.3517C33.5441 48.4868 33.2318 48.5543 32.9026 48.5543C32.4976 48.5543 32.1473 48.4826 31.8561 48.339C31.5607 48.1955 31.3202 48.0017 31.1345 47.7527C30.9446 47.5036 30.8096 47.2166 30.721 46.8831C30.6324 46.55 30.5901 46.1996 30.5901 45.8324C30.5901 45.4824 30.6408 45.1447 30.7421 44.8239C30.8433 44.4989 30.991 44.2122 31.1894 43.9632C31.3835 43.7141 31.6282 43.5157 31.9152 43.3722C32.2064 43.2245 32.5397 43.1527 32.9153 43.1527C33.2698 43.1527 33.5821 43.2203 33.8521 43.3511C34.1222 43.482 34.3459 43.7057 34.5273 44.0223H34.5484V43.3005H35.9621V48.3686C35.9621 48.5839 35.9325 48.8329 35.8734 49.1115Z" fill="white"/>
<path d="M41.237 41.2244V47.3221H44.883V48.7021H39.5954V41.2244H41.237Z" fill="white"/>
<path d="M48.7485 46.0519C48.6852 46.1068 48.605 46.1532 48.5121 46.1828C48.4192 46.2123 48.3179 46.2419 48.2082 46.263C48.0984 46.2841 47.9848 46.301 47.8666 46.3136C47.7484 46.3263 47.6303 46.3432 47.5121 46.3643C47.4023 46.3854 47.2883 46.4149 47.1828 46.4487C47.0731 46.4825 46.9802 46.5289 46.9 46.5922C46.8198 46.6513 46.7568 46.7273 46.7062 46.8159C46.6555 46.9084 46.6344 47.0224 46.6344 47.1617C46.6344 47.301 46.6598 47.4065 46.7062 47.4952C46.7568 47.588 46.8202 47.6598 46.9042 47.7105C46.9886 47.7611 47.0857 47.7991 47.1997 47.8202C47.3137 47.8413 47.4276 47.8498 47.5458 47.8498C47.8413 47.8498 48.065 47.8033 48.2251 47.702C48.3855 47.6049 48.5037 47.4867 48.5796 47.3517C48.6556 47.2166 48.7021 47.0773 48.7232 46.938C48.7401 46.799 48.7485 46.6851 48.7485 46.6049V46.0477V46.0519ZM45.3136 44.9506C45.3347 44.6002 45.4233 44.3135 45.5749 44.0814C45.7269 43.8492 45.9253 43.6677 46.1617 43.5242C46.398 43.3849 46.6682 43.2836 46.9633 43.2245C47.2588 43.1654 47.5585 43.1358 47.8582 43.1358C48.1322 43.1358 48.4066 43.1569 48.6852 43.1949C48.9638 43.2329 49.2213 43.3089 49.4488 43.4186C49.681 43.5284 49.8667 43.6846 50.0145 43.883C50.1622 44.0814 50.234 44.3473 50.234 44.672V47.491C50.234 47.7358 50.2466 47.9679 50.2762 48.1913C50.3057 48.415 50.3522 48.5839 50.4239 48.6936H48.9173C48.8878 48.6092 48.8667 48.5248 48.8498 48.4361C48.8329 48.3475 48.8203 48.2588 48.8118 48.1702C48.5754 48.415 48.2968 48.5839 47.9722 48.6852C47.6514 48.7823 47.3221 48.8329 46.9886 48.8329C46.7315 48.8329 46.4909 48.8034 46.2672 48.7401C46.0435 48.6767 45.8493 48.5796 45.6805 48.4446C45.512 48.3137 45.3811 48.1449 45.2882 47.9426C45.1954 47.74 45.1447 47.4994 45.1447 47.2208C45.1447 46.9127 45.1996 46.6597 45.3093 46.4614C45.4191 46.263 45.5584 46.1026 45.7269 45.9844C45.8957 45.8662 46.0941 45.7775 46.3136 45.7184C46.5331 45.6593 46.7568 45.6133 46.9802 45.5753C47.2039 45.5415 47.4234 45.512 47.6387 45.4909C47.854 45.4698 48.0481 45.4402 48.2124 45.398C48.3813 45.3558 48.5121 45.2967 48.6092 45.2165C48.7063 45.1363 48.7527 45.0181 48.7443 44.8661C48.7443 44.7057 48.7189 44.5791 48.6641 44.482C48.6134 44.3891 48.5417 44.3135 48.453 44.2629C48.3644 44.2122 48.2631 44.1742 48.1491 44.1573C48.0355 44.1405 47.9088 44.132 47.778 44.132C47.4825 44.132 47.2546 44.1953 47.0857 44.322C46.9169 44.4482 46.8198 44.6551 46.7948 44.9506H45.3093H45.3136Z" fill="white"/>
<path d="M54.9644 45.3431C54.9138 45.1321 54.8378 44.9506 54.7323 44.7859C54.6267 44.6255 54.4959 44.4989 54.3397 44.4018C54.1839 44.3093 53.9939 44.2629 53.7702 44.2629C53.5465 44.2629 53.365 44.3093 53.2046 44.4018C53.0445 44.4947 52.9095 44.6255 52.8081 44.7859C52.7026 44.9463 52.6266 45.1321 52.576 45.3431C52.5253 45.5542 52.5042 45.7733 52.5042 46.0013C52.5042 46.2292 52.5295 46.4403 52.576 46.6513C52.6266 46.8624 52.7026 47.0477 52.8081 47.2081C52.9137 47.3685 53.0445 47.4952 53.2046 47.5923C53.365 47.6851 53.5549 47.7358 53.7702 47.7358C53.9855 47.7358 54.1839 47.6894 54.3397 47.5923C54.4959 47.4994 54.6267 47.3728 54.7323 47.2081C54.8378 47.0477 54.9138 46.8624 54.9644 46.6513C55.0109 46.4403 55.0362 46.225 55.0362 46.0013C55.0362 45.7775 55.0109 45.55 54.9644 45.3431ZM52.5549 41.2286V43.9505H52.576C52.7575 43.6719 53.0023 43.4651 53.3143 43.3384C53.6267 43.2076 53.9475 43.1443 54.2852 43.1443C54.5592 43.1443 54.8251 43.1991 55.0911 43.3131C55.357 43.4229 55.5972 43.5959 55.8083 43.8281C56.0193 44.0603 56.1924 44.3557 56.3275 44.7142C56.4583 45.073 56.5259 45.5035 56.5259 45.997C56.5259 46.4909 56.4583 46.9211 56.3275 47.2799C56.1966 47.6387 56.0236 47.9342 55.8083 48.166C55.5972 48.3981 55.357 48.567 55.0911 48.681C54.8251 48.7907 54.555 48.8498 54.2852 48.8498C53.8884 48.8498 53.5296 48.7865 53.2172 48.6598C52.9052 48.5332 52.6646 48.3222 52.5042 48.0228H52.4831V48.7147H51.0694V41.237H52.5591L52.5549 41.2286Z" fill="white"/>
<path d="M58.3529 47.3601C58.4205 47.4741 58.5049 47.5712 58.6104 47.6429C58.7159 47.7147 58.8341 47.7695 58.9734 47.8033C59.1085 47.8371 59.252 47.854 59.3994 47.854C59.5049 47.854 59.6147 47.8413 59.7286 47.816C59.8426 47.7907 59.9481 47.7527 60.0452 47.702C60.1381 47.6514 60.2183 47.5796 60.2816 47.491C60.3449 47.4023 60.3745 47.2926 60.3745 47.1617C60.3745 46.938 60.2267 46.7695 59.927 46.6598C59.6316 46.55 59.2182 46.436 58.6864 46.3263C58.4711 46.2756 58.26 46.2208 58.0532 46.1532C57.8467 46.0857 57.6652 46.0013 57.5048 45.8915C57.3444 45.7818 57.2136 45.6467 57.1165 45.4824C57.0194 45.3178 56.9687 45.1152 56.9687 44.8788C56.9687 44.5284 57.0363 44.2418 57.1714 44.018C57.3064 43.7943 57.4879 43.617 57.7117 43.4904C57.9354 43.3595 58.1841 43.2709 58.4669 43.216C58.7455 43.1654 59.0325 43.1358 59.3276 43.1358C59.6231 43.1358 59.9059 43.1654 60.1803 43.2203C60.4547 43.2751 60.7034 43.3722 60.9186 43.5031C61.1339 43.6339 61.3154 43.8112 61.4589 44.0307C61.6025 44.2502 61.6869 44.5284 61.7164 44.8619H60.3027C60.2816 44.5749 60.1719 44.3807 59.9777 44.2798C59.7835 44.1784 59.5514 44.1278 59.2854 44.1278C59.2014 44.1278 59.1127 44.132 59.0114 44.1447C58.9143 44.1531 58.8257 44.1784 58.7455 44.2122C58.6653 44.246 58.5977 44.2966 58.5429 44.3642C58.488 44.4314 58.4584 44.52 58.4584 44.6297C58.4584 44.7606 58.5091 44.8704 58.6062 44.9548C58.7033 45.0392 58.8299 45.1067 58.9903 45.1574C59.1465 45.208 59.3276 45.2587 59.5302 45.3009C59.7329 45.3431 59.9397 45.3895 60.1465 45.436C60.3618 45.4866 60.5725 45.5457 60.7793 45.6133C60.9862 45.6847 61.1677 45.7733 61.3281 45.8915C61.4885 46.0055 61.6193 46.149 61.7164 46.3221C61.8132 46.4951 61.8638 46.7062 61.8638 46.9549C61.8638 47.3094 61.7921 47.6091 61.6489 47.8498C61.5054 48.0904 61.3196 48.2842 61.0875 48.4319C60.8553 48.5797 60.5936 48.681 60.2985 48.7401C60.003 48.7992 59.6991 48.8287 59.391 48.8287C59.0832 48.8287 58.7708 48.7991 58.4711 48.7358C58.1714 48.6725 57.9058 48.567 57.6694 48.4193C57.4373 48.2715 57.2431 48.0777 57.0912 47.8371C56.9392 47.5965 56.859 47.2926 56.8463 46.9296H58.2601C58.2601 47.09 58.2938 47.2292 58.3614 47.3432" fill="white"/>
</svg>
