<svg width="120" height="120" viewBox="0 0 120 120" fill="none" xmlns="http://www.w3.org/2000/svg">
<path d="M114.691 78.4666C114.871 78.4666 114.975 78.3859 114.975 78.2149V78.0439C114.975 77.8776 114.871 77.7969 114.691 77.7969H114.264V78.4619L114.691 78.4666ZM114.264 79.7111H113.69V77.3456H114.757C115.288 77.3456 115.559 77.6591 115.559 78.0914C115.559 78.4666 115.388 78.7041 115.132 78.8039L115.658 79.7064H115.028L114.591 78.8989H114.259L114.264 79.7111ZM116.323 78.6566V78.3621C116.323 77.4121 115.578 76.6664 114.601 76.6664C114.375 76.6613 114.152 76.7015 113.942 76.7845C113.733 76.8676 113.542 76.9919 113.382 77.15C113.221 77.3081 113.094 77.4968 113.007 77.705C112.921 77.9132 112.877 78.1367 112.878 78.3621V78.6566C112.878 79.6066 113.619 80.3571 114.601 80.3571C114.826 80.3622 115.05 80.3219 115.26 80.2385C115.47 80.1552 115.661 80.0305 115.821 79.8719C115.982 79.7133 116.109 79.524 116.195 79.3152C116.281 79.1065 116.325 78.8825 116.323 78.6566ZM112.347 78.5141C112.347 77.1841 113.353 76.1771 114.601 76.1771C115.853 76.1771 116.854 77.1889 116.854 78.5094C116.863 78.8117 116.811 79.1127 116.702 79.3947C116.593 79.6767 116.428 79.9339 116.218 80.1513C116.008 80.3686 115.757 80.5417 115.479 80.6603C115.201 80.7788 114.903 80.8405 114.601 80.8416C114.299 80.8405 114.001 80.779 113.723 80.6607C113.445 80.5424 113.194 80.3698 112.984 80.1529C112.774 79.9361 112.61 79.6794 112.501 79.398C112.391 79.1165 112.339 78.816 112.347 78.5141ZM79.8977 41.1174L78.873 38.1534H61.9841V41.1174H79.8977ZM81.857 46.7699L80.8323 43.8106H61.9841V46.7746L81.857 46.7699ZM94.4288 80.7181H109.169V77.7541H94.424L94.4288 80.7181ZM94.4288 75.0561H109.169V72.0969H94.424L94.4288 75.0561ZM94.4288 69.4036H103.272V66.4396H94.424L94.4288 69.4036ZM94.4288 63.7464H103.272V60.7824H94.424L94.4288 63.7464ZM94.4288 58.0891H103.272V55.1251H86.4066L85.5764 57.5191L84.7461 55.1251H67.881V58.0891H76.7287V55.3626L77.6775 58.0891H93.4752L94.424 55.3626L94.4288 58.0891ZM103.272 49.4679H88.3659L87.3364 52.4319H103.272V49.4679ZM67.881 63.7464H76.7287V60.7824H67.881V63.7464ZM67.881 69.3989H76.7287V66.4396H67.881V69.3989ZM61.9841 75.0561H76.7287V72.0969H61.9841V75.0561ZM61.9841 80.7181H76.7287V77.7541H61.9841V80.7181ZM92.2797 38.1534L91.255 41.1174H109.169V38.1534H92.2797ZM89.2957 46.7746H109.173V43.8106H90.3204L89.2957 46.7746ZM67.881 52.4271H83.8163L82.7916 49.4679H67.881V52.4271ZM79.6558 63.7464H91.497L92.5312 60.7824H78.6216L79.6558 63.7464ZM81.634 69.3989H89.5187L90.5529 66.4396H80.5998L81.634 69.3989ZM83.6076 75.0561H87.5451L88.5794 72.0969H82.5734L83.6076 75.0561ZM85.5716 80.7181L86.6011 77.7541H84.5516L85.5716 80.7181ZM26.5886 80.6896L48.3069 80.7181C51.2578 80.7181 53.9049 79.5924 55.9069 77.7541H26.5886V80.6896ZM49.6448 66.4396V69.4036H59.5694C59.5694 68.3776 59.427 67.3849 59.1756 66.4396H49.6448ZM32.4902 69.4036H41.3379V66.4396H32.4902V69.4036ZM49.6495 52.4319H59.1756C59.427 51.4866 59.5694 50.4939 59.5694 49.4679H49.6495V52.4319ZM32.4902 52.4319H41.3379V49.4679H32.4902V52.4319ZM48.3022 38.1581H26.5886V41.1221H55.9069C53.8359 39.2125 51.1176 38.1542 48.3022 38.1581ZM58.056 43.8154H26.5886V46.7794H59.2468C58.9934 45.7402 58.594 44.7423 58.0608 43.8154H58.056ZM32.4855 55.1299V58.0939H55.5891C56.5711 57.2579 57.4013 56.2556 58.0513 55.1299H32.4855ZM55.5891 60.7871H32.4855V63.7511H58.0513C57.4053 62.6298 56.5726 61.6274 55.5891 60.7871ZM26.5839 75.0656H58.056C58.5779 74.1489 58.9858 73.1561 59.242 72.1016H26.5886L26.5839 75.0656ZM2.99634 41.1174H23.6425V38.1534H2.99634V41.1174ZM2.99634 46.7746H23.6425V43.8106H2.99634V46.7746ZM8.89322 52.4319H17.7409V49.4679H8.89322V52.4319ZM8.89322 58.0891H17.7409V55.1251H8.89322V58.0891ZM8.89322 63.7416H17.7409V60.7824H8.89322V63.7416ZM8.89322 69.4036H17.7409V66.4396H8.89322V69.4036ZM2.99634 75.0609H23.6425V72.1016H2.99634V75.0609ZM2.99634 80.7229H23.6425V77.7589H2.99634V80.7229Z" fill="white"/>
</svg>
