<svg width="120" height="120" viewBox="0 0 120 120" fill="none" xmlns="http://www.w3.org/2000/svg">
<path d="M72.2011 27.9927C79.7 22.8636 89.1644 22.8901 96.8722 26.0957C104.609 29.3134 111.347 36.0615 112.824 45.2946L112.857 45.5027C114.202 54.3097 110.172 62.6348 104.154 68.0602C98.1186 73.5007 89.4405 76.6003 80.8628 74.0582C71.3898 71.848 64.3599 65.0262 59.6698 57.436C57.5512 60.664 55.1823 63.8799 52.3606 66.6891C46.1192 73.6043 36.7409 75.6528 28.4232 74.1548C20.0886 72.6538 11.972 67.4405 8.47207 58.7588C4.87041 50.5665 6.90792 41.5371 11.5418 34.9445C16.1026 28.4557 23.7064 23.5744 32.3858 24.0654L32.6561 24.065C34.7292 24.0617 36.8947 24.238 39.0543 24.7133L39.2632 24.7603L39.2636 24.7604C48.5891 26.8979 55.128 33.6739 59.9503 40.6171C63.1019 35.9752 66.9016 31.3887 72.2011 27.9927ZM93.5537 34.2118C87.9301 31.873 81.6384 32.1234 77.0487 35.2845L76.9847 35.3285L76.9193 35.3702C71.9397 38.544 68.4923 43.2816 64.9481 48.9498C68.8577 57.0259 75.0741 63.7421 82.929 65.5294L83.0794 65.5637L83.2271 65.6086C88.3079 67.153 93.9943 65.4435 98.3522 61.5149C102.714 57.5828 105.093 52.0093 104.233 46.7127L104.231 46.7005C103.343 41.1316 99.1657 36.5458 93.5537 34.2118ZM32.1995 32.851C27.0572 32.4382 21.958 35.3059 18.6435 40.0215C15.355 44.7001 14.3633 50.427 16.4023 55.1378L16.451 55.249L16.4854 55.3264L16.5169 55.4053C18.6403 60.725 23.8531 64.4139 29.9534 65.5125C36.0537 66.6111 42.1891 64.967 45.9809 60.7155L46.0724 60.6131L46.1701 60.5165C49.5394 57.1855 52.099 53.1882 54.8358 48.733C50.1473 41.2288 44.7326 35.0169 37.3346 33.3211C35.9819 33.0111 34.5361 32.864 33.0287 32.8461L32.7506 32.8953L32.1995 32.851Z" fill="white"/>
<path d="M41.9875 46.703V50.4229H24.2825V46.703H41.9875Z" fill="white"/>
<path d="M88.1678 41.1231V46.1822H93.3317V50.9438H88.1678V56.0029H83.4465V50.9438H78.5776V46.1822H83.4465V41.1231H88.1678Z" fill="white"/>
<path d="M19.2661 96.1782L18.3219 92.7559H12.3317L11.358 96.1782H8.15631L13.2317 78.9177H17.7465L22.8219 96.1782H19.2661ZM15.3711 82.0424L13.1137 90.0924H17.5989L15.3711 82.0424ZM33.4301 96.1782C33.4301 96.1782 31.7039 92.0714 30.7301 90.0775C30.165 89.2204 29.0481 88.8842 28.0743 89.0211C27.9858 91.3572 28.0035 96.1782 28.0035 96.1782H24.7724V78.9177C24.7724 78.9177 29.6412 78.7734 32.0609 79.0963C37.1806 79.6795 37.5199 87.1908 32.3752 87.9795C33.3401 88.3663 33.9243 89.2666 34.3375 90.1817L36.9194 95.5681C37.1009 95.9372 37.0965 96.2229 36.5742 96.2199L33.4301 96.1782ZM32.6304 83.9619C32.6157 81.2985 29.9747 81.596 28.0124 81.5812V86.4617C30.3288 86.5406 32.5861 86.3025 32.6304 83.9619ZM51.4301 91.7143C49.8661 95.3598 46.4432 96.208 43.1973 96.1485H39.2284V78.8879L45.2629 78.9177C52.7284 79.1632 52.994 87.2801 51.4153 91.7738L51.4301 91.7143ZM47.2989 82.593C45.794 81.2895 44.1416 81.5559 42.4596 81.5559V93.415C43.935 93.415 45.5432 93.5341 46.7973 92.6115C49.4678 90.9152 49.1284 84.4872 47.2916 82.5975L47.2989 82.593ZM66.9219 89.7799C67.242 98.4995 54.8973 98.4697 54.5284 91.6697C54.3027 89.5865 54.4886 87.5033 54.4281 85.4202V78.8433H57.6593L57.7183 91.1935C58.0975 94.601 62.5871 94.3034 63.2658 92.4136C63.9534 90.9108 63.6347 89.2145 63.7055 87.6075V78.8433H66.9366V89.7799H66.9219ZM70.0202 81.4473V78.7838H80.8645V81.4473H77.0875V93.4106H80.8645V96.1038H70.0202V93.4106H73.7973V81.4473H70.0202ZM92.8891 96.1782L87.3416 83.6197V96.1782H84.4055V78.9177H88.3743L93.8924 91.3572C93.9071 90.4644 93.8983 78.9177 93.8983 78.9177H96.8343V96.1782H92.8891ZM110.151 94.6902C106.566 97.8001 100.31 97.1156 99.0711 90.9852C97.3743 81.6705 102.376 76.3137 109.34 79.4385C113.619 81.8639 113.383 91.8482 110.151 94.7646V94.6902ZM105.828 81.4919C102.774 81.4101 102.332 84.5571 102.214 86.0749C102.189 88.9467 101.936 93.7231 105.887 93.5147C107.112 93.5147 108.174 92.619 108.573 91.4762C109.377 89.6758 109.983 81.3431 105.828 81.4919ZM106.61 26.0052V26.3534H107.37V28.3771H107.763V26.3534H108.53V26.0052H106.61ZM108.794 26.0052V28.3711H109.153V26.3475L109.787 28.3711H110.141L110.746 26.3921V28.3711H111.1V26.0052H110.539L109.964 27.895L109.374 26.0052H108.794Z" fill="white"/>
</svg>
