<svg width="120" height="120" viewBox="0 0 120 120" fill="none" xmlns="http://www.w3.org/2000/svg">
<path d="M113.61 67.8642C113.61 66.1463 115.033 64.7526 116.786 64.7526C118.54 64.7526 119.962 66.1463 119.962 67.8642C119.962 69.582 118.54 70.9748 116.786 70.9748C115.033 70.9748 113.61 69.582 113.61 67.8642Z" fill="white"/>
<path d="M12.311 59.6238C12.311 57.6529 11.9223 56.1907 11.1448 55.2382C10.3663 54.2865 9.18705 53.8111 7.60168 53.8111H5.91521V65.8632H7.20551C8.96646 65.8632 10.2569 65.3518 11.0786 64.3254C11.8993 63.3008 12.311 61.7333 12.311 59.6238ZM18.3254 59.4185C18.3254 63.0091 17.3402 65.7758 15.3697 67.7178C13.3992 69.6608 10.6291 70.6323 7.05849 70.6323H0.120361V49.1168H7.5428C10.9857 49.1168 13.6436 50 15.5167 51.7656C17.3889 53.532 18.3254 56.0818 18.3254 59.4185Z" fill="white"/>
<path d="M37.5439 70.632H43.0649V49.0265H37.5439V70.632Z" fill="white"/>
<path d="M50.8207 62.5731C50.8207 63.9506 51.0045 65.0013 51.3713 65.7234C51.7389 66.4463 52.3546 66.8074 53.2204 66.8074C54.077 66.8074 54.6826 66.4463 55.0355 65.7234C55.3885 65.0013 55.564 63.9506 55.564 62.5731C55.564 61.2028 55.3857 60.1691 55.0282 59.4714C54.6697 58.7718 54.0587 58.4216 53.192 58.4216C52.3446 58.4216 51.7389 58.77 51.3713 59.4633C51.0045 60.1575 50.8207 61.1938 50.8207 62.5731ZM61.1833 62.5731C61.1833 65.1976 60.481 67.245 59.073 68.7125C57.666 70.181 55.6964 70.9156 53.1644 70.9156C50.7362 70.9156 48.8033 70.1648 47.3686 68.663C45.9321 67.1612 45.2144 65.1319 45.2144 62.5731C45.2144 59.9567 45.9175 57.9237 47.3255 56.4741C48.7335 55.0246 50.7076 54.2998 53.2498 54.2998C54.8206 54.2998 56.2102 54.6356 57.4142 55.3064C58.6191 55.9772 59.5492 56.9378 60.2027 58.1893C60.857 59.439 61.1833 60.9011 61.1833 62.5731Z" fill="white"/>
<path d="M63.3757 70.6321H68.8976V62.3633V54.5834H63.3757V70.6321Z" fill="white"/>
<path d="M63.3756 52.6422H68.8974V49.0255H63.3756V52.6422Z" fill="white"/>
<path d="M80.0843 66.5387C80.8297 66.5387 81.7175 66.3532 82.7532 65.985V70.023C82.0088 70.3435 81.3012 70.5731 80.6284 70.709C79.9556 70.8468 79.1661 70.9152 78.2627 70.9152C76.4089 70.9152 75.0725 70.4588 74.2518 69.5476C73.4347 68.6365 73.0248 67.2373 73.0248 65.3493V58.7336H71.0912V54.5848H73.0248V50.4864L78.589 49.5383V54.5848H82.1118V58.7336H78.589V64.9802C78.589 66.0192 79.088 66.5387 80.0843 66.5387Z" fill="white"/>
<path d="M92.8639 66.5387C93.6093 66.5387 94.4972 66.3532 95.533 65.985V70.023C94.7895 70.3435 94.0807 70.5731 93.408 70.709C92.7343 70.8468 91.9476 70.9152 91.0423 70.9152C89.1885 70.9152 87.8523 70.4588 87.0333 69.5476C86.2145 68.6365 85.8046 67.2373 85.8046 65.3493V58.7336H83.8699V54.5848H85.8046V50.4243L91.3677 49.5383V54.5848H94.8923V58.7336H91.3677V64.9802C91.3677 66.0192 91.8667 66.5387 92.8639 66.5387Z" fill="white"/>
<path d="M102.5 60.6179C102.575 59.7391 102.832 59.0954 103.269 58.6839C103.709 58.2734 104.251 58.0681 104.9 58.0681C105.608 58.0681 106.17 58.2986 106.587 58.7632C107.007 59.225 107.226 59.8436 107.244 60.6179H102.5ZM110.287 56.1918C108.974 54.9313 107.112 54.3002 104.703 54.3002C102.171 54.3002 100.223 55.0249 98.857 56.4745C97.4922 57.924 96.8092 60.0039 96.8092 62.7139C96.8092 65.3384 97.5473 67.3624 99.0197 68.7831C100.493 70.2038 102.562 70.9151 105.226 70.9151C106.505 70.9151 107.607 70.8296 108.529 70.6594C109.447 70.4911 110.334 70.1867 111.196 69.7474L110.347 66.1307C109.721 66.381 109.126 66.5737 108.563 66.7006C107.751 66.8852 106.859 66.9779 105.889 66.9779C104.825 66.9779 103.985 66.7231 103.369 66.2135C102.753 65.703 102.425 64.999 102.387 64.1022H112.256V61.638C112.256 59.2674 111.6 57.4514 110.287 56.1918Z" fill="white"/>
<path d="M25.653 60.6179C25.7283 59.7391 25.9847 59.0954 26.4221 58.6839C26.8606 58.2734 27.4039 58.0681 28.0537 58.0681C28.7595 58.0681 29.3219 58.2986 29.7401 58.7632C30.1601 59.225 30.378 59.8436 30.3973 60.6179H25.653ZM33.4403 56.1918C32.127 54.9313 30.2658 54.3002 27.856 54.3002C25.323 54.3002 23.3754 55.0249 22.0106 56.4745C20.6458 57.924 19.962 60.0039 19.962 62.7139C19.962 65.3384 20.6992 67.3624 22.1734 68.7831C23.6457 70.2038 25.7145 70.9151 28.3789 70.9151C29.6583 70.9151 30.7593 70.8296 31.6821 70.6594C32.5993 70.4911 33.4873 70.1867 34.3494 69.7474L33.5001 66.1307C32.8742 66.381 32.2786 66.5737 31.7171 66.7006C30.9028 66.8852 30.0121 66.9779 29.0415 66.9779C27.9782 66.9779 27.1374 66.7231 26.5216 66.2135C25.9048 65.703 25.5777 64.999 25.54 64.1022H35.409V61.638C35.409 59.2674 34.7528 57.4514 33.4403 56.1918Z" fill="white"/>
</svg>
