<svg width="120" height="120" viewBox="0 0 120 120" fill="none" xmlns="http://www.w3.org/2000/svg">
<g clip-path="url(#clip0_2581_11136)">
<path d="M51.6479 54.14C48.5781 54.14 48.3588 54.62 48.3588 58.62C48.3588 62.6 48.5781 63.08 51.6479 63.08C54.7176 63.08 54.9369 62.6 54.9369 58.62C54.9369 54.62 54.7176 54.14 51.6479 54.14Z" fill="white"/>
<path d="M40.505 54.14C37.3953 54.14 37.2757 54.94 37.1561 57.58H43.5947C43.5149 54.34 43.1163 54.14 40.505 54.14Z" fill="white"/>
<path d="M58.3057 30.16C45.7874 30.16 35.6213 40.36 35.6213 52.92C35.6213 53.66 35.6611 54.4 35.7209 55.12C36.299 53.2 37.6744 52.66 40.5249 52.66C44.2326 52.66 45.4286 53.52 45.4286 57.76V58.92H37.1761C37.1761 60.2 37.216 61.1 37.3954 61.7C37.4751 61.88 37.5349 62.04 37.6146 62.2C38.0532 62.88 38.8904 63.02 40.5449 63.02C42.897 63.02 43.6744 62.86 43.6744 61.24V60.8H45.4485V61.22C45.4485 64.26 43.1163 64.42 40.5449 64.42C39.8273 64.42 39.2093 64.38 38.6711 64.3C42.598 71.1 49.9136 75.66 58.3057 75.66C70.8439 75.66 80.99 65.46 80.99 52.9C80.99 40.34 70.8439 30.16 58.3057 30.16ZM51.7077 64.44C47.4419 64.44 46.6246 63.42 46.6246 58.56C46.6246 53.7 47.4618 52.66 51.7077 52.66C55.9734 52.66 56.7907 53.7 56.7907 58.56C56.8106 63.4 55.9734 64.44 51.7077 64.44ZM67.8738 60.78C67.8738 64.02 65.7409 64.44 63.01 64.44C58.2459 64.44 57.9269 62.6 57.9269 58.32C57.9269 54.58 58.5847 52.66 62.7309 52.66C65.5017 52.66 67.6944 52.96 67.6944 56.24V56.54H65.9601V56.18C65.9601 54.1 64.8239 54.06 62.8306 54.06C59.7807 54.06 59.701 55.12 59.701 58.8C59.701 62.04 59.8405 63.04 63.1894 63.04C65.3621 63.04 66.1396 62.8 66.1396 60.72V60.16H67.8738V60.78Z" fill="white"/>
<path d="M4.58472 83.18H7.55482V84.18H4.58472V85.86H7.73422V86.9H3.36877V80.54H7.71429V81.6H4.58472V83.18Z" fill="white"/>
<path d="M9.70763 82.46V83.12H9.74749C9.9867 82.46 10.5249 82.4 11.1428 82.4C12.299 82.4 12.6578 82.88 12.6578 83.96V86.9H11.6013V84.08C11.6013 83.44 11.4618 83.22 10.784 83.22C9.84716 83.22 9.72756 83.66 9.72756 84.46V86.9H8.67108V82.46H9.70763Z" fill="white"/>
<path d="M13.1561 82.46H13.7143V81.46H14.7707V82.46H16.4651V83.28H14.7707V85.56C14.7707 85.96 14.7707 86.16 15.2292 86.16C15.8272 86.16 15.7674 85.68 15.7674 85.22H16.7043C16.7242 86.56 16.3854 86.98 15.2292 86.98C14.0731 86.98 13.7143 86.7 13.7143 85.58V83.3H13.1561V82.46Z" fill="white"/>
<path d="M21.2293 85.48C21.2293 86.88 20.4319 86.94 19.1562 86.94C17.4618 86.94 17.103 86.4 17.103 84.68C17.103 83.08 17.3622 82.4 19.1562 82.4C20.9701 82.4 21.2293 82.94 21.2293 84.88H18.1794C18.1794 85.84 18.1994 86.14 19.1562 86.14C19.7542 86.14 20.1529 86.14 20.1529 85.48H21.2293ZM20.1728 84.2C20.1728 83.28 20.0333 83.22 19.1761 83.22C18.2592 83.22 18.1994 83.42 18.1994 84.2H20.1728Z" fill="white"/>
<path d="M30.2591 82.82V84.54C30.2591 86.58 29.4817 86.96 27.5482 86.96C25.5947 86.96 24.8771 86.62 24.8771 84.54V82.82C24.8771 80.84 25.5349 80.5 27.5482 80.5C29.3821 80.5 30.2591 80.78 30.2591 82.82ZM26.093 82.82V84.54C26.093 85.8 26.3322 85.92 27.5482 85.92C28.6445 85.92 29.0432 85.76 29.0432 84.54V82.82C29.0631 81.62 28.6445 81.54 27.5482 81.54C26.2525 81.54 26.113 81.82 26.093 82.82Z" fill="white"/>
<path d="M33.8073 83.66C33.8073 83.12 33.5283 83.12 32.9701 83.12C32.412 83.12 32.0133 83.12 32.0133 83.7C32.0133 84.14 32.1329 84.16 33.0698 84.2C34.1263 84.26 35.0432 84.18 35.0432 85.62C35.0432 86.82 34.1063 86.94 32.9701 86.94C31.7542 86.94 30.9568 86.94 30.9568 85.5H32.0133C32.0332 86.14 32.1728 86.22 32.9701 86.22C33.608 86.22 33.9668 86.24 33.9668 85.62C33.9668 85.24 33.9469 85.04 32.8704 85.02C31.2359 85 30.9369 84.78 30.9369 83.64C30.9369 82.42 31.814 82.4 32.9502 82.4C33.8273 82.4 34.8638 82.42 34.8638 83.66H33.8073Z" fill="white"/>
<path d="M36.8173 83.12H36.8571C37.1362 82.54 37.6146 82.4 38.2326 82.4C39.887 82.4 39.9269 83.44 39.9269 84.8C39.9269 86.1 39.7475 86.94 38.2326 86.94C37.6943 86.94 37.1362 86.84 36.897 86.3H36.8571V88.82H35.8007V82.44H36.8571L36.8173 83.12ZM38.8704 84.82C38.8704 83.82 38.8904 83.22 37.9335 83.22C36.8372 83.22 36.8771 83.76 36.8771 84.82C36.8771 85.76 37.0166 86.16 37.9335 86.16C38.6512 86.14 38.8704 85.92 38.8704 84.82Z" fill="white"/>
<path d="M44.7907 85.48C44.7907 86.88 43.9934 86.94 42.7176 86.94C41.0233 86.94 40.6844 86.4 40.6844 84.68C40.6844 83.08 40.9435 82.4 42.7176 82.4C44.5515 82.4 44.7907 82.94 44.7907 84.88H41.7409C41.7409 85.84 41.7608 86.14 42.7176 86.14C43.3156 86.14 43.7143 86.14 43.7143 85.48H44.7907ZM43.7143 84.2C43.7143 83.28 43.5748 83.22 42.7176 83.22C41.8007 83.22 41.7409 83.42 41.7409 84.2H43.7143Z" fill="white"/>
<path d="M48.598 86.24H48.5582C48.2791 86.82 47.8007 86.96 47.1828 86.96C45.5283 86.96 45.4884 85.92 45.4884 84.56C45.4884 83.26 45.6678 82.42 47.1828 82.42C47.721 82.42 48.2791 82.52 48.5183 83.06H48.5582V80.56H49.6147V86.92H48.5582L48.598 86.24ZM46.5449 84.54C46.5449 85.54 46.5249 86.14 47.4818 86.14C48.5781 86.14 48.5382 85.6 48.5382 84.54C48.5382 83.6 48.4186 83.2 47.4818 83.2C46.7442 83.22 46.5449 83.42 46.5449 84.54Z" fill="white"/>
<path d="M53.5615 86.34H53.5416C53.3223 86.94 52.6844 86.94 52.1661 86.94C51.1695 86.94 50.5117 86.72 50.5117 85.52C50.5117 84.46 51.0698 84.16 52.1661 84.16C52.7043 84.16 53.2426 84.16 53.5017 84.66H53.5416V84.08C53.5416 83.36 53.4818 83.1 52.6047 83.1C52.1462 83.1 51.7675 83.14 51.7675 83.72H50.711C50.711 82.42 51.5881 82.38 52.6047 82.38C54.02 82.38 54.618 82.6 54.618 84.1V86.88H53.5615V86.34ZM51.5681 85.54C51.5681 86.16 51.8273 86.22 52.5449 86.22C53.103 86.22 53.5216 86.16 53.5216 85.54C53.5216 84.92 53.0631 84.9 52.5449 84.9C52.0067 84.9 51.5681 84.9 51.5681 85.54Z" fill="white"/>
<path d="M56.711 80.54H55.6545V86.9H56.711V80.54Z" fill="white"/>
<path d="M58.7641 81.46H57.7076V80.56H58.7641V81.46ZM58.7641 86.9H57.7076V82.46H58.7641V86.9Z" fill="white"/>
<path d="M63.7077 85.48C63.7077 86.88 62.9103 86.94 61.6346 86.94C59.9402 86.94 59.5814 86.4 59.5814 84.68C59.5814 83.08 59.8406 82.4 61.6346 82.4C63.4485 82.4 63.7077 82.94 63.7077 84.88H60.6578C60.6578 85.84 60.6778 86.14 61.6346 86.14C62.2326 86.14 62.6313 86.14 62.6313 85.48H63.7077ZM62.6313 84.2C62.6313 83.28 62.4917 83.22 61.6346 83.22C60.7176 83.22 60.6578 83.42 60.6578 84.2H62.6313Z" fill="white"/>
<path d="M65.5416 82.46L65.5216 83.04H65.5615C65.7808 82.54 66.2193 82.4 66.7376 82.4C67.6744 82.4 67.8937 82.96 67.8937 83.8V84.16H66.897V83.94C66.897 83.5 66.8572 83.22 66.3588 83.22C65.721 83.22 65.5416 83.58 65.5615 84.16V86.9H64.505V82.46H65.5416Z" fill="white"/>
<path d="M72.5781 84.68C72.5781 86.4 72.3389 86.94 70.4851 86.94C68.6312 86.94 68.392 86.38 68.392 84.68C68.392 82.96 68.6312 82.4 70.4851 82.4C72.3389 82.4 72.5781 82.96 72.5781 84.68ZM69.4684 84.7C69.4684 85.88 69.5482 86.14 70.4851 86.14C71.4219 86.14 71.5017 85.88 71.5017 84.7C71.5017 83.5 71.4219 83.22 70.4851 83.22C69.5482 83.22 69.4684 83.48 69.4684 84.7Z" fill="white"/>
<path d="M80.2326 82.68V82.34C80.2326 81.6 79.9535 81.56 78.8771 81.56C77.6612 81.56 77.4419 81.76 77.4419 83V84.4C77.4419 85.68 77.6014 85.92 78.8771 85.92C79.8539 85.92 80.2924 85.88 80.2924 84.98V84.64H81.5083V85.06C81.5283 86.98 80.4519 86.9 78.8771 86.98C76.6446 87.06 76.2459 86.32 76.226 84.48V83.02C76.226 80.98 77.0034 80.52 78.8771 80.52C80.4519 80.52 81.3688 80.52 81.4485 82.36V82.7H80.2326V82.68Z" fill="white"/>
<path d="M85.216 86.34H85.196C84.9768 86.94 84.3389 86.94 83.8206 86.94C82.8239 86.94 82.1661 86.72 82.1661 85.52C82.1661 84.46 82.7243 84.16 83.8206 84.16C84.3588 84.16 84.897 84.16 85.1562 84.66H85.196V84.08C85.196 83.36 85.1362 83.1 84.2592 83.1C83.8007 83.1 83.422 83.14 83.422 83.72H82.3655C82.3655 82.42 83.2425 82.38 84.2592 82.38C85.6744 82.38 86.2725 82.6 86.2725 84.1V86.88H85.216V86.34ZM83.2226 85.54C83.2226 86.16 83.4818 86.22 84.1994 86.22C84.7575 86.22 85.1761 86.16 85.1761 85.54C85.1761 84.92 84.7176 84.9 84.1994 84.9C83.6412 84.9 83.2226 84.9 83.2226 85.54Z" fill="white"/>
<path d="M88.3455 82.46V83.12H88.3854C88.6246 82.46 89.1628 82.4 89.7807 82.4C90.9369 82.4 91.2957 82.88 91.2957 83.96V86.9H90.2392V84.08C90.2392 83.44 90.0997 83.22 89.4219 83.22C88.485 83.22 88.3654 83.66 88.3654 84.46V86.9H87.309V82.46H88.3455Z" fill="white"/>
<path d="M91.7941 82.46H92.3522V81.46H93.4087V82.46H95.103V83.28H93.4087V85.56C93.4087 85.96 93.4087 86.16 93.8672 86.16C94.4652 86.16 94.4054 85.68 94.4054 85.22H95.3422C95.3622 86.56 95.0233 86.98 93.8672 86.98C92.711 86.98 92.3522 86.7 92.3522 85.58V83.3H91.7941V82.46Z" fill="white"/>
<path d="M99.9469 84.68C99.9469 86.4 99.7077 86.94 97.8539 86.94C96.0001 86.94 95.7609 86.38 95.7609 84.68C95.7609 82.96 96.0001 82.4 97.8539 82.4C99.7077 82.4 99.9469 82.96 99.9469 84.68ZM96.8373 84.7C96.8373 85.88 96.917 86.14 97.8539 86.14C98.7908 86.14 98.8705 85.88 98.8705 84.7C98.8705 83.5 98.7908 83.22 97.8539 83.22C96.917 83.22 96.8373 83.48 96.8373 84.7Z" fill="white"/>
<path d="M101.9 82.46V83.12H101.94C102.179 82.46 102.718 82.4 103.336 82.4C104.492 82.4 104.85 82.88 104.85 83.96V86.9H103.794V84.08C103.794 83.44 103.654 83.22 102.977 83.22C102.04 83.22 101.92 83.66 101.92 84.46V86.9H100.864V82.46H101.9Z" fill="white"/>
<path d="M108.777 86.34H108.757C108.538 86.94 107.9 86.94 107.382 86.94C106.385 86.94 105.728 86.72 105.728 85.52C105.728 84.46 106.286 84.16 107.382 84.16C107.92 84.16 108.458 84.16 108.698 84.66H108.738V84.08C108.738 83.36 108.678 83.1 107.801 83.1C107.342 83.1 106.963 83.14 106.963 83.72H105.907C105.907 82.42 106.784 82.38 107.801 82.38C109.216 82.38 109.814 82.6 109.814 84.1V86.88H108.757L108.777 86.34ZM106.784 85.54C106.784 86.16 107.043 86.22 107.761 86.22C108.319 86.22 108.738 86.16 108.738 85.54C108.738 84.92 108.279 84.9 107.761 84.9C107.223 84.9 106.784 84.9 106.784 85.54Z" fill="white"/>
<path d="M111.927 80.54H110.87V86.9H111.927V80.54Z" fill="white"/>
<path d="M116.93 85.48C116.93 86.88 116.133 86.94 114.857 86.94C113.163 86.94 112.824 86.4 112.824 84.68C112.824 83.08 113.083 82.4 114.857 82.4C116.691 82.4 116.93 82.94 116.93 84.88H113.88C113.88 85.84 113.9 86.14 114.857 86.14C115.455 86.14 115.854 86.14 115.854 85.48H116.93ZM115.874 84.2C115.874 83.28 115.734 83.22 114.877 83.22C113.96 83.22 113.9 83.42 113.9 84.2H115.874Z" fill="white"/>
<path d="M119.921 77.5768V79.0632H1.06213V87.0798H-0.424194V77.5768H119.921Z" fill="white"/>
</g>
<defs>
<clipPath id="clip0_2581_11136">
<rect width="120" height="120" fill="white"/>
</clipPath>
</defs>
</svg>
