<svg width="120" height="120" viewBox="0 0 120 120" fill="none" xmlns="http://www.w3.org/2000/svg">
<g clip-path="url(#clip0_2581_11279)">
<path d="M30 45V75H0V45H30ZM9.75806 50.7258H5.80645V54.6371C6.05645 54.9831 7.26048 55.8984 7.26452 56.2476C7.27097 56.7758 6.01532 57.5202 5.80806 58.0258L5.72581 69.1935H9.75806V50.7258ZM17.0968 50.7258H13.0645V69.1935H17.0968V50.7258ZM24.2742 50.7258H20.2419V69.1935H24.2742V50.7258Z" fill="white"/>
<path d="M110.323 56.371L110.362 57.096C111.371 55.746 113.686 55.9452 114.396 57.5008C114.508 57.5008 114.977 56.8742 115.166 56.7387C116.522 55.775 118.878 56.1863 119.636 57.7435C119.711 57.9 120 58.7145 120 58.8306V63.7903H118.266L118.145 63.6694V59.1532C118.145 59.125 117.971 58.704 117.936 58.6371C117.446 57.7226 116.129 57.7968 115.578 58.6024C115.521 58.6863 115.242 59.2661 115.242 59.3145V63.6694L115.121 63.7903H113.387V59.5564C113.387 59.5032 113.244 59.0226 113.208 58.929C112.773 57.7984 111.329 57.5871 110.659 58.6024C110.577 58.7266 110.323 59.2847 110.323 59.3952V63.6694L110.202 63.7903H108.468V56.371H110.323Z" fill="white"/>
<path d="M43.3871 56.371L43.4274 57.0968C44.4346 55.7468 46.7524 55.946 47.4605 57.5016C47.5725 57.5016 48.0411 56.875 48.2306 56.7395C49.5863 55.7758 51.9427 56.1871 52.7 57.7444C52.7758 57.9008 53.0645 58.7153 53.0645 58.8314V63.7911H51.3306L51.2096 63.6702V59.154C51.2096 59.1258 51.0355 58.7048 51 58.6379C50.4556 57.6226 49.0113 57.8476 48.5161 58.7992C48.4798 58.8685 48.3064 59.2879 48.3064 59.3153V63.6702L48.1855 63.7911H46.4516V59.5573C46.4516 59.504 46.308 59.0234 46.2726 58.9298C45.8363 57.7968 44.4032 57.5903 43.7234 58.6032C43.6653 58.6895 43.3871 59.2661 43.3871 59.3153V63.6702L43.2661 63.7911H41.5322V56.3718H43.3871V56.371Z" fill="white"/>
<path d="M77.0161 60.7258H71.4516C71.8718 62.6282 74.1726 62.5395 75.5121 61.625L76.6113 62.7016C74.7742 64.6669 70.8363 64.346 69.8565 61.6347C68.629 58.2371 71.4589 55.0798 74.9395 56.3903C75.9492 56.7702 77.0153 58.0443 77.0153 59.1532V60.7258H77.0161ZM75.2419 59.1935C75.1355 57.2193 71.771 57.3468 71.5323 59.1935H75.2419Z" fill="white"/>
<path d="M102.723 56.2306C108.031 55.5597 108.825 62.9992 104.214 63.8508C98.6629 64.8758 97.95 56.8347 102.723 56.2306ZM102.963 57.9226C100.677 58.3145 100.803 62.6782 103.892 62.1581C106.078 61.7903 105.797 57.4363 102.963 57.9226Z" fill="white"/>
<path d="M57.7242 56.2323C62.9484 55.5976 63.7734 62.9202 59.1984 63.8355C53.6637 64.9427 52.8371 56.8258 57.7242 56.2323ZM57.8823 57.9226C55.8403 58.2702 55.8718 61.8927 57.8702 62.1702C61.2758 62.6444 60.9766 57.3952 57.8823 57.9226Z" fill="white"/>
<path d="M84.1823 57.0266C84.3194 57.2645 83.3524 58.0105 83.2984 58.3C82.6637 57.9556 82.1766 57.654 81.4121 57.6532C80.8121 57.6532 79.6613 57.9306 80.1573 58.7548C80.4524 59.2468 82.2452 59.2282 82.8863 59.4121C85.3452 60.1161 85.0557 63.1686 82.7428 63.8298C81.6363 64.146 80.1782 64.0669 79.1387 63.5621C78.8871 63.4403 78.2008 62.9944 78.0589 62.7831C78.0113 62.7121 77.954 62.6766 78.021 62.5839L78.9113 61.3718C79.4516 62.2169 82.5718 62.971 82.7403 61.6452C82.8702 60.6218 80.904 60.7669 80.179 60.5863C77.4307 59.9008 77.6226 56.8573 80.3202 56.246C81.2573 56.0339 82.3549 56.1016 83.2468 56.4694C83.3815 56.525 84.1492 56.9677 84.1823 57.025V57.0266Z" fill="white"/>
<path d="M98.7903 57.179L97.6218 58.4492C95.9782 57.2105 93.8903 58.146 94.0298 60.2863C94.1363 61.9274 95.8355 62.6113 97.2347 61.9532C97.3911 61.8798 97.6008 61.5936 97.7709 61.6266L98.9508 62.7839C97.0105 64.8613 93.0347 64.179 92.3169 61.2742C91.4871 57.9169 94.2209 55.1476 97.5218 56.3919C98.0387 56.5863 98.3363 56.9113 98.7911 57.1807L98.7903 57.179Z" fill="white"/>
<path d="M65.2419 56.371V57.0968C65.8242 56.5065 66.3476 56.1419 67.2169 56.1234C67.6218 56.1145 69.1516 56.45 69.196 56.8984C69.2242 57.1871 68.4863 58.0823 68.4661 58.4677C67.4935 57.6887 65.7806 57.8137 65.3774 59.1274C65.3524 59.2089 65.2419 59.6782 65.2419 59.7177V63.7903H63.5081L63.3871 63.6694V56.371H65.2419Z" fill="white"/>
<path d="M85.7258 63.7903V56.2903H87.4597L87.5807 56.4113V63.6693L87.4597 63.7903H85.7258Z" fill="white"/>
<path d="M90.0613 61.7113C91.7226 61.4718 91.746 64.1694 89.9783 63.8524C88.7992 63.6411 88.8831 61.8815 90.0613 61.7113Z" fill="white"/>
<path d="M86.3492 53.2452C88.1218 52.9169 88.1524 55.3903 86.6532 55.3879C85.271 55.3863 85.2137 53.4556 86.3492 53.2452Z" fill="white"/>
<path d="M23.0363 67.875C21.9331 68.9048 20.4202 67.3145 21.3702 66.2492C22.4121 65.0815 24.1823 66.8048 23.0363 67.875Z" fill="white"/>
</g>
<defs>
<clipPath id="clip0_2581_11279">
<rect width="120" height="120" fill="white"/>
</clipPath>
</defs>
</svg>
