<svg width="120" height="120" viewBox="0 0 120 120" fill="none" xmlns="http://www.w3.org/2000/svg">
<path d="M16.2374 69.9387V62.7516H23.0049C25.7585 62.7516 26.6765 64.5917 26.6765 66.3162C26.6765 68.0408 25.7585 69.9387 23.0049 69.9387H16.2374ZM16.2374 47.0559H22.4899C25.242 47.0559 26.1038 48.7804 26.1038 50.3914C26.1038 52.0004 25.242 53.7249 22.4899 53.7249H16.2374V47.0559ZM36.7154 66.8918C36.7154 61.1426 33.3317 59.0142 31.6671 57.9804C32.9288 57.118 36.1413 54.5296 36.1413 49.8737C36.1413 42.8007 31.6096 38.0292 23.12 38.0292H6.19849V78.9653H23.9805C31.2658 78.9653 36.7154 74.7115 36.7154 66.8918Z" fill="white"/>
<path d="M113.924 78.9658L96.2908 57.5103L112.738 38.2154H100.449L87.6698 54.752H87.562V38.2154H77.5353V78.9658H87.562V61.5637H87.6698L101.312 78.9658H113.924Z" fill="white"/>
<path d="M55.9083 27.537L37.3979 78.9661H47.896L55.9083 53.553L63.9207 78.9661H74.4186L55.9083 27.537Z" fill="white"/>
<path d="M51.5933 83.8459C52.3593 83.8459 52.8169 84.3214 52.9689 85.2726L53.7771 85.1188C53.6857 84.5249 53.4519 84.0403 53.0745 83.6653C52.6958 83.2914 52.1943 83.1035 51.5679 83.1035C50.813 83.1035 50.2161 83.3941 49.7768 83.9743C49.3391 84.5557 49.1193 85.2838 49.1193 86.1603C49.1193 87.0056 49.3277 87.7212 49.7428 88.307C50.1583 88.8943 50.7638 89.1876 51.5565 89.1876C52.141 89.1876 52.6282 89.0068 53.0196 88.6459C53.411 88.2858 53.6632 87.7876 53.7771 87.1495L52.9689 87.0071C52.7719 87.9657 52.3044 88.4454 51.565 88.4454C51.0877 88.4454 50.7175 88.2406 50.4543 87.8314C50.1907 87.4236 50.0584 86.8491 50.0584 86.111C50.0584 85.4418 50.1923 84.8975 50.4568 84.4766C50.7217 84.056 51.1004 83.8459 51.5933 83.8459Z" fill="white"/>
<path d="M46.7764 89.0268H47.6705V83.2631H46.7764V89.0268Z" fill="white"/>
<path d="M46.7367 82.2369H47.6987V81.2376H46.7367V82.2369Z" fill="white"/>
<path d="M44.3968 83.4405C44.1025 83.2164 43.7602 83.1035 43.3688 83.1035C42.5534 83.1035 41.9479 83.5635 41.5523 84.4851C41.4692 84.1039 41.2834 83.7794 40.9947 83.5086C40.7061 83.239 40.3553 83.1035 39.9414 83.1035C39.1897 83.1035 38.5997 83.5253 38.1715 84.3707V83.2631H37.4027V89.0268H38.2562V85.5803C38.2562 85.078 38.3967 84.6628 38.6771 84.337C38.9584 84.0095 39.2883 83.8459 39.6683 83.8459C39.9344 83.8459 40.1878 83.95 40.4286 84.1589C40.6696 84.3694 40.7905 84.7264 40.7905 85.2316V89.0268H41.6551V85.7806C41.6551 85.1371 41.8143 84.659 42.1309 84.3453C42.4477 84.0309 42.7773 83.8742 43.1183 83.8742C43.366 83.8742 43.587 83.9517 43.784 84.1055C43.9826 84.2594 44.1066 84.4289 44.1573 84.6136C44.2094 84.7986 44.2347 85.0751 44.2347 85.4433V89.0268H45.1063V85.4433C45.1063 84.914 45.0613 84.5049 44.9725 84.2143C44.8824 83.9221 44.6908 83.6653 44.3968 83.4405Z" fill="white"/>
<path d="M28.5346 83.4379C28.2333 83.2151 27.8673 83.1035 27.4392 83.1035C26.6943 83.1035 26.0889 83.5114 25.6227 84.3258V83.2631H24.7906V89.0268H25.6847V85.8652C25.6847 85.2681 25.8396 84.7872 26.1494 84.4216C26.4578 84.056 26.8408 83.8742 27.2955 83.8742C27.6264 83.8742 27.9066 83.9828 28.139 84.2C28.3698 84.4161 28.4868 84.7913 28.4868 85.3235V89.0268H29.3231V85.6945C29.3231 84.9677 29.2669 84.4654 29.1557 84.1872C29.043 83.9107 28.8361 83.6596 28.5346 83.4379Z" fill="white"/>
<path d="M7.2349 85.5578C7.27281 85.0171 7.44751 84.5881 7.7559 84.2677C8.06563 83.9488 8.44304 83.788 8.88646 83.788C9.21604 83.788 9.4989 83.8771 9.73418 84.0532C9.97071 84.2311 10.1368 84.4444 10.2353 84.6957C10.334 84.9468 10.3875 85.2345 10.3946 85.5578H7.2349ZM10.672 83.8852C10.2143 83.3645 9.6089 83.1035 8.85832 83.1035C8.09513 83.1035 7.46162 83.3874 6.95613 83.9517C6.45198 84.5176 6.19849 85.2586 6.19849 86.1774C6.19849 87.0764 6.44208 87.8016 6.92787 88.3564C7.41357 88.9098 8.05015 89.1876 8.83577 89.1876C9.43137 89.1876 9.94965 89.0252 10.3888 88.7036C10.8296 88.3806 11.1252 87.9739 11.2773 87.4811L10.4466 87.3091C10.1467 88.067 9.62999 88.4454 8.89775 88.4454C8.4922 88.4454 8.10651 88.2928 7.74176 87.9895C7.377 87.6846 7.19538 87.0961 7.19538 86.2251H11.3746C11.3633 85.1868 11.1282 84.4073 10.672 83.8852Z" fill="white"/>
<path d="M21.89 87.8807C21.5831 88.2577 21.2015 88.4454 20.7452 88.4454C20.2947 88.4454 19.9145 88.2661 19.6076 87.9062C19.2992 87.5463 19.1456 86.9506 19.1456 86.1163C19.1456 85.3292 19.2992 84.7532 19.6076 84.3908C19.9145 84.0281 20.2905 83.8459 20.734 83.8459C21.1677 83.8459 21.545 84.0248 21.8676 84.3851C22.1901 84.7448 22.3519 85.3236 22.3519 86.1224C22.3519 86.9182 22.197 87.5041 21.89 87.8807ZM20.7692 83.1035C20.0287 83.1035 19.4089 83.3772 18.912 83.9262C18.4149 84.4754 18.1671 85.2078 18.1671 86.1253C18.1671 86.9928 18.3883 87.7212 18.8303 88.307C19.2724 88.8943 19.8877 89.1876 20.6777 89.1876C21.4592 89.1876 22.0969 88.9025 22.5899 88.3337C23.0841 87.7635 23.3306 87.0301 23.3306 86.1306C23.3306 85.2672 23.1023 84.5459 22.6448 83.9688C22.1871 83.3929 21.562 83.1035 20.7692 83.1035Z" fill="white"/>
<path d="M58.1492 89.0268H59.0433V83.2631H58.1492V89.0268Z" fill="white"/>
<path d="M34.5021 87.8807C34.1937 88.2577 33.8121 88.4454 33.3573 88.4454C32.9054 88.4454 32.5251 88.2661 32.2182 87.9062C31.9112 87.5463 31.7564 86.9506 31.7564 86.1163C31.7564 85.3292 31.9112 84.7532 32.2182 84.3908C32.5251 84.0281 32.9012 83.8459 33.3461 83.8459C33.7784 83.8459 34.1557 84.0248 34.4781 84.3851C34.8006 84.7448 34.9625 85.3236 34.9625 86.1224C34.9625 86.9182 34.8091 87.5041 34.5021 87.8807ZM33.3799 83.1035C32.6393 83.1035 32.021 83.3772 31.5241 83.9262C31.0269 84.4754 30.7777 85.2078 30.7777 86.1253C30.7777 86.9928 30.9988 87.7212 31.4409 88.307C31.883 88.8943 32.4984 89.1876 33.2884 89.1876C34.0713 89.1876 34.7076 88.9025 35.202 88.3337C35.6947 87.7635 35.9425 87.0301 35.9425 86.1306C35.9425 85.2672 35.7131 84.5459 35.2554 83.9688C34.7977 83.3929 34.1725 83.1035 33.3799 83.1035Z" fill="white"/>
<path d="M14.8582 83.8459C15.6242 83.8459 16.0817 84.3214 16.2338 85.2726L17.042 85.1188C16.9519 84.5249 16.7167 84.0403 16.3394 83.6653C15.9621 83.2914 15.4594 83.1035 14.8328 83.1035C14.0781 83.1035 13.481 83.3941 13.043 83.9743C12.6038 84.5557 12.3856 85.2838 12.3856 86.1603C12.3856 87.0056 12.5925 87.7212 13.008 88.307C13.4246 88.8943 14.0288 89.1876 14.8215 89.1876C15.4058 89.1876 15.8944 89.0068 16.2846 88.6459C16.6759 88.2858 16.9281 87.7876 17.042 87.1495L16.2338 87.0071C16.0367 87.9657 15.5692 88.4454 14.83 88.4454C14.3526 88.4454 13.9824 88.2406 13.7189 87.8314C13.4556 87.4236 13.3248 86.8491 13.3248 86.111C13.3248 85.4418 13.4571 84.8975 13.7219 84.4766C13.988 84.056 14.3668 83.8459 14.8582 83.8459Z" fill="white"/>
<path d="M88.9083 90.3025C88.4988 90.4425 88.0469 90.5114 87.554 90.5114C87.0217 90.5114 86.5853 90.4297 86.2418 90.2685C85.898 90.1064 85.7264 89.879 85.7264 89.587C85.7264 89.2397 85.9348 88.9759 86.3531 88.7938C86.6529 88.8319 87.1147 88.8586 87.7414 88.8729C88.2651 88.8884 88.6324 88.911 88.8436 88.942C89.0536 88.9717 89.2198 89.0449 89.341 89.158C89.4634 89.2722 89.524 89.4191 89.524 89.5984C89.524 89.9287 89.3181 90.1643 88.9083 90.3025ZM86.5345 84.1395C86.7965 83.9135 87.0966 83.8006 87.4344 83.8006C87.7877 83.8006 88.0878 83.9205 88.3371 84.1618C88.5848 84.4047 88.7101 84.715 88.7101 85.0949C88.7101 85.4688 88.5905 85.7721 88.351 86.005C88.1119 86.2393 87.8017 86.3563 87.4233 86.3563C87.0389 86.3563 86.7302 86.2422 86.4952 86.0105C86.2586 85.7806 86.1419 85.4802 86.1419 85.1076C86.1419 84.6883 86.2729 84.3669 86.5345 84.1395ZM89.2648 88.1967C88.9508 88.1265 88.4665 88.0826 87.8106 88.0629C87.0357 88.0445 86.5444 88.0005 86.3347 87.9312C86.1263 87.8639 86.022 87.7142 86.022 87.4868C86.022 87.326 86.0937 87.1963 86.2386 87.0961C86.3826 86.9944 86.5063 86.9451 86.6091 86.9451C86.6611 86.9451 86.7924 86.9645 87.0021 87.0071C87.1118 87.03 87.2428 87.0411 87.3951 87.0411C88.0694 87.0411 88.6073 86.8532 89.0086 86.4765C89.4085 86.0998 89.6096 85.6496 89.6096 85.1244C89.6096 84.6219 89.4253 84.1577 89.0564 83.7317C89.1031 83.4843 89.1944 83.3124 89.3324 83.2176C89.472 83.1232 89.7463 83.0752 90.1561 83.0752V82.3625C90.0492 82.3541 89.9759 82.3497 89.9338 82.3497C89.5129 82.3497 89.1985 82.4232 88.9917 82.5671C88.7846 82.7124 88.6524 82.9722 88.5959 83.3488C88.2426 83.1856 87.8499 83.1035 87.4173 83.1035C86.8064 83.1035 86.2884 83.2869 85.8631 83.6512C85.4377 84.0165 85.2249 84.4839 85.2249 85.0539C85.2249 85.6661 85.4729 86.1745 85.9716 86.5766C85.439 86.8138 85.1745 87.154 85.1745 87.5988C85.1745 87.971 85.3616 88.2801 85.7375 88.5283C85.1535 88.7374 84.8605 89.1228 84.8605 89.6814C84.8605 90.1429 85.0701 90.5114 85.4898 90.7879C85.9094 91.0632 86.5767 91.2016 87.4908 91.2016C89.4199 91.2016 90.3829 90.651 90.3829 89.5517C90.3829 89.202 90.276 88.9069 90.0587 88.6653C89.8421 88.424 89.5776 88.2673 89.2648 88.1967Z" fill="white"/>
<path d="M82.626 82.2369H83.5877V81.2376H82.626V82.2369Z" fill="white"/>
<path d="M91.8894 85.5578C91.9275 85.0171 92.1007 84.5881 92.4103 84.2677C92.7201 83.9488 93.0963 83.788 93.541 83.788C93.8706 83.788 94.1538 83.8771 94.3888 84.0532C94.6239 84.2311 94.7913 84.4444 94.89 84.6957C94.9886 84.9468 95.0419 85.2345 95.0492 85.5578H91.8894ZM95.3251 83.8852C94.8678 83.3645 94.2632 83.1035 93.5115 83.1035C92.7484 83.1035 92.1147 83.3874 91.6107 83.9517C91.1051 84.5176 90.8529 85.2586 90.8529 86.1774C90.8529 87.0764 91.0952 87.8016 91.5824 88.3564C92.068 88.9098 92.7033 89.1876 93.489 89.1876C94.0847 89.1876 94.6029 89.0252 95.0435 88.7036C95.4844 88.3806 95.78 87.9739 95.9319 87.4811L95.0999 87.3091C94.7999 88.067 94.2848 88.4454 93.5524 88.4454C93.1455 88.4454 92.7611 88.2928 92.3966 87.9895C92.0315 87.6846 91.8501 87.0961 91.8501 86.2251H96.0293C96.0166 85.1868 95.7828 84.4073 95.3251 83.8852Z" fill="white"/>
<path d="M101.232 83.4379C100.931 83.2151 100.566 83.1035 100.136 83.1035C99.393 83.1035 98.7875 83.5114 98.3199 84.3258V83.2631H97.4893V89.0268H98.3821V85.8652C98.3821 85.2681 98.5369 84.7872 98.8465 84.4216C99.1564 84.056 99.5379 83.8742 99.9943 83.8742C100.324 83.8742 100.605 83.9828 100.836 84.2C101.069 84.4161 101.184 84.7913 101.184 85.3235V89.0268H102.02V85.6945C102.02 84.9677 101.965 84.4654 101.853 84.1872C101.742 83.9107 101.535 83.6596 101.232 83.4379Z" fill="white"/>
<path d="M110.348 84.2677C110.658 83.9488 111.034 83.788 111.479 83.788C111.808 83.788 112.091 83.8771 112.326 84.0532C112.561 84.2311 112.729 84.4444 112.827 84.6957C112.926 84.9468 112.979 85.2345 112.987 85.5578H109.827C109.865 85.0171 110.038 84.5881 110.348 84.2677ZM111.49 88.4454C111.083 88.4454 110.699 88.2928 110.334 87.9895C109.969 87.6846 109.788 87.0961 109.788 86.2251H113.966C113.955 85.1868 113.72 84.4073 113.263 83.8852C112.806 83.3645 112.201 83.1035 111.451 83.1035C110.687 83.1035 110.052 83.3874 109.548 83.9517C109.043 84.5176 108.79 85.2586 108.79 86.1774C108.79 87.0764 109.034 87.8016 109.52 88.3564C110.006 88.9098 110.641 89.1876 111.426 89.1876C112.023 89.1876 112.54 89.0252 112.981 88.7036C113.422 88.3806 113.717 87.9739 113.869 87.4811L113.039 87.3091C112.739 88.067 112.222 88.4454 111.49 88.4454Z" fill="white"/>
<path d="M105.717 83.8459C106.481 83.8459 106.94 84.3214 107.091 85.2726L107.899 85.1188C107.809 84.5249 107.574 84.0403 107.197 83.6653C106.819 83.2914 106.316 83.1035 105.692 83.1035C104.935 83.1035 104.338 83.3941 103.9 83.9743C103.461 84.5557 103.243 85.2838 103.243 86.1603C103.243 87.0056 103.45 87.7212 103.866 88.307C104.282 88.8943 104.886 89.1876 105.679 89.1876C106.264 89.1876 106.752 89.0068 107.143 88.6459C107.533 88.2858 107.787 87.7876 107.899 87.1495L107.091 87.0071C106.894 87.9657 106.426 88.4454 105.687 88.4454C105.21 88.4454 104.84 88.2406 104.576 87.8314C104.313 87.4236 104.182 86.8491 104.182 86.111C104.182 85.4418 104.314 84.8975 104.579 84.4766C104.845 84.056 105.224 83.8459 105.717 83.8459Z" fill="white"/>
<path d="M82.6653 89.0268H83.5594V83.2631H82.6653V89.0268Z" fill="white"/>
<path d="M68.3692 87.5887V83.9657H69.656V83.2631H68.3692V81.7343L67.5382 81.8135L67.4986 83.2631H66.4795V83.9657H67.4986V87.4391C67.4986 88.605 68.0549 89.1876 69.166 89.1876C69.3985 89.1876 69.6716 89.1664 69.9869 89.124V88.4171C69.7277 88.4581 69.4968 88.479 69.2913 88.479C68.6772 88.479 68.3692 88.1827 68.3692 87.5887Z" fill="white"/>
<path d="M58.1099 82.2369H59.0716V81.2376H58.1099V82.2369Z" fill="white"/>
<path d="M64.6856 83.4379C64.3843 83.2151 64.0182 83.1035 63.5901 83.1035C62.8453 83.1035 62.2395 83.5114 61.7739 84.3258V83.2631H60.9429V89.0268H61.8357V85.8652C61.8357 85.2681 61.9905 84.7872 62.3004 84.4216C62.61 84.056 62.9915 83.8742 63.448 83.8742C63.7772 83.8742 64.0592 83.9828 64.2898 84.2C64.5222 84.4161 64.6377 84.7913 64.6377 85.3235V89.0268H65.4741V85.6945C65.4741 84.9677 65.4176 84.4654 65.3063 84.1872C65.194 83.9107 64.9882 83.6596 64.6856 83.4379Z" fill="white"/>
<path d="M71.4698 85.5578C71.5075 85.0171 71.681 84.5881 71.9909 84.2677C72.3005 83.9488 72.6763 83.788 73.1213 83.788C73.4509 83.788 73.7338 83.8771 73.9691 84.0532C74.2042 84.2311 74.3716 84.4444 74.4703 84.6957C74.5686 84.9468 74.6222 85.2345 74.6295 85.5578H71.4698ZM74.9055 83.8852C74.4478 83.3645 73.8435 83.1035 73.0918 83.1035C72.33 83.1035 71.695 83.3874 71.191 83.9517C70.6854 84.5176 70.4332 85.2586 70.4332 86.1774C70.4332 87.0764 70.6768 87.8016 71.1627 88.3564C71.6483 88.9098 72.2833 89.1876 73.0693 89.1876C73.665 89.1876 74.1832 89.0252 74.6235 88.7036C75.0644 88.3806 75.3603 87.9739 75.5122 87.4811L74.6815 87.3091C74.3818 88.067 73.8648 88.4454 73.1324 88.4454C72.7258 88.4454 72.3414 88.2928 71.9766 87.9895C71.6119 87.6846 71.4301 87.0961 71.4301 86.2251H75.6096C75.5982 85.1868 75.3628 84.4073 74.9055 83.8852Z" fill="white"/>
<path d="M79.8673 89.0268H80.7614V81.2376H79.8673V89.0268Z" fill="white"/>
<path d="M77.0695 89.0268H77.9636V81.2376H77.0695V89.0268Z" fill="white"/>
</svg>
