<svg width="120" height="120" viewBox="0 0 120 120" fill="none" xmlns="http://www.w3.org/2000/svg">
<path d="M18.5721 57.1408C16.8719 56.3264 15.1717 55.6079 13.9743 54.7935C12.753 53.9791 12.0825 53.1408 12.0825 52.0151C12.1065 51.0331 12.4417 50.3864 13.1362 49.8834C13.8306 49.4044 14.9322 49.117 16.3211 49.117C18.8834 49.117 20.3921 49.596 22.1402 50.1948L22.5952 50.3625L24.1278 46.3865L23.6728 46.1949C21.8528 45.4045 19.7694 44.662 16.2014 44.662C13.8546 44.662 11.5796 45.2368 9.87942 46.4583C8.15525 47.6799 7.02975 49.62 7.02975 52.1349C7.02975 57.021 10.6697 59.1048 14.0222 60.6137C15.7224 61.3802 17.3748 62.0748 18.5482 62.8891C19.7455 63.7275 20.416 64.6137 20.416 65.955C20.3921 67.2723 19.8173 68.0867 18.7876 68.6615C17.7819 69.2363 16.3211 69.4998 14.7885 69.4998C12.1065 69.4998 10.3823 69.0208 8.22709 68.1346L7.74815 67.9429L6.09583 72.0866L6.50292 72.3021C8.22709 73.2362 10.6218 74.1225 14.8364 74.1225H14.8603C17.6621 74.1225 20.3202 73.5237 22.3317 72.1584C24.3193 70.7932 25.6364 68.6375 25.6125 65.7154C25.6364 60.973 21.9725 58.7695 18.5721 57.1408Z" fill="white"/>
<path d="M48.9605 61.8832C48.9605 64.8772 48.1942 66.7693 47.0208 67.919C45.8474 69.0687 44.1472 69.5717 42.0878 69.5717C40.1481 69.5717 38.4479 69.1405 37.2505 68.1106C36.0532 67.0807 35.2869 65.452 35.2869 62.7694V44.9973H29.9707V63.0568C29.9707 67.3202 31.5272 70.1705 33.8501 71.8471C36.1729 73.5476 39.1902 74.1225 42.0878 74.1225C44.8177 74.1225 47.8111 73.4758 50.1339 71.6315C52.4807 69.7872 54.0851 66.6975 54.0851 62.0509V44.9973H48.9605V61.8832Z" fill="white"/>
<path d="M96.4949 57.1408C94.7947 56.3025 93.0945 55.5839 91.8971 54.7935C90.6758 53.9792 90.0053 53.1409 90.0053 52.0151C90.0053 51.0331 90.3645 50.3864 91.059 49.8834C91.7534 49.4044 92.855 49.117 94.2439 49.117C96.8062 49.117 98.3149 49.596 100.063 50.1948L100.542 50.3385L102.075 46.3625L101.62 46.1709C99.7996 45.3805 97.7162 44.638 94.1481 44.638C91.8013 44.638 89.5264 45.2129 87.8262 46.4344C86.102 47.6559 84.9765 49.596 84.9765 52.1109C84.9765 56.9971 88.6164 59.0809 91.969 60.5898C93.6692 61.3563 95.3215 62.0509 96.4949 62.8652C97.6683 63.7035 98.3628 64.5897 98.3628 65.955C98.3388 67.2723 97.7641 68.0867 96.7583 68.6615C95.7286 69.2363 94.2918 69.4998 92.7592 69.4998C90.0772 69.4998 88.353 69.0208 86.1978 68.1346L85.7189 67.943L84.0665 72.0866L84.4736 72.3021C86.1978 73.2363 88.5925 74.1225 92.8071 74.1225H92.8311C95.6328 74.1225 98.2909 73.5237 100.278 72.1584C102.266 70.7932 103.583 68.6375 103.559 65.7154C103.559 60.973 99.8714 58.7695 96.4949 57.1408Z" fill="white"/>
<path d="M108.684 44.9973V45.5242V73.6674H113.904V44.9973H108.684Z" fill="white"/>
<path d="M72.1649 44.9973H59.6647V73.6674H64.909V49.4044H71.3028C73.2904 49.4044 74.6314 49.8834 75.4696 50.7217C76.3077 51.5601 76.7387 52.8534 76.7387 54.6738C76.6908 58.2665 74.5596 59.8473 70.3689 59.9192H68.9321V64.3263H70.1294C74.1046 64.3263 77.1219 63.2484 79.1334 61.4521C81.1449 59.6557 82.1268 57.1887 82.1268 54.5061C82.1268 51.5122 81.1449 49.093 79.3729 47.4643C77.6248 45.8356 75.1103 44.9973 72.1649 44.9973Z" fill="white"/>
</svg>
