<svg width="120" height="120" viewBox="0 0 120 120" fill="none" xmlns="http://www.w3.org/2000/svg">
<path d="M65.3961 82.6205H68.1633C76.4649 82.2001 82.276 75.6143 82.276 67.7673C82.276 65.105 81.7226 62.4426 80.4773 60.3408H65.3961V82.6205Z" fill="white"/>
<path d="M64.0124 60.2006H50.1764V82.6205H64.0124V60.2006Z" fill="white"/>
<path d="M79.6472 58.7994C78.2636 56.8377 76.3265 55.2963 74.2511 54.1753C76.7416 52.3537 78.4019 49.4111 78.4019 46.1882C78.4019 40.7234 74.1128 36.3795 68.7167 36.3795H65.3961V58.7994H79.6472Z" fill="white"/>
<path d="M64.0124 36.3795H50.1764V58.7994H64.0124V36.3795Z" fill="white"/>
<path d="M102.753 82.6205H105.521C113.822 82.2001 119.633 75.6143 119.633 67.7673C119.633 65.105 119.08 62.4426 117.835 60.3408H102.753V82.6205Z" fill="white"/>
<path d="M101.37 60.2006H87.5338V82.6205H101.37V60.2006Z" fill="white"/>
<path d="M117.004 58.7994C115.621 56.8377 113.684 55.2963 111.608 54.1753C114.099 52.3537 115.759 49.4111 115.759 46.1882C115.759 40.7234 111.47 36.3795 106.074 36.3795H102.753V58.7994H117.004Z" fill="white"/>
<path d="M101.37 36.3795H87.5338V58.7994H101.37V36.3795Z" fill="white"/>
<path d="M8.25318 60.2006L0.366638 82.6205H11.8506L15.1712 72.8118H22.5043V60.2006H8.25318Z" fill="white"/>
<path d="M22.5043 36.3795H16.5548L8.66827 58.7994H22.5043V36.3795Z" fill="white"/>
<path d="M23.8879 72.8118H31.221L34.5417 82.6205H46.0256L38.1391 60.2006H23.8879V72.8118Z" fill="white"/>
<path d="M37.724 58.7994L29.8374 36.3795H23.8879V58.7994H37.724Z" fill="white"/>
</svg>
