<svg width="120" height="120" viewBox="0 0 120 120" fill="none" xmlns="http://www.w3.org/2000/svg">
<mask id="mask0_2581_11176" style="mask-type:luminance" maskUnits="userSpaceOnUse" x="0" y="48" width="120" height="23">
<path d="M119.86 48H0.799805V70.19H119.86V48Z" fill="white"/>
</mask>
<g mask="url(#mask0_2581_11176)">
<path d="M27.0698 48.16V62.66H30.3198V56.98H34.3798V53.84H30.3198V51.39H35.5998V48.16H27.0698Z" fill="white"/>
<path d="M40.4898 56.78H40.4498V62.66H37.1998V48.16H42.6398C44.9998 48.16 46.9298 50.1 46.9298 52.47C46.9298 54.29 45.8098 55.86 44.1498 56.51L48.8398 62.65H44.9598L40.4898 56.78ZM42.2798 54.02C43.1498 54.02 43.7798 53.39 43.7798 52.59C43.7798 51.79 43.1498 51.14 42.2798 51.14H40.4498V54.02H42.2798Z" fill="white"/>
<path d="M56.1798 48L63.2198 62.7L59.7998 62.68L58.7798 60.43L53.4598 60.4L52.4098 62.64L48.9998 62.62L56.1798 48ZM57.4898 57.77L56.1398 54.74L54.7598 57.76L57.4898 57.77Z" fill="white"/>
<path d="M67.4398 55.09V62.66H64.1898V48L73.2898 55.74V48.16H76.5398V62.82L67.4398 55.09Z" fill="white"/>
<path d="M86.7798 48.16L81.7498 55.43V48.16H78.4898V62.66H81.7498V55.86L87.1498 62.66H91.1698L85.4598 55.47L90.5198 48.16H86.7798Z" fill="white"/>
<path d="M92.0098 48.16V62.66H100.87V59.41H95.2598V48.16H92.0098Z" fill="white"/>
<path d="M105.57 48.16H102.32V62.66H105.57V48.16Z" fill="white"/>
<path d="M107.39 48V62.66H110.64V55.09L119.74 62.82V48.16H116.49V55.74L107.39 48Z" fill="white"/>
<path d="M71.7698 69.54L72.1798 69.18C72.3798 69.44 72.7298 69.67 73.1398 69.67C73.6298 69.67 73.9398 69.44 73.9398 69.08C73.9398 68.7 73.6998 68.49 73.2498 68.3L72.8598 68.13C72.2198 67.86 71.9398 67.47 71.9398 66.94C71.9398 66.3 72.5498 65.89 73.1698 65.89C73.6598 65.89 74.0698 66.09 74.3498 66.43L73.9698 66.81C73.7498 66.55 73.5198 66.41 73.1498 66.41C72.7898 66.41 72.4798 66.61 72.4798 66.96C72.4798 67.27 72.6598 67.48 73.1098 67.67L73.4998 67.84C74.0698 68.09 74.4898 68.44 74.4898 69.03C74.4898 69.72 73.9798 70.2 73.1498 70.2C72.5298 70.19 72.0198 69.89 71.7698 69.54Z" fill="white"/>
<path d="M75.4398 65.94H75.9998L76.9298 68.74L78.0398 65.89L79.1398 68.74L80.0798 65.94H80.6398L79.1798 70.19L78.0398 67.22L76.8898 70.19L75.4398 65.94Z" fill="white"/>
<path d="M82.5898 65.9399H82.0498V70.1399H82.5898V65.9399Z" fill="white"/>
<path d="M85.4398 66.4599H84.2398V65.9399H87.1798V66.4599H85.9798V70.1399H85.4398V66.4599Z" fill="white"/>
<path d="M90.7998 66.4599H88.6998V65.9399H91.7298L89.3798 69.6199H91.7398V70.1399H88.4498L90.7998 66.4599Z" fill="white"/>
<path d="M93.4498 65.9399H95.8898V66.4599H93.9898V67.7299H95.5398V68.2499H93.9898V69.6199H95.8898V70.1399H93.4498V65.9399Z" fill="white"/>
<path d="M98.5198 68.3099H98.0598V70.15H97.5198V65.95H98.7798C99.6098 65.95 100.14 66.4199 100.14 67.1299C100.14 67.7299 99.7598 68.16 99.1398 68.28L100.6 70.15H99.9398L98.5198 68.3099ZM98.7298 67.83C99.2798 67.83 99.5598 67.5699 99.5598 67.1399C99.5598 66.6999 99.2798 66.44 98.7298 66.44H98.0498V67.83H98.7298Z" fill="white"/>
<path d="M102.12 65.9399H102.66V69.6099H104.52V70.1399H102.12V65.9399Z" fill="white"/>
<path d="M107.71 65.89L109.77 70.14H109.19L108.67 69.04H106.77L106.25 70.14H105.67L107.71 65.89ZM106.99 68.54H108.42L107.71 67.04L106.99 68.54Z" fill="white"/>
<path d="M111.69 67.15V70.14H111.15V65.89L114.16 68.93V65.94H114.7V70.19L111.69 67.15Z" fill="white"/>
<path d="M116.34 65.9399H117.6C118.9 65.9399 119.86 66.8399 119.86 68.0399C119.86 69.2399 118.91 70.1399 117.6 70.1399H116.34V65.9399ZM117.6 69.6399C118.62 69.6399 119.3 68.9599 119.3 68.0399C119.3 67.1199 118.62 66.4399 117.6 66.4399H116.89V69.6399H117.6Z" fill="white"/>
<path d="M27.0698 68.47V65.87H27.6098V68.5C27.6098 69.23 28.0698 69.61 28.7498 69.61C29.4298 69.61 29.8898 69.23 29.8898 68.5V65.87H30.4298V68.47C30.4298 69.5 29.7398 70.12 28.7498 70.12C27.7698 70.11 27.0698 69.5 27.0698 68.47Z" fill="white"/>
<path d="M32.5598 67.0799V70.0699H32.0198V65.8199L35.0198 68.8499V65.8599H35.5598V70.1099L32.5598 67.0799Z" fill="white"/>
<path d="M37.8398 65.86H37.2998V70.06H37.8398V65.86Z" fill="white"/>
<path d="M39.2998 65.86H39.8898L41.2498 68.88L42.5998 65.86H43.1898L41.2498 70.11L39.2998 65.86Z" fill="white"/>
<path d="M44.5598 65.86H46.9898V66.38H45.0998V67.66H46.6398V68.18H45.0998V69.55H46.9898V70.07H44.5598V65.86Z" fill="white"/>
<path d="M49.7098 68.23H49.2498V70.07H48.6998V65.87H49.9498C50.7698 65.87 51.2998 66.34 51.2998 67.05C51.2998 67.65 50.9198 68.08 50.2998 68.2L51.7498 70.07H51.0998L49.7098 68.23ZM49.9198 67.75C50.4698 67.75 50.7498 67.49 50.7498 67.06C50.7498 66.62 50.4698 66.36 49.9198 66.36H49.2398V67.75H49.9198Z" fill="white"/>
<path d="M52.9198 69.4599L53.3298 69.1099C53.5298 69.3699 53.8798 69.5999 54.2898 69.5999C54.7798 69.5999 55.0898 69.3699 55.0898 69.0099C55.0898 68.6299 54.8498 68.4199 54.3998 68.2299L54.0098 68.0599C53.3698 67.7899 53.0898 67.3999 53.0898 66.8699C53.0898 66.2299 53.6898 65.8199 54.3198 65.8199C54.8098 65.8199 55.2198 66.0199 55.4998 66.3599L55.1198 66.7399C54.8998 66.4799 54.6698 66.3399 54.2998 66.3399C53.9398 66.3399 53.6298 66.5399 53.6298 66.8899C53.6298 67.1999 53.8098 67.4099 54.2498 67.5999L54.6398 67.7699C55.2098 68.0199 55.6298 68.3699 55.6298 68.9599C55.6298 69.6499 55.1198 70.1299 54.2898 70.1299C53.6798 70.1099 53.1698 69.8199 52.9198 69.4599Z" fill="white"/>
<path d="M57.9398 65.86H57.3998V70.06H57.9398V65.86Z" fill="white"/>
<path d="M60.7698 66.38H59.5798V65.86H62.5098V66.38H61.3098V70.07H60.7698V66.38Z" fill="white"/>
<path d="M65.2498 68.28L63.6998 65.86H64.3298L65.5198 67.76L66.7098 65.86H67.3398L65.7898 68.28V70.07H65.2498V68.28Z" fill="white"/>
<path d="M22.6895 48.0898V70.1299H0.799805V48.0898H22.6895ZM7.41016 62.1699L5.12988 64.4502H8.21973L10.4795 62.1699H7.41016ZM7.41016 58.04L5.12988 60.3096H12.3096L14.5801 58.04H7.41016ZM7.39941 53.9102L5.12988 56.1895H16.4199L18.6895 53.9102H7.39941Z" fill="white"/>
</g>
</svg>
