<svg width="120" height="120" viewBox="0 0 120 120" fill="none" xmlns="http://www.w3.org/2000/svg">
<path d="M73.8815 25.2974C69.581 25.2974 66.0714 28.8028 66.0714 33.0982C66.0714 37.3936 69.581 40.8991 73.8815 40.8991C78.1819 40.8991 81.6915 37.3936 81.6915 33.0982C81.6915 28.8028 78.1819 25.2974 73.8815 25.2974Z" fill="white"/>
<path d="M79.9447 47.696H67.966C67.3564 47.696 66.8621 48.1897 66.8621 48.7986V91.6868C66.8621 92.2958 67.3564 92.7895 67.966 92.7895H79.9447C80.5544 92.7895 81.0487 92.2958 81.0487 91.6868V48.7986C81.0652 48.1897 80.5544 47.696 79.9447 47.696Z" fill="white"/>
<path d="M61.9356 60.4341C61.9356 50.5596 54.2079 46.7744 42.8553 46.7744C35.8362 46.7744 29.4926 48.7328 24.4506 51.6951C24.3518 51.761 23.7915 52.0243 23.5609 52.3864C23.2808 52.8307 23.3137 53.5219 23.3137 53.5219L23.3302 62.2773C23.3302 62.2773 23.3631 63.0508 24.0881 62.9027C25.1097 62.6887 30.1516 56.2374 39.9224 56.2045C46.0189 56.188 48.0126 59.1339 47.749 63.3306C47.749 63.7585 47.3865 63.9066 47.1229 63.9889C28.3392 69.8807 20.941 71.477 21.2211 82.7175C21.3694 88.4941 26.3455 93.7276 33.5788 93.7276C38.456 93.7276 41.8502 92.5755 47.3206 88.9384C47.6831 88.6916 47.6995 88.9878 47.6995 88.9878V91.7691C47.6995 91.7691 47.6666 92.2464 47.9467 92.5426C48.1609 92.7566 48.6223 92.7566 48.6223 92.7566C48.6223 92.7566 60.2714 92.7401 60.4527 92.7401C60.8976 92.7401 61.8862 92.7401 61.9191 91.6375C61.985 89.86 61.9191 86.009 61.9191 84.248V60.4341H61.9356ZM47.7325 81.5819C47.7325 81.9605 47.4524 82.1909 47.4359 82.1909C45.0962 84.3303 42.5423 85.3671 39.9224 85.3671C37.385 85.3671 35.3419 83.1948 35.3419 80.5287C35.3419 73.3861 47.3865 71.0821 47.3865 71.0821C47.3865 71.0821 47.7325 70.9833 47.7325 71.2466C47.7325 71.4935 47.749 81.4009 47.7325 81.5819Z" fill="white"/>
<path d="M98.6626 26.2189H86.6839C86.0743 26.2189 85.58 26.7127 85.58 27.3216V91.6868C85.58 92.2957 86.0743 92.7895 86.6839 92.7895H98.6626C99.2723 92.7895 99.7666 92.2957 99.7666 91.6868V27.3216C99.7666 26.7291 99.2723 26.2189 98.6626 26.2189Z" fill="white"/>
</svg>
