<svg width="120" height="120" viewBox="0 0 120 120" fill="none" xmlns="http://www.w3.org/2000/svg">
<path d="M91.6478 83.5541V79.318H90.1288V78.4568H94.1982V79.318H92.6791V83.5541H91.6478Z" fill="white"/>
<path d="M94.4072 83.5541V78.4568H95.4385V83.5541H94.4072Z" fill="white"/>
<path d="M99.2571 81.6791L100.261 81.9986C100.107 82.5541 99.8564 82.9708 99.494 83.2347C99.1317 83.4986 98.6857 83.6375 98.1422 83.6375C97.4593 83.6375 96.9019 83.4013 96.4698 82.943C96.0378 82.4847 95.8148 81.8458 95.8148 81.0402C95.8148 80.193 96.0378 79.5402 96.4698 79.068C96.9158 78.5958 97.4872 78.3597 98.1979 78.3597C98.8251 78.3597 99.3268 78.5402 99.717 78.9152C99.9539 79.1375 100.121 79.443 100.247 79.8597L99.2292 80.1097C99.1735 79.8458 99.0481 79.6375 98.853 79.4847C98.6578 79.3319 98.4349 79.2486 98.1561 79.2486C97.7799 79.2486 97.4733 79.3875 97.2363 79.6513C96.9994 79.9291 96.8879 80.3597 96.8879 80.9708C96.8879 81.6097 96.9994 82.068 97.2363 82.3458C97.4733 82.6236 97.7659 82.7625 98.1422 82.7625C98.4209 82.7625 98.6578 82.6791 98.853 82.4986C99.0341 82.318 99.1735 82.0541 99.2571 81.6791Z" fill="white"/>
<path d="M100.693 83.5541V78.4568H101.724V83.5541H100.693Z" fill="white"/>
<path d="M102.295 83.5541V78.4568H103.299L105.389 81.8596V78.4568H106.351V83.5541H105.319L103.257 80.2346V83.5541H102.295Z" fill="white"/>
<path d="M107.006 83.5541V78.4568H110.796V79.318H108.037V80.443H110.601V81.3041H108.037V82.693H110.894V83.5541H107.006Z" fill="white"/>
<path d="M111.089 81.8874L112.093 81.7902C112.148 82.1235 112.274 82.3735 112.455 82.5263C112.636 82.6791 112.887 82.7624 113.208 82.7624C113.542 82.7624 113.793 82.693 113.96 82.5541C114.127 82.4152 114.211 82.2485 114.211 82.068C114.211 81.943 114.169 81.8458 114.1 81.7624C114.03 81.6791 113.904 81.6096 113.723 81.5402C113.598 81.4985 113.333 81.4291 112.901 81.318C112.344 81.1791 111.953 81.0124 111.73 80.818C111.41 80.5402 111.256 80.193 111.256 79.7902C111.256 79.5263 111.326 79.2902 111.479 79.068C111.633 78.8458 111.842 78.6652 112.121 78.5541C112.399 78.4291 112.734 78.3735 113.124 78.3735C113.765 78.3735 114.253 78.5124 114.573 78.7902C114.894 79.068 115.061 79.443 115.089 79.9152L114.058 79.9569C114.016 79.693 113.918 79.5124 113.779 79.3874C113.64 79.2763 113.417 79.2208 113.124 79.2208C112.817 79.2208 112.594 79.2763 112.413 79.4013C112.302 79.4846 112.246 79.5819 112.246 79.7208C112.246 79.8458 112.302 79.943 112.399 80.0263C112.525 80.1374 112.845 80.2485 113.347 80.3735C113.849 80.4985 114.225 80.6096 114.462 80.7346C114.699 80.8596 114.894 81.0402 115.033 81.2485C115.173 81.4708 115.242 81.7346 115.242 82.0541C115.242 82.3458 115.159 82.6235 114.991 82.8735C114.824 83.1235 114.601 83.318 114.295 83.443C114.002 83.568 113.626 83.6235 113.18 83.6235C112.539 83.6235 112.037 83.4708 111.689 83.1791C111.354 82.8874 111.145 82.4569 111.089 81.8874Z" fill="white"/>
<path d="M115.646 83.5541V78.4568H116.678V83.5541H115.646Z" fill="white"/>
<path d="M8.12678 83.5541H6.99792L6.55196 82.4013H4.51724L4.09915 83.5541H2.99817L4.99108 78.4568H6.07812L8.12678 83.5541ZM6.23142 81.5263L5.52066 79.6374L4.82384 81.5263H6.23142Z" fill="white"/>
<path d="M7.98743 81.8874L8.99085 81.7902C9.0466 82.1235 9.17202 82.3735 9.3532 82.5263C9.53437 82.6791 9.78523 82.7624 10.1058 82.7624C10.4402 82.7624 10.6911 82.693 10.8583 82.5541C11.0256 82.4152 11.1092 82.2485 11.1092 82.068C11.1092 81.943 11.0674 81.8458 10.9977 81.7624C10.928 81.6791 10.8026 81.6096 10.6214 81.5402C10.496 81.4985 10.2312 81.4291 9.79916 81.318C9.24171 81.1791 8.85149 81.0124 8.6285 80.818C8.30796 80.5402 8.15466 80.193 8.15466 79.7902C8.15466 79.5263 8.22435 79.2902 8.37765 79.068C8.53095 78.8458 8.73999 78.6652 9.01872 78.5541C9.29745 78.4291 9.63193 78.3735 10.0221 78.3735C10.6632 78.3735 11.151 78.5124 11.4715 78.7902C11.7921 79.068 11.9593 79.443 11.9872 79.9152L10.9559 79.9569C10.9141 79.693 10.8165 79.5124 10.6772 79.3874C10.5378 79.2763 10.3148 79.2208 10.0221 79.2208C9.71554 79.2208 9.49256 79.2763 9.31139 79.4013C9.1999 79.4846 9.14415 79.5819 9.14415 79.7208C9.14415 79.8458 9.1999 79.943 9.29745 80.0263C9.42288 80.1374 9.74342 80.2485 10.2451 80.3735C10.7468 80.4985 11.1231 80.6096 11.36 80.7346C11.597 80.8596 11.7921 81.0402 11.9314 81.2485C12.0708 81.4708 12.1405 81.7346 12.1405 82.0541C12.1405 82.3458 12.0569 82.6235 11.8896 82.8735C11.7224 83.1235 11.4994 83.318 11.1928 83.443C10.9001 83.568 10.5239 83.6235 10.0779 83.6235C9.43682 83.6235 8.9351 83.4708 8.58669 83.1791C8.26616 82.8874 8.05711 82.4569 7.98743 81.8874Z" fill="white"/>
<path d="M12.3217 81.8874L13.3251 81.7902C13.3808 82.1235 13.5063 82.3735 13.6874 82.5263C13.8686 82.6791 14.1195 82.7624 14.44 82.7624C14.7745 82.7624 15.0253 82.693 15.1926 82.5541C15.3598 82.4152 15.4434 82.2485 15.4434 82.068C15.4434 81.943 15.4016 81.8458 15.3319 81.7624C15.2622 81.6791 15.1368 81.6096 14.9556 81.5402C14.8302 81.4985 14.5654 81.4291 14.1334 81.318C13.5759 81.1791 13.1857 81.0124 12.9627 80.818C12.6422 80.5402 12.4889 80.193 12.4889 79.7902C12.4889 79.5263 12.5586 79.2902 12.7119 79.068C12.8652 78.8458 13.0742 78.6652 13.353 78.5541C13.6317 78.4291 13.9662 78.3735 14.3564 78.3735C14.9974 78.3735 15.4852 78.5124 15.8058 78.7902C16.1263 79.068 16.2935 79.443 16.3214 79.9152L15.2901 79.9569C15.2483 79.693 15.1507 79.5124 15.0114 79.3874C14.872 79.2763 14.649 79.2208 14.3564 79.2208C14.0498 79.2208 13.8268 79.2763 13.6456 79.4013C13.5341 79.4846 13.4784 79.5819 13.4784 79.7208C13.4784 79.8458 13.5341 79.943 13.6317 80.0263C13.7571 80.1374 14.0776 80.2485 14.5794 80.3735C15.0811 80.4985 15.4574 80.6096 15.6943 80.7346C15.9312 80.8596 16.1263 81.0402 16.2657 81.2485C16.405 81.4708 16.4747 81.7346 16.4747 82.0541C16.4747 82.3458 16.3911 82.6235 16.2239 82.8735C16.0566 83.1235 15.8336 83.318 15.527 83.443C15.2344 83.568 14.8581 83.6235 14.4121 83.6235C13.771 83.6235 13.2693 83.4708 12.9209 83.1791C12.6004 82.8874 12.3913 82.4569 12.3217 81.8874Z" fill="white"/>
<path d="M16.7115 81.0263C16.7115 80.5125 16.7952 80.068 16.9485 79.7208C17.06 79.4569 17.2272 79.2347 17.4223 79.0263C17.6174 78.818 17.8404 78.6652 18.0773 78.568C18.3979 78.4291 18.7602 78.3597 19.1783 78.3597C19.9309 78.3597 20.5301 78.5958 20.99 79.0541C21.436 79.5263 21.6729 80.1652 21.6729 80.9986C21.6729 81.818 21.4499 82.4708 21.004 82.9291C20.558 83.3875 19.9587 83.6236 19.2062 83.6236C18.4397 83.6236 17.8404 83.3875 17.3944 82.9291C16.9345 82.4847 16.7115 81.8458 16.7115 81.0263ZM17.7707 80.9986C17.7707 81.5819 17.9101 82.0125 18.1749 82.3041C18.4397 82.5958 18.7881 82.7486 19.1922 82.7486C19.6103 82.7486 19.9448 82.5958 20.2096 82.3041C20.4744 82.0125 20.5998 81.568 20.5998 80.9708C20.5998 80.3875 20.4744 79.9569 20.2096 79.6652C19.9587 79.3736 19.6103 79.2347 19.1922 79.2347C18.7602 79.2347 18.4257 79.3736 18.1609 79.6652C17.9101 79.9708 17.7707 80.4152 17.7707 80.9986Z" fill="white"/>
<path d="M25.3244 81.6791L26.3278 81.9986C26.1745 82.5541 25.9236 82.9708 25.5613 83.2347C25.1989 83.4986 24.753 83.6375 24.2095 83.6375C23.5266 83.6375 22.9691 83.4013 22.5371 82.943C22.1051 82.4847 21.8821 81.8458 21.8821 81.0402C21.8821 80.193 22.1051 79.5402 22.5371 79.068C22.9831 78.5958 23.5545 78.3597 24.2652 78.3597C24.8923 78.3597 25.3941 78.5402 25.7843 78.9152C26.0212 79.1375 26.1884 79.443 26.3139 79.8597L25.2965 80.1097C25.2408 79.8458 25.1153 79.6375 24.9202 79.4847C24.7251 79.3319 24.5021 79.2486 24.2234 79.2486C23.8471 79.2486 23.5405 79.3875 23.3036 79.6513C23.0667 79.9291 22.9552 80.3597 22.9552 80.9708C22.9552 81.6097 23.0667 82.068 23.3036 82.3458C23.5405 82.6236 23.8332 82.7625 24.2095 82.7625C24.4882 82.7625 24.7251 82.6791 24.9202 82.4986C25.0875 82.318 25.2268 82.0541 25.3244 81.6791Z" fill="white"/>
<path d="M26.7458 83.5541V78.4568H27.7771V83.5541H26.7458Z" fill="white"/>
<path d="M32.9476 83.5541H31.8187L31.3728 82.4013H29.338L28.9199 83.5541H27.819L29.8119 78.4568H30.8989L32.9476 83.5541ZM31.0383 81.5263L30.3275 79.6374L29.6307 81.5263H31.0383Z" fill="white"/>
<path d="M32.627 83.5541V82.6235L35.3167 79.318H32.9336V78.4568H36.6825V79.2624L33.8812 82.7068H36.7939V83.568L32.627 83.5541Z" fill="white"/>
<path d="M36.9612 83.5541V78.4568H37.9925V83.5541H36.9612Z" fill="white"/>
<path d="M38.3409 81.0263C38.3409 80.5125 38.4246 80.068 38.5779 79.7208C38.6894 79.4569 38.8566 79.2347 39.0517 79.0263C39.2468 78.818 39.4698 78.6652 39.7067 78.568C40.0272 78.4291 40.3896 78.3597 40.8077 78.3597C41.5603 78.3597 42.1595 78.5958 42.6194 79.0541C43.0654 79.5263 43.3023 80.1652 43.3023 80.9986C43.3023 81.818 43.0793 82.4708 42.6334 82.9291C42.1874 83.3875 41.5881 83.6236 40.8356 83.6236C40.0691 83.6236 39.4698 83.3875 39.0238 82.9291C38.5639 82.4847 38.3409 81.8458 38.3409 81.0263ZM39.414 80.9986C39.414 81.5819 39.5534 82.0125 39.8182 82.3041C40.083 82.5958 40.4314 82.7486 40.8356 82.7486C41.2537 82.7486 41.5881 82.5958 41.8529 82.3041C42.1177 82.0125 42.2431 81.568 42.2431 80.9708C42.2431 80.3875 42.1177 79.9569 41.8529 79.6652C41.6021 79.3736 41.2537 79.2347 40.8356 79.2347C40.4035 79.2347 40.0691 79.3736 39.8043 79.6652C39.5395 79.9708 39.414 80.4152 39.414 80.9986Z" fill="white"/>
<path d="M43.6925 83.5541V78.4568H44.6959L46.7864 81.8596V78.4568H47.748V83.5541H46.7167L44.6541 80.2346V83.5541H43.6925Z" fill="white"/>
<path d="M48.417 83.5541V78.4568H52.2077V79.318H49.4483V80.443H52.0126V81.3041H49.4483V82.693H52.3053V83.5541H48.417Z" fill="white"/>
<path d="M54.2704 83.5541V78.4568H55.3017V83.5541H54.2704Z" fill="white"/>
<path d="M55.873 83.5541V78.4568H56.8765L58.9669 81.8596V78.4568H59.9285V83.5541H58.8973L56.8347 80.2346V83.5541H55.873Z" fill="white"/>
<path d="M60.5835 78.4568H62.4649C62.8969 78.4568 63.2175 78.4846 63.4405 78.5541C63.7471 78.6374 63.9979 78.8041 64.207 79.0263C64.416 79.2485 64.5833 79.5263 64.6947 79.8457C64.8062 80.1652 64.862 80.568 64.862 81.0541C64.862 81.4707 64.8062 81.8318 64.7087 82.1374C64.5832 82.5124 64.4021 82.8041 64.1652 83.0402C63.984 83.2207 63.7471 83.3457 63.4405 83.443C63.2175 83.5124 62.9109 83.5541 62.5207 83.5541H60.5835V78.4568ZM61.6148 79.318V82.693H62.3813C62.674 82.693 62.883 82.6791 63.0084 82.6513C63.1757 82.6096 63.315 82.5402 63.4265 82.443C63.538 82.3457 63.6216 82.1791 63.6913 81.9569C63.761 81.7346 63.8028 81.4152 63.8028 81.0263C63.8028 80.6374 63.761 80.3318 63.6913 80.1235C63.6216 79.9152 63.5241 79.7485 63.3987 79.6235C63.2732 79.4985 63.1199 79.4291 62.9248 79.3874C62.7855 79.3596 62.4928 79.3319 62.0747 79.3319L61.6148 79.318Z" fill="white"/>
<path d="M65.308 78.4568H66.3393V81.2207C66.3393 81.6652 66.3532 81.943 66.3811 82.068C66.4229 82.2763 66.5344 82.443 66.7016 82.568C66.8689 82.693 67.0918 82.7624 67.3845 82.7624C67.6772 82.7624 67.9002 82.7069 68.0535 82.5819C68.2068 82.4569 68.2904 82.318 68.3183 82.1374C68.3461 81.9568 68.3601 81.6791 68.3601 81.2763V78.4568H69.3914V81.1374C69.3914 81.7485 69.3635 82.1791 69.3077 82.4291C69.252 82.6791 69.1544 82.9013 69.0011 83.068C68.8478 83.2485 68.6527 83.3735 68.4019 83.4846C68.151 83.5819 67.8165 83.6374 67.4124 83.6374C66.9246 83.6374 66.5483 83.5818 66.2975 83.4707C66.0466 83.3596 65.8515 83.2068 65.6982 83.0263C65.5449 82.8457 65.4613 82.6652 65.4055 82.4569C65.3359 82.1652 65.308 81.7346 65.308 81.1652V78.4568Z" fill="white"/>
<path d="M69.7955 81.8874L70.799 81.7902C70.8547 82.1235 70.9801 82.3735 71.1613 82.5263C71.3425 82.6791 71.5933 82.7624 71.9139 82.7624C72.2483 82.7624 72.4992 82.693 72.6664 82.5541C72.8337 82.4152 72.9173 82.2485 72.9173 82.068C72.9173 81.943 72.8755 81.8458 72.8058 81.7624C72.7361 81.6791 72.6107 81.6096 72.4295 81.5402C72.3041 81.4985 72.0393 81.4291 71.6073 81.318C71.0498 81.1791 70.6596 81.0124 70.4366 80.818C70.1161 80.5402 69.9628 80.193 69.9628 79.7902C69.9628 79.5263 70.0325 79.2902 70.1858 79.068C70.3391 78.8458 70.5481 78.6652 70.8268 78.5541C71.1056 78.4291 71.44 78.3735 71.8303 78.3735C72.4713 78.3735 72.9591 78.5124 73.2796 78.7902C73.6002 79.068 73.7674 79.443 73.7953 79.9152L72.764 79.9569C72.7222 79.693 72.6246 79.5124 72.4853 79.3874C72.3459 79.2763 72.1229 79.2208 71.8303 79.2208C71.5237 79.2208 71.3007 79.2763 71.1195 79.4013C71.008 79.4846 70.9523 79.5819 70.9523 79.7208C70.9523 79.8458 71.008 79.943 71.1056 80.0263C71.231 80.1374 71.5515 80.2485 72.0532 80.3735C72.5549 80.4985 72.9312 80.6096 73.1682 80.7346C73.4051 80.8596 73.6002 81.0402 73.7395 81.2485C73.8789 81.4708 73.9486 81.7346 73.9486 82.0541C73.9486 82.3458 73.865 82.6235 73.6977 82.8735C73.5305 83.1235 73.3075 83.318 73.0009 83.443C72.7082 83.568 72.332 83.6235 71.886 83.6235C71.2449 83.6235 70.7432 83.4708 70.3948 83.1791C70.0464 82.8874 69.8513 82.4569 69.7955 81.8874Z" fill="white"/>
<path d="M75.5373 83.5541V79.318H74.0182V78.4568H78.0876V79.318H76.5686V83.5541H75.5373Z" fill="white"/>
<path d="M78.3246 83.5541V78.4568H80.4987C81.0422 78.4568 81.4463 78.4985 81.6833 78.5957C81.9341 78.693 82.1292 78.8457 82.2825 79.0818C82.4358 79.318 82.5055 79.5819 82.5055 79.8874C82.5055 80.2763 82.394 80.5818 82.171 80.8318C81.9481 81.0818 81.6136 81.2346 81.1537 81.3041C81.3767 81.4291 81.5578 81.5818 81.7111 81.7346C81.8505 81.8874 82.0456 82.1652 82.2965 82.568L82.9236 83.568H81.6833L80.9307 82.4569C80.6659 82.0541 80.4847 81.8041 80.3872 81.7068C80.2896 81.6096 80.1921 81.5263 80.0806 81.4985C79.9691 81.4568 79.8018 81.443 79.5649 81.443H79.3559V83.568L78.3246 83.5541ZM79.3559 80.6096H80.1224C80.6241 80.6096 80.9307 80.5818 81.0561 80.5402C81.1815 80.4985 81.2791 80.4291 81.3488 80.318C81.4185 80.2207 81.4603 80.0818 81.4603 79.9291C81.4603 79.7624 81.4185 79.6235 81.3209 79.5124C81.2234 79.4013 81.0979 79.3457 80.9307 79.318C80.8471 79.3041 80.5962 79.3041 80.1781 79.3041H79.3698L79.3559 80.6096Z" fill="white"/>
<path d="M83.0211 83.5541V78.4568H84.0524V83.5541H83.0211Z" fill="white"/>
<path d="M84.6099 83.5541V78.4568H88.4006V79.318H85.6412V80.443H88.2055V81.3041H85.6412V82.693H88.4981V83.5541H84.6099Z" fill="white"/>
<path d="M116.929 36.3041V43.6652H104.219V36.3041H116.929ZM104.219 74.3041H116.929V46.318H104.219V74.3041Z" fill="white"/>
<path d="M89.4598 37.0124V46.1096H96.2329V54.2763H89.3064C89.3064 54.2763 88.8465 62.3041 89.3064 64.9291C89.3622 65.2485 89.6409 65.8735 89.8918 66.0679C90.2123 66.3318 91.0903 66.4985 91.5084 66.5402C92.7906 66.6374 96.637 66.5402 96.637 66.5402V74.0957L83.6204 74.3735C83.6204 74.3735 80.0945 74.3457 78.2549 72.6652C76.5964 71.1374 76.5546 68.2763 76.5546 68.2763V54.2902H70.6038V46.1096H76.5546V37.0124H89.4598Z" fill="white"/>
<path d="M64.2487 36.7208V43.8735H51.5387V36.7208H64.2487ZM51.5387 74.3041H64.2487V46.318H51.5387V74.3041Z" fill="white"/>
<path d="M44.7657 74.3041C40.3897 74.3041 36.0136 74.3041 31.6515 74.3041C31.5122 73.4846 31.1359 72.7069 31.2474 71.6513C27.7075 74.9291 13.5342 77.1374 7.05371 73.2902C3.51386 71.1791 1.56276 63.9985 5.21411 60.2208C8.7679 56.5402 17.3249 56.8874 24.8923 56.5402C27.2894 56.4291 30.3833 56.2624 30.4251 54.2902C30.4809 51.2346 23.2897 50.8457 20.3769 52.2485C19.4432 52.693 18.8021 53.5124 18.1192 54.7069C13.8826 54.7069 9.64589 54.7069 5.40922 54.7069C6.3987 47.8735 11.0953 45.9291 18.7324 45.3041C27.2197 44.6235 39.0239 44.6374 42.3129 49.9985C45.588 55.3596 42.062 68.0819 44.7657 74.3041ZM17.297 64.3041C15.5828 70.2485 28.042 68.5819 30.007 65.5263C30.7038 64.443 30.7178 63.0402 30.8293 61.6513C30.8153 61.5263 30.8014 61.4152 30.6202 61.443C27.4288 62.7485 18.1192 61.4846 17.297 64.3041Z" fill="white"/>
</svg>
