<svg width="120" height="120" viewBox="0 0 120 120" fill="none" xmlns="http://www.w3.org/2000/svg">
<g clip-path="url(#clip0_2586_11454)">
<mask id="mask0_2586_11454" style="mask-type:luminance" maskUnits="userSpaceOnUse" x="21" y="21" width="78" height="78">
<path d="M98.5 21.5H21.5V98.5H98.5V21.5Z" fill="white"/>
</mask>
<g mask="url(#mask0_2586_11454)">
<path d="M60 21.5C49.7228 21.5 40.3879 25.5245 33.4854 32.0882H22.122L26.8893 40.3462C23.4682 46.0975 21.5 52.819 21.5 60C21.5 81.2648 38.7354 98.5 60 98.5C81.2648 98.5 98.5 81.2648 98.5 60C98.5 38.7354 81.2601 21.5 60 21.5Z" fill="white"/>
<path d="M38.0159 46.13V47.6479H33.6711V49.4118H37.6585V50.8183H33.6711V52.8329H38.1087V54.3554H31.8607V46.13H38.0159Z" fill="black"/>
<path d="M42.7554 54.3554V53.5245H42.7229C42.514 53.868 42.2448 54.1187 41.9152 54.2719C41.5856 54.425 41.2468 54.504 40.9032 54.504C40.4669 54.504 40.1048 54.4482 39.8263 54.3322C39.5478 54.2162 39.325 54.0537 39.1625 53.8448C39.0001 53.6359 38.8887 53.376 38.8237 53.0742C38.7587 52.7725 38.7262 52.4337 38.7262 52.067V48.4045H40.3648V51.7699C40.3648 52.2619 40.4437 52.6286 40.5969 52.87C40.7501 53.1114 41.024 53.2321 41.4139 53.2321C41.8595 53.2321 42.1798 53.0975 42.3794 52.8329C42.579 52.5683 42.6811 52.1319 42.6811 51.5239V48.3998H44.3151V54.3554H42.76H42.7554Z" fill="black"/>
<path d="M46.7705 48.3999V49.5046H46.7937C46.8726 49.319 46.9748 49.1472 47.1047 48.994C47.2347 48.8362 47.3833 48.7016 47.555 48.5902C47.7221 48.4788 47.9031 48.3906 48.0981 48.3303C48.2884 48.2699 48.488 48.2374 48.6969 48.2374C48.8036 48.2374 48.9243 48.256 49.0543 48.2931V49.8157C48.9754 49.8017 48.8872 49.7878 48.7758 49.7739C48.669 49.7599 48.5623 49.7553 48.4648 49.7553C48.1631 49.7553 47.9124 49.8064 47.7035 49.9038C47.4947 50.006 47.3275 50.1406 47.2022 50.3123C47.0769 50.4841 46.9841 50.6883 46.933 50.9158C46.8773 51.1479 46.854 51.3939 46.854 51.6632V54.3462H45.2201V48.3906H46.7751L46.7705 48.3999Z" fill="black"/>
<path d="M50.8602 52.0809C50.9066 52.3084 50.9855 52.5126 51.0969 52.6936C51.2083 52.8747 51.3569 53.0186 51.5425 53.1253C51.7282 53.2321 51.9557 53.2878 52.2342 53.2878C52.5127 53.2878 52.7448 53.2321 52.9305 53.1253C53.1208 53.0186 53.2693 52.8747 53.3807 52.6936C53.4921 52.5126 53.5711 52.3084 53.6175 52.0809C53.6639 51.8534 53.6871 51.6214 53.6871 51.3846C53.6871 51.1479 53.6639 50.9111 53.6175 50.6837C53.5711 50.4516 53.4921 50.252 53.3807 50.0709C53.2693 49.8945 53.1208 49.7506 52.9305 49.6392C52.7402 49.5278 52.5081 49.4722 52.2342 49.4722C51.9603 49.4722 51.7282 49.5278 51.5425 49.6392C51.3569 49.7506 51.2083 49.8945 51.0969 50.0709C50.9855 50.2473 50.9066 50.4516 50.8602 50.6837C50.8138 50.9158 50.7906 51.1479 50.7906 51.3846C50.7906 51.6214 50.8138 51.8534 50.8602 52.0809ZM49.3748 50.0895C49.5187 49.6996 49.7276 49.37 49.9968 49.1008C50.266 48.8269 50.5863 48.618 50.9623 48.4649C51.3383 48.3163 51.7607 48.242 52.2295 48.242C52.6984 48.242 53.1208 48.3163 53.5014 48.4649C53.8821 48.6134 54.207 48.8269 54.4762 49.1008C54.7455 49.3747 54.9544 49.7042 55.0982 50.0895C55.2421 50.4794 55.3164 50.9111 55.3164 51.3846C55.3164 51.8581 55.2421 52.2898 55.0982 52.6751C54.9544 53.0603 54.7455 53.3853 54.4762 53.6591C54.207 53.933 53.8821 54.1419 53.5014 54.2858C53.1208 54.4297 52.6984 54.504 52.2295 54.504C51.7607 54.504 51.3383 54.4297 50.9623 54.2858C50.5863 54.1419 50.2614 53.9284 49.9968 53.6591C49.7276 53.3853 49.5187 53.0603 49.3748 52.6751C49.2309 52.2898 49.1566 51.8627 49.1566 51.3846C49.1566 50.9065 49.2309 50.4748 49.3748 50.0895Z" fill="black"/>
<path d="M59.652 53.1207C59.833 53.0139 59.9769 52.8747 60.0883 52.6983C60.1997 52.5265 60.2786 52.3223 60.3251 52.0948C60.3715 51.8627 60.3947 51.6306 60.3947 51.3939C60.3947 51.1571 60.3715 50.9204 60.3204 50.693C60.2694 50.4609 60.1858 50.2566 60.0744 50.0756C59.9583 49.8945 59.8098 49.7506 59.6288 49.6392C59.4477 49.5278 59.2296 49.4722 58.965 49.4722C58.7004 49.4722 58.4729 49.5278 58.2919 49.6392C58.1109 49.7506 57.967 49.8945 57.8556 50.0709C57.7441 50.2473 57.6653 50.4516 57.6188 50.6837C57.5724 50.9158 57.5492 51.1525 57.5492 51.3986C57.5492 51.6446 57.5724 51.872 57.6235 52.0994C57.6745 52.3316 57.7534 52.5311 57.8648 52.7029C57.9763 52.8747 58.1248 53.0139 58.3105 53.1253C58.4962 53.2321 58.719 53.2878 58.9789 53.2878C59.2388 53.2878 59.471 53.2321 59.652 53.1253M57.526 48.3998V49.1611H57.5492C57.7488 48.8362 58.0041 48.6041 58.3105 48.4602C58.6168 48.3163 58.9557 48.242 59.3224 48.242C59.7913 48.242 60.1951 48.3302 60.534 48.5066C60.873 48.683 61.1512 48.9198 61.3741 49.2075C61.5969 49.5 61.7594 49.8389 61.8709 50.2288C61.9777 50.6187 62.0334 51.0225 62.0334 51.4449C62.0334 51.8441 61.9777 52.2294 61.8709 52.5962C61.7641 52.9629 61.6016 53.2924 61.3833 53.5756C61.1651 53.8588 60.8916 54.0862 60.5665 54.2533C60.2415 54.4204 59.8562 54.5086 59.4199 54.5086C59.0532 54.5086 58.7097 54.4343 58.3987 54.2858C58.0877 54.1373 57.8324 53.9144 57.6327 53.622H57.6095V56.4443H55.9756V48.3998H57.5306H57.526Z" fill="black"/>
<path d="M66.2664 49.7924C66.0714 49.5789 65.7746 49.4675 65.3753 49.4675C65.1153 49.4675 64.8971 49.5139 64.7253 49.6021C64.5535 49.6903 64.4146 49.8017 64.3124 49.9317C64.2103 50.0617 64.136 50.2009 64.0942 50.3448C64.0524 50.4887 64.0292 50.6233 64.0199 50.7347H66.6797C66.6007 50.3216 66.4661 50.006 66.2711 49.7878M64.4238 52.9211C64.6696 53.1578 65.0224 53.2785 65.4821 53.2785C65.8118 53.2785 66.0946 53.195 66.3361 53.0325C66.5729 52.8654 66.7215 52.6936 66.7725 52.508H68.2116C67.9794 53.2228 67.6265 53.7334 67.1533 54.0398C66.675 54.3461 66.0993 54.4993 65.4264 54.4993C64.9574 54.4993 64.5349 54.4251 64.1592 54.2765C63.7831 54.128 63.4627 53.9144 63.2027 53.6359C62.9431 53.3574 62.7387 53.0279 62.5995 52.6472C62.4555 52.2619 62.3859 51.8395 62.3859 51.38C62.3859 50.9204 62.4602 50.5212 62.6041 50.136C62.748 49.7507 62.957 49.4211 63.2259 49.1379C63.4952 48.8594 63.8156 48.6366 64.187 48.4741C64.5581 48.3117 64.9714 48.2328 65.4264 48.2328C65.9321 48.2328 66.3732 48.3302 66.7493 48.5252C67.1254 48.7202 67.4361 48.9847 67.6776 49.3143C67.919 49.6439 68.0955 50.0199 68.2023 50.4423C68.3091 50.8647 68.3462 51.3057 68.3183 51.7653H64.0199C64.0431 52.2944 64.1778 52.6797 64.4238 52.9165" fill="black"/>
<path d="M72.5703 51.4403C72.5007 51.5007 72.4125 51.5517 72.3103 51.5842C72.2082 51.6167 72.0967 51.6492 71.976 51.6724C71.8553 51.6956 71.7299 51.7142 71.6003 51.7281C71.4703 51.742 71.3403 51.7606 71.2103 51.7838C71.0895 51.807 70.9642 51.8395 70.8481 51.8767C70.7274 51.9138 70.6252 51.9648 70.537 52.0298C70.4488 52.0948 70.3791 52.1784 70.3234 52.2759C70.2677 52.378 70.2449 52.5033 70.2449 52.6565C70.2449 52.8004 70.2723 52.9257 70.3234 53.0232C70.3791 53.1253 70.4488 53.1996 70.5417 53.2599C70.6345 53.3157 70.7413 53.3574 70.8667 53.3806C70.992 53.4038 71.1174 53.4131 71.2474 53.4131C71.5724 53.4131 71.8181 53.3574 71.9946 53.2507C72.171 53.1439 72.301 53.0139 72.3846 52.8654C72.4682 52.7168 72.5193 52.5637 72.5425 52.4105C72.5611 52.2573 72.5703 52.132 72.5703 52.0438V51.431V51.4403ZM68.7919 50.2288C68.8151 49.8435 68.9123 49.5278 69.0794 49.2725C69.2466 49.0172 69.4648 48.8176 69.7248 48.6598C69.9849 48.5066 70.2816 48.3952 70.6067 48.3302C70.9317 48.2652 71.2613 48.2328 71.591 48.2328C71.8924 48.2328 72.1943 48.256 72.5007 48.2977C72.8072 48.3395 73.09 48.4231 73.3407 48.5438C73.5961 48.6644 73.8004 48.8362 73.9629 49.0544C74.1254 49.2725 74.2044 49.565 74.2044 49.9224V53.0232C74.2044 53.2924 74.2183 53.5477 74.2508 53.7938C74.2833 54.0398 74.3344 54.2255 74.4129 54.3461H72.7561C72.7236 54.2533 72.7004 54.1605 72.6818 54.063C72.6632 53.9655 72.6493 53.868 72.64 53.7705C72.38 54.0398 72.0735 54.2255 71.716 54.3369C71.3635 54.4436 71.0013 54.4993 70.6345 54.4993C70.3513 54.4993 70.087 54.4668 69.8409 54.3972C69.5948 54.3276 69.3812 54.2208 69.1955 54.0723C69.0098 53.9284 68.8662 53.7427 68.7641 53.5199C68.6619 53.2971 68.6062 53.0325 68.6062 52.7261C68.6062 52.3873 68.6666 52.1087 68.7873 51.8906C68.9076 51.6724 69.0609 51.496 69.2466 51.3661C69.4323 51.2361 69.6505 51.1386 69.892 51.0736C70.1334 51.0086 70.3791 50.9576 70.6252 50.9158C70.8713 50.8786 71.1128 50.8462 71.3496 50.823C71.5864 50.7997 71.7996 50.7672 71.9807 50.7208C72.1664 50.6744 72.3103 50.6094 72.4171 50.5212C72.5239 50.433 72.575 50.3031 72.5657 50.136C72.5657 49.9595 72.5378 49.8203 72.4775 49.7135C72.4218 49.6114 72.3428 49.5278 72.2453 49.4722C72.1478 49.4164 72.0364 49.3747 71.911 49.3561C71.7856 49.3375 71.6463 49.3283 71.5028 49.3283C71.1778 49.3283 70.927 49.3979 70.7413 49.5371C70.5556 49.6764 70.4488 49.9038 70.4209 50.2288H68.7873H68.7919Z" fill="black"/>
<path d="M76.6784 48.3999V49.2308H76.7109C76.9198 48.8873 77.1891 48.632 77.5184 48.4742C77.8481 48.3163 78.187 48.2374 78.5306 48.2374C78.9667 48.2374 79.3289 48.2977 79.6075 48.4138C79.8861 48.5345 80.1086 48.697 80.2711 48.9105C80.4336 49.124 80.545 49.3793 80.61 49.681C80.675 49.9828 80.7075 50.3216 80.7075 50.6883V54.3508H79.0689V50.9854C79.0689 50.4934 78.9899 50.1267 78.8367 49.8853C78.6835 49.6439 78.4099 49.5232 78.0199 49.5232C77.5741 49.5232 77.2538 49.6578 77.0545 49.9224C76.8548 50.187 76.7527 50.6233 76.7527 51.2315V54.3554H75.114V48.3999H76.6691H76.6784Z" fill="black"/>
<path d="M33.6571 56.4861L37.0922 62.0055H37.1153V56.4861H38.8096V64.7164H36.9993L33.5782 59.2062H33.555V64.7164H31.8607V56.4861H33.6571Z" fill="black"/>
<path d="M43.4471 60.1532C43.2521 59.9396 42.955 59.8282 42.5558 59.8282C42.2958 59.8282 42.0777 59.8747 41.9059 59.9629C41.7342 60.0511 41.5949 60.1625 41.4928 60.2925C41.3907 60.4225 41.3164 60.5618 41.2746 60.7054C41.2329 60.8493 41.205 60.984 41.2004 61.0954H43.8602C43.7813 60.6826 43.6467 60.3668 43.4517 60.1485M41.6042 63.282C41.8503 63.5184 42.203 63.6391 42.6626 63.6391C42.9921 63.6391 43.2753 63.5555 43.5167 63.3934C43.7534 63.2263 43.902 63.0545 43.953 62.8687H45.392C45.1599 63.5834 44.8071 64.0942 44.3336 64.4006C43.8555 64.7071 43.2799 64.8599 42.6069 64.8599C42.1381 64.8599 41.7156 64.786 41.3396 64.6374C40.9636 64.4888 40.6433 64.2752 40.3834 63.9966C40.1234 63.7181 39.9192 63.3888 39.78 63.008C39.6407 62.6273 39.5664 62.2001 39.5664 61.7408C39.5664 61.2811 39.6407 60.8818 39.7846 60.4968C39.9285 60.1114 40.1374 59.7818 40.4066 59.4987C40.6758 59.2202 40.9961 58.9973 41.3675 58.8349C41.7388 58.6724 42.1519 58.5935 42.6069 58.5935C43.1128 58.5935 43.5538 58.691 43.9298 58.8859C44.3058 59.0809 44.6168 59.3455 44.8582 59.6751C45.0996 60.0046 45.276 60.3807 45.3827 60.8029C45.4895 61.2254 45.5266 61.6665 45.4988 62.1258H41.2004C41.2236 62.6551 41.3582 63.0405 41.6042 63.2773" fill="black"/>
<path d="M49.2956 58.756V59.8515H48.098V62.7991C48.098 63.0777 48.1445 63.2588 48.2373 63.3516C48.3301 63.4441 48.5158 63.4905 48.7897 63.4905C48.8825 63.4905 48.9707 63.4905 49.0543 63.4766C49.1378 63.4673 49.2214 63.458 49.2956 63.4441V64.7117C49.1564 64.7349 49.0032 64.7488 48.8361 64.7581C48.669 64.7674 48.5019 64.7674 48.3394 64.7674C48.0841 64.7674 47.8474 64.7488 47.6199 64.7163C47.3924 64.6838 47.1929 64.6142 47.0211 64.5167C46.8493 64.4192 46.7101 64.2752 46.6126 64.0895C46.5105 63.9038 46.4641 63.6623 46.4641 63.3656V59.8515H45.4753V58.756H46.4641V56.9688H48.098V58.756H49.2956Z" fill="black"/>
<path d="M55.1028 64.7163L54.0445 60.7147H54.0213L53.0093 64.7163H51.315L49.4258 58.756H51.1526L52.248 62.8037H52.2713L53.26 58.756H54.8522L55.8641 62.7898H55.8873L56.9828 58.756H58.6632L56.7878 64.7163H55.1028Z" fill="black"/>
<path d="M60.2739 62.4416C60.3203 62.6691 60.3993 62.8734 60.5107 63.0545C60.6222 63.2356 60.7707 63.3795 60.9561 63.4859C61.1418 63.5927 61.3693 63.6484 61.6479 63.6484C61.9265 63.6484 62.1587 63.5927 62.344 63.4859C62.5344 63.3795 62.683 63.2356 62.7944 63.0545C62.9058 62.8734 62.9848 62.6691 63.0312 62.4416C63.0776 62.214 63.1009 61.9823 63.1009 61.7455C63.1009 61.5087 63.0776 61.2719 63.0312 61.0443C62.9848 60.8122 62.9058 60.6129 62.7944 60.4318C62.683 60.2554 62.5344 60.1114 62.344 60C62.154 59.8886 61.9219 59.8329 61.6479 59.8329C61.374 59.8329 61.1418 59.8886 60.9561 60C60.7707 60.1114 60.6222 60.2554 60.5107 60.4318C60.3993 60.6083 60.3203 60.8122 60.2739 61.0443C60.2275 61.2765 60.2043 61.5087 60.2043 61.7455C60.2043 61.9823 60.2275 62.214 60.2739 62.4416ZM58.7885 60.4504C58.9324 60.0604 59.1413 59.7308 59.4105 59.4615C59.6797 59.1877 60 58.9788 60.3761 58.8256C60.7522 58.6771 61.1743 58.6028 61.6433 58.6028C62.1122 58.6028 62.5344 58.6771 62.9151 58.8256C63.2959 58.9742 63.6209 59.1877 63.8898 59.4615C64.1591 59.7354 64.3681 60.065 64.512 60.4504C64.6559 60.84 64.7302 61.2719 64.7302 61.7455C64.7302 62.2187 64.6559 62.6505 64.512 63.0359C64.3681 63.4213 64.1591 63.7459 63.8898 64.0199C63.6209 64.2938 63.2959 64.5028 62.9151 64.6467C62.5344 64.7906 62.1122 64.8645 61.6433 64.8645C61.1743 64.8645 60.7522 64.7906 60.3761 64.6467C60 64.5028 59.6751 64.2892 59.4105 64.0199C59.1413 63.7459 58.9324 63.4213 58.7885 63.0359C58.6446 62.6505 58.5703 62.2233 58.5703 61.7455C58.5703 61.2672 58.6446 60.8354 58.7885 60.4504Z" fill="black"/>
<path d="M66.9396 58.756V59.8607H66.9628C67.0371 59.6751 67.1439 59.5033 67.2739 59.3501C67.4039 59.1923 67.5521 59.0577 67.7239 58.9463C67.8911 58.8349 68.0722 58.7467 68.2672 58.6863C68.4576 58.626 68.6572 58.5935 68.8658 58.5935C68.9726 58.5935 69.0933 58.6121 69.2233 58.6492V60.1718C69.149 60.1578 69.0561 60.1439 68.9447 60.13C68.8383 60.116 68.7315 60.1114 68.634 60.1114C68.3322 60.1114 68.0815 60.1625 67.8725 60.26C67.6636 60.3622 67.4964 60.4968 67.3714 60.6686C67.2461 60.84 67.1532 61.0443 67.1021 61.2719C67.0464 61.504 67.0232 61.7501 67.0232 62.0194V64.7024H65.3845V58.7467H66.9396V58.756Z" fill="black"/>
<path d="M71.2521 56.4861V60.9004L73.3129 58.756H75.2487L73.0018 60.9468L75.5041 64.7164H73.5218L71.8878 62.0519L71.2521 62.6644V64.7164H69.618V56.4861H71.2521Z" fill="black"/>
<path d="M80.1132 62.4416C80.1596 62.6691 80.2386 62.8734 80.35 63.0545C80.4614 63.2356 80.61 63.3795 80.7958 63.4859C80.9815 63.5927 81.209 63.6484 81.4872 63.6484C81.7658 63.6484 81.998 63.5927 82.1837 63.4859C82.3741 63.3795 82.5226 63.2356 82.6341 63.0545C82.7451 62.8734 82.8241 62.6691 82.8705 62.4416C82.9169 62.214 82.9401 61.9823 82.9401 61.7455C82.9401 61.5087 82.9169 61.2719 82.8705 61.0443C82.8241 60.8122 82.7451 60.6129 82.6341 60.4318C82.5226 60.2554 82.3741 60.1114 82.1837 60C81.9933 59.8886 81.7612 59.8329 81.4872 59.8329C81.2136 59.8329 80.9815 59.8886 80.7958 60C80.61 60.1114 80.4614 60.2554 80.35 60.4318C80.2386 60.6083 80.1596 60.8122 80.1132 61.0443C80.0668 61.2765 80.0436 61.5087 80.0436 61.7455C80.0436 61.9823 80.0668 62.214 80.1132 62.4416ZM78.6278 60.4504C78.7717 60.0604 78.9806 59.7308 79.2499 59.4615C79.5193 59.1877 79.8396 58.9788 80.2153 58.8256C80.5914 58.6771 81.014 58.6028 81.4826 58.6028C81.9515 58.6028 82.3741 58.6771 82.7544 58.8256C83.1352 58.9742 83.4602 59.1877 83.7295 59.4615C83.9988 59.7354 84.2074 60.065 84.3513 60.4504C84.4952 60.84 84.5695 61.2719 84.5695 61.7455C84.5695 62.2187 84.4952 62.6505 84.3513 63.0359C84.2074 63.4213 83.9988 63.7459 83.7295 64.0199C83.4602 64.2938 83.1352 64.5028 82.7544 64.6467C82.3741 64.7906 81.9515 64.8645 81.4826 64.8645C81.014 64.8645 80.5914 64.7906 80.2153 64.6467C79.8396 64.5028 79.5146 64.2892 79.2499 64.0199C78.9806 63.7459 78.7717 63.4213 78.6278 63.0359C78.4842 62.6505 78.4099 62.2233 78.4099 61.7455C78.4099 61.2672 78.4842 60.8354 78.6278 60.4504Z" fill="black"/>
<path d="M84.5696 59.8515V58.756H85.5489V58.2964C85.5489 57.7672 85.7161 57.3309 86.0457 56.9967C86.3754 56.6578 86.8765 56.4907 87.5451 56.4907C87.689 56.4907 87.8376 56.4953 87.9816 56.5093C88.1251 56.5232 88.2691 56.5325 88.4084 56.5371V57.7579C88.218 57.7347 88.0187 57.7255 87.8098 57.7255C87.5869 57.7255 87.429 57.7765 87.3315 57.8786C87.234 57.9808 87.1876 58.1571 87.1876 58.4032V58.7606H88.3155V59.8561H87.1876V64.7163H85.5489V59.8561H84.5696V59.8515Z" fill="black"/>
<path d="M33.6711 66.8468V73.5543H37.6816V75.0723H31.8607V66.8468H33.6711Z" fill="black"/>
<path d="M39.7475 75.0723H38.1135V69.1166H39.7475V75.0723ZM38.1135 66.8468H39.7475V68.1929H38.1135V66.8468Z" fill="black"/>
<path d="M42.1425 75.0723L40.1047 69.1166H41.8223L43.0802 73.1829H43.0988L44.3567 69.1166H45.9814L43.9668 75.0723H42.1425Z" fill="black"/>
<path d="M47.9776 75.0723H46.3436V69.1166H47.9776V75.0723ZM46.3436 66.8468H47.9776V68.1929H46.3436V66.8468Z" fill="black"/>
<path d="M50.4515 69.1166V69.9477H50.484C50.6929 69.6041 50.9621 69.3487 51.2917 69.1908C51.6213 69.033 51.9602 68.954 52.3036 68.954C52.74 68.954 53.102 69.0144 53.3806 69.1305C53.6591 69.2512 53.8819 69.4137 54.0443 69.6273C54.2068 69.8409 54.3182 70.0963 54.3832 70.3977C54.4482 70.6995 54.4807 71.0385 54.4807 71.4053V75.0676H52.8421V71.702C52.8421 71.2103 52.7632 70.8434 52.61 70.602C52.4568 70.3605 52.183 70.2402 51.793 70.2402C51.3474 70.2402 51.0271 70.3745 50.8275 70.6391C50.6279 70.9038 50.5258 71.3403 50.5258 71.9481V75.0723H48.8918V69.1166H50.4469H50.4515Z" fill="black"/>
<path d="M58.714 73.5311C58.8904 73.4382 59.039 73.3175 59.1504 73.1643C59.2664 73.0115 59.35 72.835 59.4103 72.64C59.466 72.445 59.4985 72.2407 59.4985 72.0224C59.4985 71.7764 59.4753 71.5446 59.4289 71.3264C59.3825 71.1081 59.3036 70.9131 59.1968 70.746C59.09 70.5788 58.9461 70.4441 58.7697 70.342C58.5933 70.2449 58.3705 70.1938 58.1013 70.1938C57.8692 70.1938 57.6742 70.2402 57.5071 70.3327C57.34 70.4256 57.2054 70.5509 57.094 70.7088C56.9826 70.8667 56.9037 71.0478 56.8526 71.2521C56.8016 71.4564 56.7784 71.67 56.7784 71.8924C56.7784 72.1153 56.8016 72.3196 56.8433 72.5332C56.8851 72.7468 56.9594 72.9372 57.0615 73.1039C57.1636 73.2711 57.3029 73.4104 57.47 73.5172C57.6371 73.624 57.8506 73.6797 58.1059 73.6797C58.338 73.6797 58.5376 73.6333 58.7187 73.5404M60.9607 75.5227C60.8956 75.8287 60.7563 76.1166 60.5381 76.3813C60.3249 76.6459 60.0137 76.8735 59.6053 77.0545C59.1968 77.2399 58.6537 77.3327 57.9713 77.3327C57.6789 77.3327 57.3818 77.2956 57.0801 77.2213C56.7784 77.1474 56.4998 77.036 56.2492 76.8827C55.9985 76.7295 55.7943 76.5298 55.6271 76.2884C55.4601 76.047 55.3672 75.7548 55.344 75.4205H56.9687C57.0476 75.727 57.1961 75.9402 57.4189 76.0609C57.6418 76.1816 57.8971 76.2373 58.1895 76.2373C58.649 76.2373 58.9879 76.098 59.1968 75.8241C59.4103 75.5459 59.5078 75.1976 59.5031 74.7751V73.9908H59.4799C59.3036 74.3065 59.0529 74.5383 58.7233 74.6869C58.3984 74.8355 58.0549 74.9098 57.6928 74.9098C57.2472 74.9098 56.8619 74.8308 56.5416 74.673C56.2167 74.5151 55.9521 74.3019 55.7478 74.0279C55.539 73.754 55.3904 73.4382 55.2929 73.0714C55.1955 72.705 55.149 72.3196 55.149 71.9157C55.149 71.5307 55.2047 71.1592 55.3162 70.8063C55.4276 70.4488 55.59 70.1334 55.8082 69.8595C56.0217 69.5855 56.2909 69.3673 56.6066 69.2094C56.9269 69.0469 57.2936 68.968 57.7067 68.968C58.0966 68.968 58.4402 69.0423 58.7372 69.1862C59.0343 69.3302 59.2803 69.5762 59.4799 69.9245H59.5031V69.1305H61.0582V74.7055C61.0582 74.9423 61.0257 75.2162 60.9607 75.5227Z" fill="black"/>
<path d="M66.8608 66.8468V73.5543H70.8713V75.0723H65.0549V66.8468H66.8608Z" fill="black"/>
<path d="M75.1235 72.1571C75.0538 72.2175 74.9656 72.2685 74.8634 72.301C74.7613 72.3335 74.6498 72.366 74.5291 72.3893C74.4084 72.4125 74.2834 72.4311 74.1534 72.445C74.0234 72.4589 73.8934 72.4775 73.7634 72.5007C73.6427 72.5239 73.5173 72.5564 73.4012 72.5936C73.2805 72.6307 73.1783 72.6818 73.0901 72.7514C73.0019 72.8164 72.9326 72.9 72.8769 72.9975C72.8212 73.0993 72.798 73.2247 72.798 73.3779C72.798 73.5311 72.8258 73.6472 72.8769 73.7447C72.9326 73.8469 73.0023 73.9258 73.0947 73.9815C73.1876 74.0372 73.2944 74.079 73.4198 74.1022C73.5451 74.1254 73.6705 74.1347 73.8005 74.1347C74.1255 74.1347 74.3716 74.0837 74.5477 73.9722C74.7241 73.8654 74.8541 73.7354 74.9377 73.5868C75.0213 73.4382 75.0724 73.285 75.0956 73.1318C75.1142 72.979 75.1235 72.8536 75.1235 72.7654V72.1525V72.1571ZM71.345 70.9456C71.3683 70.5602 71.4658 70.2449 71.6325 69.9895C71.7997 69.7341 72.0179 69.5345 72.2779 69.3766C72.538 69.2234 72.8351 69.1119 73.1598 69.0469C73.4848 68.9819 73.8144 68.9494 74.1441 68.9494C74.4455 68.9494 74.7473 68.9726 75.0538 69.0144C75.3603 69.0562 75.6435 69.1398 75.8938 69.2605C76.1492 69.3812 76.3535 69.553 76.516 69.7713C76.6785 69.9895 76.7575 70.282 76.7575 70.6392V73.7401C76.7575 74.0094 76.7714 74.2647 76.8039 74.5104C76.8364 74.7565 76.8875 74.9423 76.9664 75.063H75.3092C75.2767 74.9701 75.2535 74.8773 75.2349 74.7798C75.2163 74.6822 75.2024 74.5847 75.1931 74.4872C74.9331 74.7565 74.6266 74.9423 74.2695 75.0537C73.9166 75.1605 73.5544 75.2162 73.1876 75.2162C72.9048 75.2162 72.6401 75.1837 72.394 75.1141C72.1479 75.0444 71.9343 74.9376 71.7486 74.789C71.5633 74.6451 71.4193 74.4594 71.3172 74.2369C71.215 74.014 71.1593 73.7493 71.1593 73.4429C71.1593 73.1039 71.2197 72.8257 71.3404 72.6075C71.4611 72.3893 71.6143 72.2128 71.7997 72.0828C71.9854 71.9528 72.2036 71.8553 72.4451 71.7903C72.6865 71.7253 72.9326 71.6746 73.1783 71.6328C73.4244 71.5957 73.6659 71.5632 73.9027 71.5399C74.1395 71.5167 74.3531 71.4842 74.5338 71.4378C74.7195 71.3914 74.8634 71.3264 74.9702 71.2381C75.077 71.1499 75.1281 71.0199 75.1188 70.8527C75.1188 70.6763 75.0909 70.537 75.0306 70.4302C74.9749 70.3281 74.8959 70.2449 74.7984 70.1892C74.7009 70.1334 74.5895 70.0916 74.4641 70.0731C74.3391 70.0545 74.1998 70.0452 74.0559 70.0452C73.7309 70.0452 73.4801 70.1149 73.2944 70.2542C73.1087 70.3931 73.0019 70.6206 72.9744 70.9456H71.3404H71.345Z" fill="black"/>
<path d="M81.9608 71.3774C81.9051 71.1453 81.8215 70.9456 81.7054 70.7645C81.5893 70.5881 81.4454 70.4488 81.2736 70.342C81.1022 70.2402 80.8932 70.1892 80.6472 70.1892C80.4011 70.1892 80.2014 70.2402 80.025 70.342C79.8489 70.4441 79.7003 70.5881 79.5889 70.7645C79.4728 70.941 79.3892 71.1453 79.3335 71.3774C79.2778 71.6096 79.2546 71.8506 79.2546 72.1014C79.2546 72.3521 79.2824 72.5843 79.3335 72.8164C79.3892 73.0486 79.4728 73.2525 79.5889 73.429C79.705 73.6054 79.8489 73.7447 80.025 73.8515C80.2014 73.9536 80.4103 74.0094 80.6472 74.0094C80.884 74.0094 81.1022 73.9583 81.2736 73.8515C81.4454 73.7493 81.5893 73.61 81.7054 73.429C81.8215 73.2525 81.9051 73.0486 81.9608 72.8164C82.0119 72.5843 82.0397 72.3475 82.0397 72.1014C82.0397 71.8553 82.0119 71.605 81.9608 71.3774ZM79.3103 66.8515V69.8456H79.3335C79.5332 69.5391 79.8025 69.3116 80.1457 69.1723C80.4893 69.0284 80.8422 68.9587 81.2136 68.9587C81.515 68.9587 81.8076 69.0191 82.1001 69.1444C82.3926 69.2652 82.6569 69.4555 82.8891 69.7109C83.1212 69.9663 83.3116 70.2913 83.4602 70.6856C83.6041 71.0803 83.6784 71.5539 83.6784 72.0967C83.6784 72.64 83.6041 73.1132 83.4602 73.5079C83.3162 73.9026 83.1259 74.2276 82.8891 74.4826C82.6569 74.738 82.3926 74.9237 82.1001 75.0491C81.8076 75.1698 81.5104 75.2348 81.2136 75.2348C80.7772 75.2348 80.3825 75.1651 80.0389 75.0258C79.6957 74.8865 79.431 74.6544 79.2546 74.3251H79.2314V75.0862H77.6763V66.8607H79.3149L79.3103 66.8515Z" fill="black"/>
<path d="M85.6882 73.5961C85.7625 73.7215 85.8554 73.8283 85.9715 73.9072C86.0876 73.9861 86.2176 74.0465 86.3708 74.0837C86.5194 74.1208 86.6773 74.1394 86.8394 74.1394C86.9555 74.1394 87.0762 74.1254 87.2015 74.0976C87.3269 74.0697 87.443 74.0279 87.5498 73.9722C87.6519 73.9165 87.7402 73.8376 87.8098 73.7401C87.8795 73.6425 87.912 73.5218 87.912 73.3779C87.912 73.1318 87.7494 72.9465 87.4198 72.8257C87.0948 72.705 86.6401 72.5796 86.0551 72.4589C85.8183 72.4032 85.5861 72.3428 85.3586 72.2685C85.1314 72.1943 84.9318 72.1014 84.7553 71.9807C84.5789 71.8599 84.435 71.7114 84.3282 71.5307C84.2214 71.3496 84.1657 71.1267 84.1657 70.8667C84.1657 70.4813 84.2399 70.1659 84.3885 69.9199C84.5371 69.6738 84.7368 69.4787 84.9829 69.3394C85.229 69.1955 85.5025 69.098 85.8136 69.0376C86.1201 68.9819 86.4358 68.9494 86.7604 68.9494C87.0855 68.9494 87.3966 68.9819 87.6984 69.0423C88.0002 69.1026 88.2737 69.2094 88.5105 69.3534C88.7474 69.4973 88.947 69.6923 89.1049 69.9338C89.2627 70.1752 89.3556 70.4813 89.3881 70.8481H87.833C87.8098 70.5324 87.6891 70.3188 87.4755 70.2077C87.2619 70.0963 87.0065 70.0406 86.714 70.0406C86.6215 70.0406 86.524 70.0452 86.4126 70.0591C86.3058 70.0684 86.2083 70.0963 86.1201 70.1334C86.0318 70.1706 85.9576 70.2263 85.8972 70.3006C85.8368 70.3745 85.8043 70.472 85.8043 70.5927C85.8043 70.7367 85.86 70.8574 85.9668 70.9503C86.0736 71.0431 86.2129 71.1174 86.3894 71.1731C86.5612 71.2289 86.7604 71.2846 86.9833 71.331C87.2062 71.3774 87.4337 71.4285 87.6612 71.4796C87.898 71.5353 88.1298 71.6003 88.3573 71.6746C88.5848 71.7531 88.7845 71.8507 88.9609 71.9807C89.1374 72.106 89.2813 72.2639 89.3881 72.4543C89.4945 72.6446 89.5502 72.8768 89.5502 73.1504C89.5502 73.5404 89.4713 73.8701 89.3138 74.1347C89.156 74.3994 88.9517 74.6126 88.6963 74.7751C88.4409 74.9376 88.153 75.0491 87.8284 75.1141C87.5034 75.1791 87.169 75.2116 86.8301 75.2116C86.4915 75.2116 86.1479 75.1791 85.8183 75.1094C85.4886 75.0398 85.1965 74.9237 84.9364 74.7612C84.6811 74.5987 84.4675 74.3855 84.3003 74.1208C84.1332 73.8561 84.0449 73.5218 84.031 73.1225H85.5861C85.5861 73.299 85.6232 73.4522 85.6975 73.5775" fill="black"/>
</g>
</g>
<defs>
<clipPath id="clip0_2586_11454">
<rect width="77" height="77" fill="white" transform="translate(21.5 21.5)"/>
</clipPath>
</defs>
</svg>
