<svg width="120" height="120" viewBox="0 0 120 120" fill="none" xmlns="http://www.w3.org/2000/svg">
<path d="M19.0744 83.76C10.0531 82.2413 3.17832 74.3708 3.17832 64.8915V60.108H0V64.8915C0 76.137 8.29009 85.4408 19.0744 86.9888V83.7623V83.76Z" fill="white"/>
<path d="M25.4332 83.76C34.4545 82.2413 41.3293 74.3708 41.3293 64.8915V60.108H44.5076V64.8915C44.5076 76.137 36.2175 85.4408 25.4332 86.9888V83.7623V83.76Z" fill="white"/>
<path d="M19.0744 33H0V53.7293H3.17832V36.1883H19.0744V33Z" fill="white"/>
<path d="M25.4332 33V36.1883H41.3271V53.7293H44.5076V33H25.4332Z" fill="white"/>
<path d="M18.5271 51.1305H12.8882V42.567H9.94763V53.7293H18.5271V51.1305Z" fill="white"/>
<path d="M32.0165 53.7293L36.3051 42.567H33.0774L30.6707 50.001L28.2505 42.567H24.9757L29.188 53.7293H32.0165Z" fill="white"/>
<path d="M14.2968 66.9772H16.3581V68.6895C16.163 68.766 15.9499 68.8245 15.7256 68.8627C15.4609 68.9077 15.1761 68.9302 14.88 68.9302C14.3731 68.9302 13.9178 68.8492 13.5275 68.6895C13.1372 68.5297 12.8075 68.307 12.545 68.0235C12.2826 67.74 12.0807 67.3957 11.9462 66.9997C11.8093 66.5992 11.7398 66.1537 11.7398 65.6722C11.7398 65.1907 11.8161 64.7655 11.9664 64.3717C12.1166 63.9802 12.3275 63.636 12.5989 63.3525C12.868 63.069 13.191 62.844 13.5566 62.6842C13.9222 62.5245 14.3282 62.4457 14.7611 62.4457C15.2658 62.4457 15.7211 62.5358 16.1159 62.7158C16.5107 62.8935 16.8314 63.1252 17.0692 63.402L17.188 63.5392L19.0564 61.4062L18.9465 61.3027C18.4733 60.8505 17.8542 60.486 17.1028 60.2182C16.3559 59.9527 15.5372 59.8177 14.6669 59.8177C13.7966 59.8177 13.034 59.955 12.3073 60.225C11.5783 60.4972 10.9346 60.891 10.3918 61.3995C9.84897 61.908 9.41607 62.5312 9.11103 63.2535C8.80374 63.9735 8.64673 64.788 8.64673 65.6745C8.64673 66.561 8.79925 67.3575 9.10206 68.073C9.40486 68.7907 9.83103 69.414 10.3671 69.927C10.9032 70.44 11.5536 70.8427 12.2983 71.124C13.0407 71.4052 13.8639 71.547 14.7432 71.547C15.6224 71.547 16.3783 71.457 17.0938 71.2815C17.8093 71.106 18.4464 70.8742 18.9847 70.5952L19.0699 70.5502V64.5517H14.2968V66.9817V66.9772Z" fill="white"/>
<path d="M32.0366 60.1057H29.2912L24.6235 71.268H27.8086L28.6026 69.1395H32.5727L33.4138 71.268H36.6572L32.0366 60.1057ZM31.8325 66.7927H29.3787L30.6146 63.3862L31.8303 66.7927H31.8325Z" fill="white"/>
<path d="M60.5315 65.076C59.9147 64.2773 58.8784 63.7868 57.7861 63.7868C55.5454 63.7868 53.9192 65.3978 53.9192 67.6185C53.9192 69.8393 55.5812 71.4503 57.7861 71.4503C58.8583 71.4503 59.9192 70.9485 60.5315 70.1588V71.2658H61.6665V59.5568H60.5315V65.0738V65.076ZM57.7861 70.404C56.2317 70.404 55.1461 69.2588 55.1461 67.6185C55.1461 65.9783 56.2497 64.833 57.7704 64.833C59.3719 64.833 60.5786 66.03 60.5786 67.6185C60.5786 69.207 59.3517 70.404 57.7861 70.404Z" fill="white"/>
<path d="M65.1455 63.9713H64.0105V71.268H65.1455V63.9713Z" fill="white"/>
<path d="M73.2179 60.2947H71.991V71.268H78.2579V70.1295H73.2179V60.2947Z" fill="white"/>
<path d="M85.7248 69.6862V63.969H84.5899V67.7715C84.5899 69.4995 83.5222 70.404 82.4703 70.404C81.1671 70.404 80.6086 69.7087 80.6086 68.0775V63.969H79.4736V68.6445C79.4736 70.4535 80.4516 71.4502 82.2258 71.4502C83.1364 71.4502 84.0852 70.953 84.5899 70.2217V70.62C84.5899 70.818 84.6056 71.0047 84.637 71.2117L84.646 71.2657H85.8101L85.8034 71.196C85.7899 71.0542 85.7271 69.8257 85.7271 69.6862H85.7248Z" fill="white"/>
<path d="M93.8041 65.0805C93.1805 64.257 92.1914 63.7867 91.0721 63.7867C88.9637 63.7867 87.3734 65.409 87.3734 67.5577C87.3734 69.7065 89.0377 71.268 91.1641 71.268C92.2968 71.268 93.2074 70.836 93.8041 70.0147V71.2027C93.8041 72.915 92.8194 73.896 91.1035 73.896C90.0022 73.896 89.0198 73.4257 88.4052 72.6045L87.5596 73.482C88.4904 74.4787 89.5985 74.9422 91.0429 74.9422C93.5192 74.9422 94.939 73.5787 94.939 71.2027V63.969H93.8041V65.0805ZM91.1955 70.2217C89.7644 70.2217 88.6026 69.0135 88.6026 67.5285C88.6026 66.0435 89.7824 64.8352 91.182 64.8352C92.77 64.8352 93.8377 65.9557 93.8377 67.6207C93.8377 69.0787 92.6781 70.2217 91.1977 70.2217H91.1955Z" fill="white"/>
<path d="M102.653 69.6728V66.3495C102.653 64.7948 101.596 63.789 99.9634 63.789C98.6221 63.789 97.5948 64.1468 96.9085 64.8488L97.6083 65.661C98.2251 65.1053 98.9249 64.8353 99.7503 64.8353C100.973 64.8353 101.52 65.3978 101.52 66.6555V66.7455H101.125C97.9761 66.7455 96.572 67.5308 96.572 69.2903C96.572 70.5638 97.6083 71.4525 99.0954 71.4525C100.215 71.4525 100.988 71.0655 101.583 70.2038C101.59 70.5908 101.621 70.9328 101.675 71.2163L101.684 71.268H102.787L102.778 71.196C102.704 70.6605 102.657 69.936 102.657 69.6728H102.653ZM99.4116 70.404C98.4292 70.404 97.7945 69.9113 97.7945 69.1508C97.7945 68.2148 98.889 67.6973 100.876 67.6973H101.516V68.0168C101.516 69.5333 100.748 70.404 99.4116 70.404Z" fill="white"/>
<path d="M107.928 63.7867C107 63.7867 106.053 64.2817 105.564 65.0085C105.564 64.6057 105.56 64.3672 105.517 64.0252L105.51 63.969H104.348L104.429 65.5485V71.2657H105.564V67.587C105.564 65.553 106.73 64.833 107.731 64.833C108.987 64.833 109.545 65.5507 109.545 67.1595V71.268H110.68V66.5925C110.68 64.7835 109.702 63.7867 107.928 63.7867Z" fill="white"/>
<path d="M115.96 63.8093C113.764 63.8093 112.109 65.4563 112.109 67.641C112.109 69.8258 113.729 71.4728 115.96 71.4728C118.192 71.4728 119.827 69.8618 119.827 67.641C119.827 65.4203 118.201 63.8093 115.96 63.8093ZM115.96 70.4265C114.44 70.4265 113.336 69.2543 113.336 67.641C113.336 66.0278 114.408 64.8555 115.945 64.8555C117.481 64.8555 118.6 66.0008 118.6 67.641C118.6 69.2813 117.515 70.4265 115.96 70.4265Z" fill="white"/>
<path d="M65.2083 60.6458H63.95V61.908H65.2083V60.6458Z" fill="white"/>
<path d="M59.612 54.0037C61.2942 54.0037 62.8486 53.2297 63.6673 51.9832L62.6602 51.27C61.9514 52.3432 60.9555 52.8652 59.6142 52.8652C57.0752 52.8652 55.2337 50.9212 55.2337 48.2415C55.2337 45.5617 57.0752 43.6177 59.6142 43.6177C60.6213 43.6177 61.8707 44.2567 62.3395 45.0127L63.4049 44.2185C62.5324 43.1115 61.1507 42.4792 59.6142 42.4792C56.3664 42.4792 53.9148 44.9565 53.9148 48.2415C53.9148 51.5265 56.3641 54.0037 59.6142 54.0037H59.612Z" fill="white"/>
<path d="M66.6258 46.4325H65.4908V53.7292H66.6258V46.4325Z" fill="white"/>
<path d="M85.947 52.134V48.8107C85.947 47.256 84.8905 46.2502 83.2576 46.2502C81.9163 46.2502 80.889 46.608 80.2027 47.3122L80.9025 48.1245C81.5193 47.5687 82.2191 47.2987 83.0445 47.2987C84.2692 47.2987 84.8142 47.8612 84.8142 49.119V49.209H84.4195C81.2703 49.209 79.8662 49.9942 79.8662 51.7537C79.8662 53.0272 80.9025 53.916 82.3873 53.916C83.5066 53.916 84.2804 53.529 84.8748 52.6672C84.8815 53.0542 84.9129 53.3962 84.9668 53.6797L84.9757 53.7315H86.0793L86.0703 53.6595C85.9963 53.124 85.9492 52.3995 85.9492 52.1362L85.947 52.134ZM82.7081 52.8652C81.7256 52.8652 81.0909 52.3725 81.0909 51.612C81.0909 50.676 82.1855 50.1585 84.1727 50.1585H84.812V50.478C84.812 51.9945 84.0449 52.8652 82.7081 52.8652Z" fill="white"/>
<path d="M83.1678 45.0893H84.2198L82.6228 42.783L82.6048 42.756H81.037L83.1499 45.069L83.1678 45.0893Z" fill="white"/>
<path d="M66.6863 43.107H65.428V44.3692H66.6863V43.107Z" fill="white"/>
<path d="M71.733 52.8653C71.0399 52.8653 70.7573 52.5278 70.7573 51.7043V47.4788H72.8186V46.4325H70.7573V44.4098H69.6224V46.4325H68.1106V47.4788H69.6224V51.9945C69.6224 53.196 70.3087 53.9115 71.4571 53.9115C72.0493 53.9115 72.6818 53.727 72.8814 53.664V52.656C72.8814 52.656 72.139 52.8653 71.7308 52.8653H71.733Z" fill="white"/>
<path d="M77.6389 52.8653C76.9458 52.8653 76.6632 52.5278 76.6632 51.7043V47.4788H78.7245V46.4325H76.6632V44.4098H75.5283V46.4325H74.0165V47.4788H75.5283V51.9945C75.5283 53.196 76.2146 53.9115 77.363 53.9115C77.9552 53.9115 78.5877 53.727 78.7873 53.664V52.656C78.7873 52.656 78.0449 52.8653 77.6367 52.8653H77.6389Z" fill="white"/>
</svg>
