<svg width="120" height="120" viewBox="0 0 120 120" fill="none" xmlns="http://www.w3.org/2000/svg">
<path d="M57.0253 49.5521L54.3068 52.2745L55.2129 53.1819L57.9315 50.4596L57.0253 49.5521Z" fill="white"/>
<path d="M19.8058 49H22.7184V76.8833H20.3884L2.91262 54.6V76.8833H0V49H2.3301L19.8058 71.4V49Z" fill="white"/>
<path d="M60 62.8833C60 70.4667 53.8253 76.65 46.1359 76.65C38.5631 76.65 32.3884 70.4667 32.3884 62.7667C32.3884 55.1833 38.5631 49 46.2524 49C53.8253 49.1167 60 55.3 60 62.8833ZM57.0874 62.8833C57.0874 56.8167 52.1942 51.9167 46.1359 52.0333C40.0777 52.0333 35.1845 56.9333 35.301 63C35.301 69.0667 40.1942 73.85 46.2524 73.85C52.1942 73.85 57.0874 68.95 57.0874 62.8833Z" fill="white"/>
<path d="M91.1068 76.8833H87.0291L73.8641 63.7L72.5825 64.9833V76.7667H69.6699V49H72.5825V60.9L84.466 49H88.5437L75.9612 61.7167L91.1068 76.8833Z" fill="white"/>
<path d="M116.388 49H119.301V65.9167C119.301 71.9833 114.524 76.8833 108.466 77C102.757 77 97.9805 72.6833 97.5145 67.0833V49H100.427V66.0333C100.427 70.4667 104.039 74.0833 108.466 74.0833C112.893 74.0833 116.505 70.4667 116.505 66.0333L116.388 49Z" fill="white"/>
<path d="M60 42C57.4369 42 55.3398 44.1 55.3398 46.6667C55.3398 49.2333 57.4369 51.3333 60 51.3333C62.5631 51.3333 64.6602 49.2333 64.6602 46.6667C64.6602 44.1 62.5631 42 60 42ZM60 49.5833C58.4854 49.5833 57.2039 48.3 57.2039 46.7833C57.2039 45.2667 58.4854 43.9833 60 43.9833C61.5145 43.9833 62.7961 45.2667 62.7961 46.7833C62.7961 48.3 61.5145 49.5833 60 49.5833Z" fill="white"/>
</svg>
