<svg width="120" height="120" viewBox="0 0 120 120" fill="none" xmlns="http://www.w3.org/2000/svg">
<g clip-path="url(#clip0_2581_11239)">
<path d="M45.1165 58.0465L43.4789 55.726C44.0162 55.369 45.7305 54.2725 45.7305 51.1615C45.7305 50.6515 45.6794 50.0905 45.4747 49.5805C45.0397 48.5095 44.2721 48.331 43.786 48.331C42.8393 48.331 42.5066 48.9685 42.3275 49.4275C42.1996 49.759 42.174 49.81 41.867 51.136L41.4832 52.921C41.2529 53.8645 41.1506 54.3235 40.9715 54.7825C40.69 55.4455 39.7945 57.256 37.3382 57.256C34.5237 57.256 32.7327 54.91 32.7327 51.442C32.7327 48.28 34.2934 46.546 35.7263 45.526L37.415 47.77C36.673 48.28 35.2145 49.2235 35.2145 51.595C35.2145 53.074 35.8798 54.3745 37.0056 54.3745C38.2593 54.3745 38.5152 52.9975 38.771 51.6715L39.1037 50.1415C39.513 48.1525 40.3318 45.373 43.5045 45.373C46.9075 45.373 48.2636 48.5095 48.2636 51.646C48.2636 52.462 48.1868 53.38 47.931 54.2725C47.6239 55.216 46.9075 56.95 45.1165 58.0465ZM46.319 44.4805H33.0909V41.752H44.0162C39.3595 36.9835 32.835 34 25.6196 34C11.496 34.0255 0.0332943 45.4495 0.0588806 59.5255C0.0588806 66.436 2.82221 72.6835 7.32541 77.2735C6.9672 76.7635 6.71133 76.2025 6.55781 75.6925C6.30195 74.8 6.30195 74.1625 6.27636 71.638V59.5255H10.0887V72.0205C10.0887 72.8875 10.0631 73.729 10.3446 74.494C11.1122 76.4575 13.2614 76.687 14.464 76.687C15.0781 76.687 16.6133 76.6615 17.7391 75.667C18.8649 74.647 18.8649 73.4995 18.8649 71.8165V59.5255H22.7028V72.3265C22.6772 74.6215 22.6772 76.534 20.5024 78.37C18.4299 80.1805 15.7433 80.359 14.3617 80.359C13.1079 80.359 11.9054 80.206 10.754 79.8235C10.2678 79.6705 9.85845 79.4665 9.44907 79.237C13.8499 82.8325 19.5045 85 25.6708 85C39.7945 84.9745 51.2572 73.5505 51.2316 59.4745C51.2316 53.8645 49.3894 48.688 46.319 44.4805Z" fill="white"/>
<path d="M70.2166 34.816H60.3147V84.1585H70.2166V34.816Z" fill="white"/>
<path d="M119.726 34.816V84.184" stroke="white" stroke-width="1.3656"/>
<path d="M78.4298 39.763C78.4298 40.222 78.4298 40.4515 78.3275 40.7065C78.1484 41.242 77.5343 41.9305 76.2294 41.9305C75.385 41.9305 74.4639 41.599 74.1825 40.732C74.1057 40.4515 74.1057 40.222 74.1057 39.6355V36.4735H75.1036V39.7375C75.1036 40.0435 75.1036 40.171 75.1548 40.324C75.2571 40.63 75.5385 40.9615 76.255 40.9615C76.3829 40.9615 77.1249 40.9615 77.3296 40.3495C77.3808 40.171 77.4064 40.0435 77.4064 39.6865V36.4735H78.4042V39.763H78.4298Z" fill="white"/>
<path d="M80.6047 38.029V38.4625C80.9373 37.9525 81.6282 37.9015 81.7817 37.9015C82.5748 37.9015 83.0098 38.4115 83.0098 39.151V41.7775H82.1143V39.661C82.1143 39.253 82.012 38.7685 81.4491 38.7685C81.3467 38.7685 81.1676 38.794 80.9629 38.947C80.6815 39.1765 80.6047 39.4825 80.6047 40.1455V41.7775H79.6836V38.029H80.6047Z" fill="white"/>
<path d="M84.0844 37.4425V36.5245H84.9799V37.4425H84.0844ZM84.0844 41.803V38.029H84.9799V41.803H84.0844Z" fill="white"/>
<path d="M87.9224 41.803H86.9501L85.7219 38.029H86.6686L87.4618 40.63L88.2294 38.029H89.1761L87.9224 41.803Z" fill="white"/>
<path d="M90.5321 40.0945C90.5577 40.273 90.7112 41.038 91.6068 41.038C92.2464 41.038 92.5279 40.6555 92.6046 40.528L93.3722 40.9615C93.0652 41.3695 92.5279 41.9305 91.53 41.9305C90.4042 41.9305 89.5854 41.1655 89.5854 39.916C89.5854 38.5645 90.5066 37.927 91.4788 37.927C92.9373 37.927 93.3466 39.0745 93.3466 40.12H90.5321V40.0945ZM92.3232 39.4315C92.2976 39.253 92.1953 38.641 91.4788 38.641C90.7368 38.641 90.5833 39.2785 90.5577 39.4315H92.3232Z" fill="white"/>
<path d="M95.1121 38.029V38.5645C95.3935 37.978 96.0588 37.9525 96.2379 37.9525H96.3146V38.8705C96.1355 38.8705 95.3935 38.8705 95.1888 39.559C95.1121 39.763 95.1121 39.967 95.1121 40.171V41.7775H94.2166V38.029H95.1121Z" fill="white"/>
<path d="M99.5642 39.202C99.3595 38.794 98.9757 38.641 98.5407 38.641C98.3616 38.641 97.9011 38.692 97.9011 39.0235C97.9011 39.2785 98.1313 39.355 98.6687 39.457L99.2827 39.559C99.8456 39.661 100.306 39.9925 100.306 40.6045C100.306 41.293 99.6409 41.905 98.5919 41.905C97.5429 41.905 96.98 41.446 96.7753 41.2165L97.4661 40.6555C97.6452 40.885 97.9778 41.14 98.5663 41.14C99.1036 41.14 99.3083 40.8595 99.3083 40.7065C99.3083 40.477 99.1036 40.4005 98.7454 40.3495L98.2849 40.273C97.9778 40.222 96.98 40.0435 96.98 39.151C96.98 38.4115 97.6964 37.927 98.6175 37.927C98.9245 37.927 99.6665 37.978 100.255 38.641L99.5642 39.202Z" fill="white"/>
<path d="M101.202 37.4425V36.5245H102.097V37.4425H101.202ZM101.202 41.803V38.029H102.097V41.803H101.202Z" fill="white"/>
<path d="M102.788 38.029H103.351V36.6775H104.272V38.029H105.091V38.6665H104.272V40.528C104.272 40.681 104.272 40.834 104.374 40.936C104.477 41.038 104.681 41.038 104.707 41.038C104.835 41.038 104.963 41.0125 105.091 40.987V41.752C104.963 41.7775 104.758 41.803 104.451 41.803C103.632 41.803 103.376 41.497 103.376 40.885V38.641H102.814V38.029H102.788Z" fill="white"/>
<path d="M108.136 41.803L108.11 41.497C107.854 41.701 107.47 41.8795 107.01 41.8795C106.14 41.8795 105.628 41.3695 105.628 40.732C105.628 39.916 106.268 39.5845 106.984 39.457C107.547 39.355 107.905 39.253 108.161 39.1765C108.161 38.896 108.084 38.6155 107.521 38.6155C106.831 38.6155 106.754 38.998 106.754 39.1765L105.833 39.1255C105.858 38.8705 105.909 37.9015 107.496 37.9015C108.596 37.9015 109.082 38.3095 109.082 38.9725V41.1655C109.082 41.446 109.108 41.5225 109.261 41.7775H108.136V41.803ZM107.317 37.468L106.472 36.4735H107.598L107.982 37.468H107.317ZM108.136 39.916C107.982 39.9925 107.752 40.069 107.419 40.12C107.01 40.171 106.575 40.273 106.575 40.63C106.575 40.885 106.754 41.089 107.189 41.089C107.598 41.089 108.11 40.885 108.11 40.4005V39.916H108.136Z" fill="white"/>
<path d="M76.5109 49.912V49.555C76.4342 49.657 76.1271 50.0395 75.4619 50.0395C74.6687 50.0395 73.7732 49.4785 73.7732 48.127C73.7732 46.7755 74.592 46.0615 75.4875 46.0615C75.7945 46.0615 76.2551 46.1635 76.5109 46.495V44.6335H77.4065V49.963H76.5109V49.912ZM75.641 49.2235C76.1271 49.2235 76.5109 48.8155 76.5109 48.127C76.5109 47.566 76.3318 46.903 75.641 46.903C75.0781 46.903 74.7199 47.413 74.7199 48.0505C74.7455 48.5605 74.9757 49.2235 75.641 49.2235Z" fill="white"/>
<path d="M79.2998 48.2035C79.3254 48.382 79.4789 49.147 80.3745 49.147C81.0141 49.147 81.2956 48.7645 81.3723 48.637L82.1399 49.0705C81.8329 49.4785 81.2956 50.0395 80.2977 50.0395C79.1719 50.0395 78.3531 49.2745 78.3531 48.025C78.3531 46.6735 79.2743 46.036 80.2465 46.036C81.705 46.036 82.1143 47.1835 82.1143 48.229H79.2998V48.2035ZM81.1165 47.5405C81.0909 47.362 80.9885 46.75 80.2721 46.75C79.5301 46.75 79.3766 47.3875 79.351 47.5405H81.1165Z" fill="white"/>
<path d="M83.0099 49.912V44.5825H83.931V49.912H83.0099Z" fill="white"/>
<path d="M85.0568 49.912V44.5825H85.9779V49.912H85.0568Z" fill="white"/>
<path d="M89.3552 49.912L89.3297 49.606C89.0738 49.81 88.69 49.9885 88.2294 49.9885C87.3595 49.9885 86.8478 49.4785 86.8478 48.841C86.8478 48.025 87.4874 47.6935 88.2039 47.566C88.7668 47.464 89.125 47.362 89.3808 47.2855C89.3808 47.005 89.3041 46.7245 88.7412 46.7245C88.0503 46.7245 87.9736 47.107 87.9736 47.2855L87.0525 47.2345C87.0781 46.9795 87.1292 46.0105 88.7156 46.0105C89.8158 46.0105 90.3019 46.4185 90.3019 47.0815V49.3C90.3019 49.5805 90.3275 49.657 90.481 49.912H89.3552ZM89.3552 48.0505C89.2017 48.127 88.9714 48.2035 88.6388 48.2545C88.2294 48.3055 87.7945 48.4075 87.7945 48.7645C87.7945 49.0195 87.9736 49.2235 88.4085 49.2235C88.8179 49.2235 89.3297 49.0195 89.3297 48.535V48.0505H89.3552Z" fill="white"/>
<path d="M77.4319 54.2725C77.2528 53.992 76.869 53.482 76.0503 53.482C75.82 53.482 75.0524 53.5585 75.0524 54.1195C75.0524 54.5275 75.4618 54.6295 76.0247 54.757L76.5876 54.8845C77.4319 55.063 78.3275 55.3945 78.3275 56.4655C78.3275 57.7915 77.0226 58.174 76.0503 58.174C75.1548 58.174 74.1825 57.868 73.7219 57.0265L74.5663 56.44C74.7966 56.797 75.2315 57.2305 76.2294 57.2305C76.8179 57.2305 77.2528 57.001 77.2528 56.5165C77.2528 56.083 76.8946 55.981 76.2294 55.828L75.5386 55.675C74.8477 55.522 74.0034 55.2415 74.0034 54.196C74.0034 53.2525 74.771 52.5385 76.127 52.5385C76.6132 52.5385 77.5343 52.615 78.2763 53.6095L77.4319 54.2725Z" fill="white"/>
<path d="M80.9629 58.0465H79.9906L78.7625 54.2725H79.7091L80.5023 56.8735L81.2699 54.2725H82.2166L80.9629 58.0465Z" fill="white"/>
<path d="M82.9075 53.686V52.768H83.803V53.686H82.9075ZM82.9075 58.0465V54.2725H83.803V58.0465H82.9075Z" fill="white"/>
<path d="M84.6473 58.0465V57.358L86.6942 55.0885H84.852V54.2725H87.8968V54.9865L85.9011 57.256H87.8968V58.0465H84.6473Z" fill="white"/>
<path d="M88.5876 58.0465V57.358L90.6346 55.0885H88.7923V54.2725H91.8371V54.9865L89.8414 57.256H91.8371V58.0465H88.5876Z" fill="white"/>
<path d="M93.4234 56.338C93.449 56.5165 93.6025 57.2815 94.498 57.2815C95.1377 57.2815 95.4191 56.899 95.4959 56.7715L96.2635 57.205C95.9564 57.613 95.4191 58.174 94.4212 58.174C93.2954 58.174 92.4767 57.409 92.4767 56.1595C92.4767 54.808 93.3978 54.1705 94.3701 54.1705C95.8285 54.1705 96.2379 55.318 96.2379 56.3635H93.4234V56.338ZM95.2144 55.675C95.1888 55.4965 95.0865 54.8845 94.3701 54.8845C93.6281 54.8845 93.4745 55.522 93.449 55.675H95.2144Z" fill="white"/>
<path d="M98.0034 54.2725V54.808C98.2848 54.2215 98.9501 54.196 99.1292 54.196H99.2059V55.114C99.0268 55.114 98.2848 55.114 98.0801 55.8025C98.0034 56.0065 98.0034 56.2105 98.0034 56.4145V58.021H97.1334V54.2725H98.0034Z" fill="white"/>
<path d="M102.199 58.0465L102.174 57.7405C101.918 57.9445 101.534 58.123 101.074 58.123C100.204 58.123 99.692 57.613 99.692 56.9755C99.692 56.1595 100.332 55.828 101.048 55.7005C101.611 55.5985 101.969 55.4965 102.225 55.42C102.225 55.1395 102.148 54.859 101.585 54.859C100.895 54.859 100.818 55.2415 100.818 55.42L99.8967 55.369C99.9223 55.114 99.9735 54.145 101.56 54.145C102.66 54.145 103.146 54.553 103.146 55.216V57.409C103.146 57.6895 103.172 57.766 103.325 58.021H102.199V58.0465ZM102.199 56.1595C102.046 56.236 101.816 56.3125 101.483 56.3635C101.074 56.4145 100.639 56.5165 100.639 56.8735C100.639 57.1285 100.818 57.3325 101.253 57.3325C101.662 57.3325 102.174 57.1285 102.174 56.644V56.1595H102.199Z" fill="white"/>
<path d="M74.0034 61.8205V60.9025H74.8989V61.8205H74.0034ZM74.0034 66.181V62.407H74.8989V66.181H74.0034Z" fill="white"/>
<path d="M75.6154 62.407H76.1783V61.0555H77.0994V62.407H77.9181V63.0445H77.0738V64.906C77.0738 65.059 77.0738 65.212 77.1761 65.314C77.2785 65.416 77.4832 65.416 77.5088 65.416C77.6367 65.416 77.7646 65.3905 77.8925 65.365V66.13C77.7646 66.1555 77.5599 66.181 77.2529 66.181C76.4341 66.181 76.1783 65.875 76.1783 65.263V63.019H75.6154V62.407Z" fill="white"/>
<path d="M80.9373 66.181L80.9117 65.875C80.6558 66.079 80.272 66.2575 79.8115 66.2575C78.9415 66.2575 78.4298 65.7475 78.4298 65.11C78.4298 64.294 79.0695 63.9625 79.7859 63.835C80.3488 63.733 80.707 63.631 80.9629 63.5545C80.9629 63.274 80.8861 62.9935 80.3232 62.9935C79.6324 62.9935 79.5556 63.376 79.5556 63.5545L78.6345 63.5035C78.6601 63.2485 78.7113 62.2795 80.2976 62.2795C81.3978 62.2795 81.884 62.6875 81.884 63.3505V65.5435C81.884 65.824 81.9096 65.9005 82.0631 66.1555H80.9373V66.181ZM80.9373 64.294C80.7838 64.3705 80.5535 64.447 80.2209 64.498C79.8115 64.549 79.3765 64.651 79.3765 65.008C79.3765 65.263 79.5556 65.467 79.9906 65.467C80.4 65.467 80.9117 65.263 80.9117 64.7785V64.294H80.9373Z" fill="white"/>
<path d="M82.9843 66.181V60.8515H83.9054V66.181H82.9843Z" fill="white"/>
<path d="M85.0056 61.8205V60.9025H85.9011V61.8205H85.0056ZM85.0056 66.181V62.407H85.9011V66.181H85.0056Z" fill="white"/>
<path d="M89.3041 66.181L89.2785 65.875C89.0226 66.079 88.6388 66.2575 88.1783 66.2575C87.3084 66.2575 86.7966 65.7475 86.7966 65.11C86.7966 64.294 87.4363 63.9625 88.1527 63.835C88.7156 63.733 89.0738 63.631 89.3297 63.5545C89.3297 63.274 89.2529 62.9935 88.69 62.9935C87.9992 62.9935 87.9224 63.376 87.9224 63.5545L87.0013 63.5035C87.0269 63.2485 87.0781 62.2795 88.6644 62.2795C89.7646 62.2795 90.2508 62.6875 90.2508 63.3505V65.5435C90.2508 65.824 90.2764 65.9005 90.4299 66.1555H89.3041V66.181ZM89.3041 64.294C89.1506 64.3705 88.9203 64.447 88.5877 64.498C88.1783 64.549 87.7433 64.651 87.7433 65.008C87.7433 65.263 87.9224 65.467 88.3574 65.467C88.7668 65.467 89.2785 65.263 89.2785 64.7785V64.294H89.3041Z" fill="white"/>
<path d="M92.2209 62.407V62.8405C92.5535 62.3305 93.2444 62.2795 93.3979 62.2795C94.1911 62.2795 94.626 62.7895 94.626 63.529V66.1555H93.7305V64.039C93.7305 63.631 93.6282 63.1465 93.0653 63.1465C92.9629 63.1465 92.7838 63.172 92.5791 63.325C92.2977 63.5545 92.2209 63.8605 92.2209 64.5235V66.1555H91.2998V62.3815H92.2209V62.407Z" fill="white"/>
<path d="M97.9778 66.181L97.9522 65.875C97.6964 66.079 97.3126 66.2575 96.852 66.2575C95.9821 66.2575 95.4703 65.7475 95.4703 65.11C95.4703 64.294 96.11 63.9625 96.8264 63.835C97.3893 63.733 97.7475 63.631 98.0034 63.5545C98.0034 63.274 97.9266 62.9935 97.3637 62.9935C96.6729 62.9935 96.5961 63.376 96.5961 63.5545L95.675 63.5035C95.7006 63.2485 95.7518 62.2795 97.3381 62.2795C98.4384 62.2795 98.9245 62.6875 98.9245 63.3505V65.5435C98.9245 65.824 98.9501 65.9005 99.1036 66.1555H97.9778V66.181ZM97.9778 64.294C97.8243 64.3705 97.594 64.447 97.2614 64.498C96.852 64.549 96.417 64.651 96.417 65.008C96.417 65.263 96.5961 65.467 97.0311 65.467C97.4405 65.467 97.9522 65.263 97.9522 64.7785V64.294H97.9778Z" fill="white"/>
</g>
<defs>
<clipPath id="clip0_2581_11239">
<rect width="120" height="120" fill="white"/>
</clipPath>
</defs>
</svg>
