<svg width="120" height="120" viewBox="0 0 120 120" fill="none" xmlns="http://www.w3.org/2000/svg">
<path d="M54.6173 32V86.9424H0.00793457V32H54.6173ZM22.7648 54.8955H10.38V64.0469H22.7648V76.5078H44.2462V67.3496H31.8673V42.4346H22.7648V54.8955Z" fill="white"/>
<path d="M68.4354 46.4296H68.9341V42.4221H68.2208L66.9772 45.4769L65.74 42.4221H65.033V46.4296H65.5316V43.0953L66.8825 46.4296H67.0845L68.4417 43.0953V46.4296H68.4354ZM71.0235 46.4296H71.5222V44.7338L73.0877 42.4221H72.5069L71.2697 44.2829L70.0324 42.4221H69.4517L71.0235 44.7338V46.4296ZM74.9814 44.4353C74.9814 44.8291 75.0635 45.1848 75.2276 45.496C75.3917 45.8135 75.6253 46.0612 75.9283 46.239C76.2313 46.4169 76.5722 46.5121 76.9572 46.5121C77.3423 46.5121 77.6831 46.4232 77.9861 46.239C78.2828 46.0612 78.5164 45.8135 78.6868 45.496C78.851 45.1784 78.9393 44.8291 78.9393 44.4353C78.9393 44.0416 78.8573 43.6859 78.6868 43.3747C78.5227 43.0572 78.2891 42.8095 77.9861 42.6316C77.6895 42.4538 77.3423 42.3586 76.9572 42.3586C76.5722 42.3586 76.225 42.4475 75.9283 42.6316C75.6253 42.8095 75.3917 43.0572 75.2276 43.3747C75.0635 43.6859 74.9814 44.0416 74.9814 44.4353ZM78.4217 44.4353C78.4217 44.7529 78.3586 45.0387 78.2386 45.2927C78.1187 45.5468 77.9483 45.7437 77.7273 45.8897C77.5064 46.0358 77.2476 46.1057 76.9572 46.1057C76.6668 46.1057 76.408 46.0358 76.1871 45.8897C75.9661 45.7437 75.7957 45.5468 75.6758 45.2927C75.5558 45.0387 75.499 44.7529 75.499 44.4353C75.499 44.1178 75.5558 43.832 75.6758 43.578C75.7957 43.3239 75.9661 43.127 76.1871 42.981C76.408 42.8349 76.6668 42.765 76.9635 42.765C77.2539 42.765 77.5127 42.8349 77.7336 42.981C77.9546 43.127 78.125 43.3239 78.245 43.578C78.3649 43.8256 78.4217 44.1114 78.4217 44.4353Z" fill="white"/>
<path d="M82.6384 46.4296H83.1749L84.3112 42.4221H83.762L82.8846 45.7627L81.9692 42.4221H81.5589L80.6436 45.7627L79.7599 42.4221H79.2107L80.3469 46.4296H80.8835L81.7609 43.1969L82.6384 46.4296ZM87.6883 46.4296H88.1681V42.4221H87.6694V45.5912L85.378 42.4221H84.873V46.4296H85.3717V43.1969L87.6883 46.4296Z" fill="white"/>
<path d="M65.0455 64.0473H70.8278V62.485H66.9835V54.8891H65.0455V64.0473ZM71.8504 60.4018C71.8504 61.5768 72.1913 62.504 72.8793 63.1899C73.5674 63.8759 74.5837 64.2188 75.9282 64.2188C77.2665 64.2188 78.2765 63.8759 78.9582 63.1899C79.64 62.504 79.9808 61.5704 79.9808 60.3828V54.8828H78.0177V60.4526C78.0177 61.1259 77.8409 61.6657 77.4811 62.0595C77.1213 62.4596 76.6037 62.6565 75.9345 62.6565C75.2402 62.6565 74.7162 62.4596 74.3564 62.0595C73.9966 61.6593 73.8199 61.1259 73.8199 60.4526V54.8891H71.8504V60.4018Z" fill="white"/>
<path d="M81.3444 59.4746C81.3444 60.4082 81.559 61.2338 81.9945 61.9579C82.4238 62.6819 83.0109 63.2408 83.7494 63.6345C84.488 64.0283 85.3023 64.2252 86.1923 64.2252C86.994 64.2252 87.7199 64.0727 88.3701 63.7742C89.0203 63.4694 89.5884 63.0439 90.0682 62.4977V58.9919H85.7315V60.5543H88.1618V61.8499C87.9409 62.0722 87.6568 62.2627 87.3096 62.4215C86.9625 62.5803 86.59 62.6628 86.1986 62.6628C85.6558 62.6628 85.1634 62.5231 84.7342 62.25C84.3049 61.9769 83.964 61.5958 83.7178 61.1132C83.4717 60.6305 83.3517 60.0906 83.3517 59.4873C83.3517 58.8839 83.4717 58.3441 83.7178 57.8614C83.964 57.3788 84.3049 56.9977 84.7342 56.7246C85.1634 56.4515 85.6558 56.3118 86.1986 56.3118C86.6531 56.3118 87.0698 56.4197 87.4485 56.6357C87.8273 56.8516 88.1303 57.1247 88.3575 57.4677L89.9672 56.5912C89.5821 56.026 89.0834 55.5814 88.4585 55.2512C87.8336 54.9209 87.0824 54.7558 86.1986 54.7558C85.3086 54.7558 84.4943 54.9527 83.7557 55.3401C83.0172 55.7275 82.4364 56.28 82.0009 56.9977C81.559 57.7027 81.3444 58.5346 81.3444 59.4746ZM97.9714 64.0473H100.086L96.5827 54.8955H94.1524L90.63 64.0473H92.7573L93.3317 62.4659H97.397L97.9714 64.0473ZM95.3707 56.6992L96.873 60.8972H93.8115L95.3707 56.6992ZM107.213 64.0473H109.081V54.8891H107.143V60.821L102.927 54.8891H100.932V64.041H102.87V57.8932L107.213 64.0473ZM110.445 59.4809C110.445 60.3891 110.647 61.2021 111.057 61.9197C111.467 62.6374 112.036 63.2027 112.755 63.6091C113.481 64.0156 114.289 64.2188 115.192 64.2188C116.101 64.2188 116.915 64.0156 117.641 63.6091C118.367 63.2027 118.929 62.6374 119.339 61.9197C119.749 61.2021 119.951 60.3891 119.951 59.4809C119.951 58.5727 119.749 57.7598 119.339 57.0421C118.929 56.3245 118.361 55.7592 117.641 55.3528C116.915 54.9463 116.101 54.7431 115.192 54.7431C114.289 54.7431 113.481 54.9463 112.755 55.3528C112.029 55.7592 111.467 56.3245 111.057 57.0421C110.647 57.7598 110.445 58.5727 110.445 59.4809ZM117.957 59.4809C117.957 60.0779 117.843 60.6241 117.616 61.1068C117.389 61.5895 117.06 61.9706 116.637 62.2436C116.214 62.5167 115.728 62.6565 115.185 62.6565C114.643 62.6565 114.157 62.5167 113.74 62.2436C113.323 61.9706 113.001 61.5895 112.774 61.1068C112.547 60.6241 112.433 60.0843 112.433 59.4809C112.433 58.8776 112.547 58.3378 112.774 57.8551C113.001 57.3724 113.323 56.9913 113.74 56.7182C114.157 56.4452 114.643 56.3054 115.185 56.3054C115.728 56.3054 116.214 56.4452 116.637 56.7182C117.06 56.9913 117.382 57.3724 117.616 57.8551C117.843 58.3378 117.957 58.884 117.957 59.4809Z" fill="white"/>
<path d="M70.1839 76.5017H72.4059L70.3606 73.015C70.9161 72.888 71.3833 72.5895 71.7746 72.1259C72.1597 71.6622 72.3554 71.0525 72.3554 70.3031C72.3554 69.7379 72.2354 69.2298 71.9892 68.7789C71.7431 68.3279 71.3896 67.9786 70.9224 67.7309C70.4616 67.4769 69.9188 67.3562 69.3001 67.3562H65.0455V76.5081H66.9835V73.2182H68.4038L70.1839 76.5017ZM70.3796 70.2841C70.3796 70.6905 70.247 71.0208 69.9882 71.2748C69.7294 71.5289 69.4011 71.6559 69.0098 71.6559H66.9772V68.9122H69.0098C69.4011 68.9122 69.7231 69.0392 69.9882 69.2933C70.247 69.5473 70.3796 69.8776 70.3796 70.2841ZM73.8136 76.5017H80.2523V74.933H75.7515V72.5704H80.1576V71.0081H75.7515V68.9059H80.2523V67.3435H73.8136V76.5017ZM81.3317 71.929C81.3317 72.8626 81.5463 73.6882 81.9819 74.4122C82.4111 75.1362 82.9982 75.6951 83.7368 76.0889C84.4753 76.4827 85.2896 76.6795 86.1797 76.6795C86.9814 76.6795 87.7073 76.5271 88.3575 76.2286C89.0077 75.9238 89.5758 75.4983 90.0555 74.9521V71.4526H85.7189V73.015H88.1492V74.3043C87.9282 74.5265 87.6442 74.7171 87.297 74.8759C86.9498 75.0346 86.5774 75.1172 86.186 75.1172C85.6431 75.1172 85.1507 74.9775 84.7215 74.7044C84.2922 74.4313 83.9514 74.0502 83.7052 73.5675C83.459 73.0849 83.3391 72.545 83.3391 71.9417C83.3391 71.3447 83.459 70.7985 83.7052 70.3158C83.9514 69.8331 84.2922 69.4521 84.7215 69.179C85.1507 68.9059 85.6431 68.7662 86.186 68.7662C86.6405 68.7662 87.0571 68.8741 87.4359 69.0901C87.8146 69.306 88.1176 69.5791 88.3449 69.922L89.9545 69.0456C89.5695 68.4804 89.0708 68.0358 88.4459 67.7055C87.8209 67.3753 87.0697 67.2102 86.186 67.2102C85.2959 67.2102 84.4816 67.407 83.7431 67.7944C83.0045 68.1819 82.4238 68.7344 81.9882 69.4521C81.5463 70.157 81.3317 70.989 81.3317 71.929ZM91.5895 76.5017H93.5274V67.3435H91.5895V76.5017ZM94.8909 71.9353C94.8909 72.8435 95.0929 73.6565 95.5032 74.3741C95.9135 75.0918 96.4816 75.657 97.2012 76.0635C97.9272 76.47 98.7352 76.6732 99.6379 76.6732C100.547 76.6732 101.361 76.47 102.087 76.0635C102.813 75.657 103.375 75.0918 103.785 74.3741C104.195 73.6565 104.397 72.8435 104.397 71.9353C104.397 71.0271 104.195 70.2142 103.785 69.4965C103.375 68.7789 102.807 68.2136 102.087 67.8071C101.361 67.4007 100.547 67.1974 99.6379 67.1974C98.7352 67.1974 97.9272 67.4007 97.2012 67.8071C96.4753 68.2136 95.9135 68.7789 95.5032 69.4965C95.0929 70.2142 94.8909 71.0271 94.8909 71.9353ZM102.409 71.9353C102.409 72.5323 102.295 73.0785 102.068 73.5612C101.841 74.0439 101.513 74.4249 101.09 74.698C100.667 74.9711 100.181 75.1108 99.6379 75.1108C99.095 75.1108 98.6089 74.9711 98.1923 74.698C97.7757 74.4249 97.4537 74.0439 97.2265 73.5612C96.9992 73.0785 96.8856 72.5387 96.8856 71.9353C96.8856 71.3383 96.9992 70.7921 97.2265 70.3095C97.4537 69.8268 97.7757 69.4457 98.1923 69.1726C98.6089 68.8995 99.095 68.7598 99.6379 68.7598C100.181 68.7598 100.667 68.8995 101.09 69.1726C101.513 69.4457 101.835 69.8268 102.068 70.3095C102.295 70.7985 102.409 71.3383 102.409 71.9353ZM112.042 76.5017H113.91V67.3435H111.972V73.2754L107.756 67.3435H105.761V76.4954H107.699V70.3476L112.042 76.5017Z" fill="white"/>
</svg>
