<svg width="120" height="120" viewBox="0 0 120 120" fill="none" xmlns="http://www.w3.org/2000/svg">
<path d="M72.4241 94.0616C68.8068 94.0616 66.4439 92.2613 66.4439 87.9628C66.4439 84.3193 68.4651 81.5035 72.9132 81.5035C73.8708 81.5035 75.0837 81.6941 75.893 82.0117L75.2114 84.5529C74.4895 84.2987 73.7863 84.1082 72.9986 84.1082C70.722 84.1082 69.7851 85.5908 69.7851 87.8143C69.7851 89.9743 70.6366 91.4149 72.8709 91.4149C73.914 91.4149 74.6369 91.1608 75.34 90.8852L75.7015 93.3843C75.0837 93.7654 73.7863 94.0616 72.4241 94.0616ZM43.2261 80.1909C44.333 80.1909 45.2267 79.3435 45.2267 78.2635C45.2267 77.2041 44.333 76.3997 43.2261 76.3997C42.2057 76.3997 41.2903 77.2041 41.2903 78.2635C41.2903 79.3435 42.2057 80.1909 43.2261 80.1909ZM41.5025 93.8495H44.6306V81.7156C43.1632 81.5661 41.5025 81.9697 41.5025 84.2567V93.8495ZM82.4891 84.1296C81.0865 84.1296 79.7449 85.1676 79.7449 87.8358C79.7449 90.1443 80.6171 91.4354 82.4477 91.4354C84.0005 91.4354 85.1928 90.1864 85.1928 87.7302C85.1928 85.3787 84.3413 84.1296 82.4891 84.1296ZM82.3633 94.1036C78.8934 94.1036 76.4675 92.2202 76.4675 87.9834C76.4675 84.1932 79.0211 81.4605 82.7247 81.4605C86.172 81.4605 88.4064 83.3888 88.4064 87.5181C88.4064 91.4784 85.9814 94.1036 82.3633 94.1036ZM19.7963 84.3193C19.1147 84.0661 18.0717 83.812 17.2211 83.812C16.2419 83.812 15.4975 84.0661 15.4975 84.9555C15.4975 87.052 20.9022 85.7608 20.9022 90.0808C20.9022 93.0031 18.5185 94.1251 15.8373 94.1251C14.6028 94.1251 13.3692 93.9355 12.2407 93.5963L12.4322 91.0337C12.4322 91.0337 14.2197 91.626 15.7096 91.626C16.7526 91.626 17.6041 91.3084 17.6041 90.3984C17.6041 88.1534 12.1769 89.594 12.1769 85.2946C12.1769 82.605 14.4544 81.5035 16.9657 81.5035C18.4547 81.5035 19.647 81.7791 20.3699 82.0332L19.7963 84.3193ZM40.0764 81.7156C39.3958 85.3152 37.6505 90.9907 36.5437 93.8495H33.2241L30.8827 85.7608H30.8404L28.5 93.8495H25.201C24.1373 91.0337 22.2212 85.1676 21.6682 81.7156H24.7973L26.8617 90.0593H26.9031L29.3721 81.7156H32.5012L34.9055 89.9958H34.9487L37.0338 81.7156H40.0764ZM104.24 81.4605C106.602 81.4605 107.985 82.732 107.985 85.5058V93.8495H104.836V86.142C104.836 84.892 104.473 84.0661 103.133 84.0661C101.793 84.0661 100.621 85.2302 100.621 87.3266V93.8495H97.5363V86.142C97.5363 84.9761 97.1533 84.0661 95.8117 84.0661C94.4073 84.0661 93.322 85.3582 93.322 87.4546V93.8495H90.131V81.7156C92.2161 81.4605 93.0028 82.3079 93.0882 83.6635C93.8543 82.3079 95.1743 81.4605 96.8979 81.4605C99.09 81.4605 99.9622 82.6685 100.281 83.812C100.813 82.605 102.175 81.4605 104.24 81.4605ZM54.1004 84.3193C53.3991 84.0661 52.3777 83.812 51.5271 83.812C50.547 83.812 49.7603 84.0661 49.7603 84.9555C49.7603 87.052 55.2082 85.7608 55.2082 90.0808C55.2082 93.0031 52.8039 94.1251 50.1433 94.1251C48.9088 94.1251 47.6742 93.9355 46.5035 93.5963L46.7382 91.0337C46.7382 91.0337 48.5257 91.626 50.0156 91.626C51.0155 91.626 51.8876 91.3084 51.8876 90.3984C51.8876 88.1534 46.4397 89.594 46.4397 85.2946C46.4397 82.605 48.7379 81.5035 51.2276 81.5035C52.7175 81.5035 53.952 81.7791 54.6759 82.0332L54.1004 84.3193ZM64.018 84.3193C63.3373 84.0661 62.2943 83.812 61.4428 83.812C60.4646 83.812 59.6976 84.0661 59.6976 84.9555C59.6976 87.052 65.1248 85.7608 65.1248 90.0808C65.1248 93.0031 62.7412 94.1251 60.0599 94.1251C58.8254 94.1251 57.5909 93.9355 56.4634 93.5963L56.6765 91.0337C56.6765 91.0337 58.4424 91.626 59.9323 91.626C60.9753 91.626 61.8268 91.3084 61.8268 90.3984C61.8268 88.1534 56.3995 89.594 56.3995 85.2946C56.3995 82.605 58.6771 81.5035 61.1875 81.5035C62.6774 81.5035 63.8903 81.7791 64.5925 82.0332L64.018 84.3193Z" fill="white"/>
<path d="M50.4492 54.0698C49.2882 55.5569 48.3992 57.4653 48.6534 59.3832C48.9607 61.7007 50.4294 63.6924 52.1505 65.1989C53.849 66.6857 55.8964 67.7016 57.9711 68.5622C57.1954 68.1149 56.6377 67.4701 56.2109 66.7404C55.784 66.0107 55.4817 65.1831 55.2486 64.3114C54.7823 62.568 54.5566 60.6888 53.9342 59.2197C53.473 58.0356 52.8405 56.9753 52.1036 55.9966C51.6057 55.3354 51.0286 54.6688 50.4492 54.0698Z" fill="url(#paint0_radial_2581_11308)"/>
<path d="M54.4271 31.2391C54.8727 31.8829 55.5491 32.858 56.2109 33.855C56.5013 34.292 56.803 34.7376 57.0558 35.163C57.2075 35.418 57.332 35.6487 57.4548 35.887C57.6032 36.1757 57.7395 36.4746 57.8303 36.7278C57.8957 36.9083 57.9293 37.0792 57.9477 37.2183C57.9525 37.2546 57.9708 37.2789 57.9711 37.3117C57.9711 37.9181 57.9711 38.1546 57.9711 38.2226C57.9711 38.2947 57.9711 38.3817 57.9711 38.5029C57.9713 38.6241 57.9711 38.7722 57.9711 38.9466C57.9713 39.2955 57.9708 39.7632 57.9711 40.348C57.9715 40.9328 57.971 41.6439 57.9711 42.4968C57.9713 43.3496 57.9711 44.3336 57.9711 45.4864C57.9711 45.8483 57.9711 46.3038 57.9711 46.8177C57.9713 47.3315 57.9711 47.908 57.9711 48.4759C57.9711 49.0438 57.9711 49.6102 57.9711 50.1342C57.9711 50.6583 57.9711 51.1297 57.9711 51.5122C57.9715 52.575 57.9711 53.3933 57.9711 54.5018C57.9711 55.0563 57.9711 55.6845 57.9711 56.4637C57.9713 57.243 57.9711 58.1665 57.9711 59.3132C57.9711 59.9236 57.9713 60.6483 57.9711 61.4386C57.971 62.2289 57.9713 63.0959 57.9711 63.961C57.9708 64.8262 57.9713 65.6953 57.9711 66.5302C57.971 67.3652 57.9711 68.1662 57.9711 68.8658C57.9711 71.41 57.9711 73.537 57.9711 73.537C58.416 73.5003 58.8685 73.4587 59.3324 73.3969C59.7963 73.3352 60.2627 73.2741 60.7406 73.1867C61.3311 73.078 61.9435 72.9381 62.5478 72.7897C63.1518 72.6412 63.7454 72.4653 64.355 72.2758C64.8699 72.1162 65.3925 71.9515 65.9041 71.762C66.4157 71.5725 66.9266 71.3745 67.4296 71.1547C67.8779 70.9596 68.3301 70.7435 68.7674 70.5241C69.2048 70.3047 69.6365 70.0671 70.0583 69.8234C70.6069 69.5055 71.1387 69.1781 71.6543 68.8191C72.1698 68.4601 72.6596 68.0767 73.1329 67.6747C73.6769 67.2122 74.1829 66.7219 74.6585 66.2032C75.1341 65.6843 75.5801 65.1441 75.9728 64.5683C76.3821 63.9665 76.7475 63.3182 77.0524 62.6531C77.3571 61.9883 77.5949 61.3046 77.78 60.5744C77.881 60.179 77.9771 59.7749 78.0382 59.3599C78.0989 58.945 78.1357 58.5098 78.1555 58.0753C78.178 57.5877 78.1575 57.1222 78.1086 56.6506C78.0594 56.1789 77.966 55.7059 77.8504 55.2492C77.5375 54.0226 76.9998 52.8437 76.2779 51.6991C75.8241 50.978 75.3148 50.2731 74.7289 49.5737C74.143 48.8742 73.4965 48.1787 72.8043 47.495C72.1043 46.8034 71.3569 46.1238 70.5747 45.4396C69.7927 44.7555 68.9728 44.069 68.1337 43.3843C67.6172 42.9634 67.0907 42.5463 66.5612 42.1231C66.0321 41.6997 65.5023 41.2662 64.9653 40.8385C64.5524 40.5094 64.1356 40.1898 63.7213 39.8575C63.3071 39.5251 62.8903 39.1897 62.4774 38.8532C61.5509 38.0979 60.6297 37.3248 59.7314 36.541C58.9374 35.8297 58.166 35.1444 57.4313 34.4389C57.1884 34.206 56.9663 33.9786 56.7272 33.7382C56.9594 34.0171 57.1787 34.3504 57.4078 34.6958C57.1782 34.3496 56.9598 34.0177 56.7272 33.7382C55.9606 32.9677 55.2064 32.1483 54.4271 31.2391ZM59.5671 38.5262C59.6047 38.6444 59.628 38.7558 59.6375 38.8532C59.628 38.7536 59.6061 38.6479 59.5671 38.5262Z" fill="url(#paint1_radial_2581_11308)"/>
<path d="M54.4349 31.2623C56.9136 34.8403 57.8762 35.9356 57.9988 37.5658C57.9989 47.4844 58.0755 58.5374 58.0756 68.4559C64.2449 62.2124 68.9132 54.3582 71.2292 45.9015C65.9561 41.4833 58.9729 36.5284 54.4349 31.2623Z" fill="url(#paint2_radial_2581_11308)"/>
<path d="M60.1773 29.3239C59.1891 29.4681 57.2138 29.4654 57.5956 30.9017C57.5954 32.1353 57.9745 33.7074 57.9744 34.9409C62.1321 38.7029 67.2515 42.7795 71.2323 45.9008C72.2337 41.8366 71.9141 37.2287 69.4907 34.0288C67.3522 31.1601 63.796 29.2499 60.1773 29.3239Z" fill="url(#paint3_radial_2581_11308)"/>
<path d="M57.267 24.7928C56.0961 24.8882 54.9002 25.2424 53.9926 26.01C53.3058 26.63 52.9676 27.5963 53.1362 28.5065C53.3386 29.583 53.8924 30.5624 54.5705 31.4118C55.093 32.0366 55.6466 32.6332 56.2134 33.2183C56.7842 33.8076 57.3734 34.3786 57.9711 34.9383C57.9711 31.6652 57.9711 28.1126 57.9711 24.8396C57.7415 24.7809 57.5021 24.7825 57.267 24.7928Z" fill="url(#paint4_radial_2581_11308)"/>
<path d="M53.4192 29.5111C49.5919 32.5599 45.08 35.1099 42.523 39.4189C40.7903 42.2915 41.7576 46.0579 44.099 48.2852C47.578 51.7167 52.091 54.4786 53.9359 59.2154C55.1807 62.1535 54.8719 66.7635 57.9748 68.5525C57.9909 64.7314 57.99 64.7442 57.972 59.8074C55.8845 59.383 55.2899 57.4741 55.0704 55.8243C54.8623 54.037 54.0735 52.2753 52.4709 51.3158C50.8277 50.1414 48.4134 48.8433 48.738 46.4651C48.9063 44.3789 51.2765 43.9644 52.832 43.2304C55.4185 42.241 54.6392 37.6723 57.9589 37.3029C58.0059 36.1944 56.7332 34.5866 56.0944 33.6544C55.1548 32.2832 54.1602 30.9826 53.4192 29.5111Z" fill="url(#paint5_linear_2581_11308)"/>
<path d="M58.0172 59.8276C57.9571 59.8173 57.9102 59.8089 57.8332 59.7883C57.4821 59.693 57.1431 59.552 56.8408 59.3492C54.1347 57.6197 56.1721 54.0991 52.819 51.5586C52.589 51.7903 52.1953 52.1166 51.6415 52.6688L50.4506 54.067C51.6879 55.3516 52.8359 56.7829 53.6592 58.4776C54.6412 60.6226 54.7971 63.0404 55.5482 65.262C55.8223 66.0748 56.2316 66.8223 56.7413 67.5164C57.0605 67.948 57.4436 68.3385 58.0172 68.573C58.0172 67.65 58.0172 60.9767 58.0172 59.9079V59.8276Z" fill="url(#paint6_linear_2581_11308)"/>
<defs>
<radialGradient id="paint0_radial_2581_11308" cx="0" cy="0" r="1" gradientUnits="userSpaceOnUse" gradientTransform="translate(56.3644 67.5951) rotate(-161.445) scale(15.2796 11.1278)">
<stop stop-color="white" stop-opacity="0.1"/>
<stop offset="1" stop-color="white" stop-opacity="0.980392"/>
</radialGradient>
<radialGradient id="paint1_radial_2581_11308" cx="0" cy="0" r="1" gradientUnits="userSpaceOnUse" gradientTransform="translate(59.3328 70.2127) rotate(-72.5628) scale(30.5271 19.9033)">
<stop stop-color="white" stop-opacity="0.1"/>
<stop offset="1" stop-color="white"/>
</radialGradient>
<radialGradient id="paint2_radial_2581_11308" cx="0" cy="0" r="1" gradientUnits="userSpaceOnUse" gradientTransform="translate(60.9044 38.0763) rotate(-48.7532) scale(18.7287 23.0023)">
<stop stop-color="white"/>
<stop offset="1" stop-color="white" stop-opacity="0.1"/>
</radialGradient>
<radialGradient id="paint3_radial_2581_11308" cx="0" cy="0" r="1" gradientUnits="userSpaceOnUse" gradientTransform="translate(63.7543 31.6922) rotate(12.16) scale(14.6846 11.7261)">
<stop stop-color="white"/>
<stop offset="1" stop-color="white" stop-opacity="0.1"/>
</radialGradient>
<radialGradient id="paint4_radial_2581_11308" cx="0" cy="0" r="1" gradientUnits="userSpaceOnUse" gradientTransform="translate(57.9711 34.9383) rotate(-143.232) scale(8.47923 7.70477)">
<stop stop-color="white" stop-opacity="0.1"/>
<stop offset="1" stop-color="white" stop-opacity="0.980392"/>
</radialGradient>
<linearGradient id="paint5_linear_2581_11308" x1="44.5709" y1="36.4202" x2="54.7436" y2="46.0414" gradientUnits="userSpaceOnUse">
<stop stop-color="white"/>
<stop offset="1" stop-color="white" stop-opacity="0.1"/>
</linearGradient>
<linearGradient id="paint6_linear_2581_11308" x1="40.2468" y1="206.051" x2="39.102" y2="201.662" gradientUnits="userSpaceOnUse">
<stop stop-color="white" stop-opacity="0.1"/>
<stop offset="1" stop-color="white"/>
</linearGradient>
</defs>
</svg>
