<?xml version="1.0" encoding="UTF-8"?>
<svg id="Livello_1" xmlns="http://www.w3.org/2000/svg" version="1.1" viewBox="0 0 476 206">
  <!-- Generator: Adobe Illustrator 29.6.1, SVG Export Plug-In . SVG Version: 2.1.1 Build 9)  -->
  <defs>
    <style>
      .st0 {
        fill: none;
        stroke: #000;
        stroke-width: 1.4px;
      }
    </style>
  </defs>
  <path d="M179.1,97.3l-6.4-9.1c2.1-1.4,8.8-5.7,8.8-17.9s-.2-4.2-1-6.2c-1.7-4.2-4.7-4.9-6.6-4.9-3.7,0-5,2.5-5.7,4.3-.5,1.3-.6,1.5-1.8,6.7l-1.5,7c-.9,3.7-1.3,5.5-2,7.3-1.1,2.6-4.6,9.7-14.2,9.7s-18-9.2-18-22.8,6.1-19.2,11.7-23.2l6.6,8.8c-2.9,2-8.6,5.7-8.6,15s2.6,10.9,7,10.9,5.9-5.4,6.9-10.6l1.3-6c1.6-7.8,4.8-18.7,17.2-18.7s18.6,12.3,18.6,24.6-.3,6.8-1.3,10.3c-1.2,3.7-4,10.5-11,14.8M183.8,44.1h-51.7v-10.7h42.7C156.6,14.7,131.1,3,102.9,3,47.7,3.1,2.9,47.9,3,103.1c0,27.1,10.8,51.6,28.4,69.6-1.4-2-2.4-4.2-3-6.2-1-3.5-1-6-1.1-15.9v-47.5h14.9v49c0,3.4,0,6.7,1,9.7,3,7.7,11.4,8.6,16.1,8.6s8.4-.1,12.8-4c4.4-4,4.4-8.5,4.4-15.1v-48.2h15v50.2c0,9,0,16.5-8.6,23.7-8.1,7.1-18.6,7.8-24,7.8s-9.6-.6-14.1-2.1c-1.9-.6-3.5-1.4-5.1-2.3,17.2,14.1,39.3,22.6,63.4,22.6,55.2-.1,100-44.9,99.9-100.1,0-22-7.2-42.3-19.2-58.8"/>
  <rect x="238.5" y="6.2" width="38.7" height="193.5"/>
  <line class="st0" x1="470.7" y1="6.2" x2="470.7" y2="199.8"/>
  <g>
    <path d="M309.3,25.6c0,1.8,0,2.7-.4,3.7-.7,2.1-3.1,4.8-8.2,4.8s-6.9-1.3-8-4.7c-.3-1.1-.3-2-.3-4.3v-12.4h3.9v12.8c0,1.2,0,1.7.2,2.3.4,1.2,1.5,2.5,4.3,2.5s3.4,0,4.2-2.4c.2-.7.3-1.2.3-2.6v-12.6h3.9v12.9s.1,0,.1,0Z"/>
    <path d="M317.8,18.8v1.7c1.3-2,4-2.2,4.6-2.2,3.1,0,4.8,2,4.8,4.9v10.3h-3.5v-8.3c0-1.6-.4-3.5-2.6-3.5s-1.1.1-1.9.7c-1.1.9-1.4,2.1-1.4,4.7v6.4h-3.6v-14.7s3.6,0,3.6,0Z"/>
    <path d="M331.4,16.5v-3.6h3.5v3.6h-3.5ZM331.4,33.6v-14.8h3.5v14.8h-3.5Z"/>
    <path d="M346.4,33.6h-3.8l-4.8-14.8h3.7l3.1,10.2,3-10.2h3.7l-4.9,14.8h0Z"/>
    <path d="M356.6,26.9c.1.7.7,3.7,4.2,3.7s3.6-1.5,3.9-2l3,1.7c-1.2,1.6-3.3,3.8-7.2,3.8s-7.6-3-7.6-7.9,3.6-7.8,7.4-7.8c5.7,0,7.3,4.5,7.3,8.6h-11,0ZM363.6,24.3c-.1-.7-.5-3.1-3.3-3.1s-3.5,2.5-3.6,3.1h6.9Z"/>
    <path d="M374.5,18.8v2.1c1.1-2.3,3.7-2.4,4.4-2.4h.3v3.6c-.7,0-3.6,0-4.4,2.7-.3.8-.3,1.6-.3,2.4v6.3h-3.5v-14.7h3.5Z"/>
    <path d="M391.9,23.4c-.8-1.6-2.3-2.2-4-2.2s-2.5.2-2.5,1.5.9,1.3,3,1.7l2.4.4c2.2.4,4,1.7,4,4.1s-2.6,5.1-6.7,5.1-6.3-1.8-7.1-2.7l2.7-2.2c.7.9,2,1.9,4.3,1.9s2.9-1.1,2.9-1.7c0-.9-.8-1.2-2.2-1.4l-1.8-.3c-1.2-.2-5.1-.9-5.1-4.4s2.8-4.8,6.4-4.8,4.1.2,6.4,2.8l-2.7,2.2h0Z"/>
    <path d="M398.3,16.5v-3.6h3.5v3.6h-3.5ZM398.3,33.6v-14.8h3.5v14.8h-3.5Z"/>
    <path d="M404.5,18.8h2.2v-5.3h3.6v5.3h3.2v2.5h-3.2v7.3c0,.6,0,1.2.4,1.6s1.2.4,1.3.4c.5,0,1-.1,1.5-.2v3c-.5,0-1.3.2-2.5.2-3.2,0-4.2-1.2-4.2-3.6v-8.8h-2.2v-2.4h0Z"/>
    <path d="M425.4,33.6v-1.2c-1.1.8-2.6,1.5-4.4,1.5-3.4,0-5.4-2-5.4-4.5s2.5-4.5,5.3-5c2.2-.4,3.6-.8,4.6-1.1,0-1.1-.3-2.2-2.5-2.2s-3,1.5-3,2.2l-3.6-.2c.1-1,.3-4.8,6.5-4.8s6.2,1.6,6.2,4.2v8.6c0,1.1.1,1.4.7,2.4h-4.4ZM422.2,16.6l-3.3-3.9h4.4l1.5,3.9h-2.6ZM425.4,26.2c-.6.3-1.5.6-2.8.8-1.6.2-3.3.6-3.3,2s.7,1.8,2.4,1.8,3.6-.8,3.6-2.7v-1.9h0Z"/>
  </g>
  <g>
    <path d="M301.8,65.4v-1.4c-.3.4-1.5,1.9-4.1,1.9s-6.6-2.2-6.6-7.5,3.2-8.1,6.7-8.1,3,.4,4,1.7v-7.3h3.5v20.9h-3.5v-.2ZM298.4,62.7c1.9,0,3.4-1.6,3.4-4.3s-.7-4.8-3.4-4.8-3.6,2-3.6,4.5c.1,2,1,4.6,3.6,4.6Z"/>
    <path d="M312.7,58.7c.1.7.7,3.7,4.2,3.7s3.6-1.5,3.9-2l3,1.7c-1.2,1.6-3.3,3.8-7.2,3.8s-7.6-3-7.6-7.9,3.6-7.8,7.4-7.8c5.7,0,7.3,4.5,7.3,8.6h-11,0ZM319.8,56.1c-.1-.7-.5-3.1-3.3-3.1s-3.5,2.5-3.6,3.1h6.9Z"/>
    <path d="M327.2,65.4v-20.9h3.6v20.9h-3.6Z"/>
    <path d="M335.2,65.4v-20.9h3.6v20.9h-3.6Z"/>
    <path d="M352,65.4v-1.2c-1.1.8-2.6,1.5-4.4,1.5-3.4,0-5.4-2-5.4-4.5s2.5-4.5,5.3-5c2.2-.4,3.6-.8,4.6-1.1,0-1.1-.3-2.2-2.5-2.2s-3,1.5-3,2.2l-3.6-.2c.1-1,.3-4.8,6.5-4.8s6.2,1.6,6.2,4.2v8.7c0,1.1.1,1.4.7,2.4h-4.4ZM352,58.1c-.6.3-1.5.6-2.8.8-1.6.2-3.3.6-3.3,2s.7,1.8,2.4,1.8,3.6-.8,3.6-2.7v-1.9h0Z"/>
  </g>
  <g>
    <path d="M305.4,82.5c-.7-1.1-2.2-3.1-5.4-3.1s-3.9.3-3.9,2.5,1.6,2,3.8,2.5l2.2.5c3.3.7,6.8,2,6.8,6.2s-5.1,6.7-8.9,6.7-7.3-1.2-9.1-4.5l3.3-2.3c.9,1.4,2.6,3.1,6.5,3.1s4-.9,4-2.8-1.4-2.1-4-2.7l-2.7-.6c-2.7-.6-6-1.7-6-5.8s3-6.5,8.3-6.5,5.5.3,8.4,4.2l-3.3,2.6h0Z"/>
    <path d="M319.2,97.3h-3.8l-4.8-14.8h3.7l3.1,10.2,3-10.2h3.7l-4.9,14.8h0Z"/>
    <path d="M326.8,80.2v-3.6h3.5v3.6h-3.5ZM326.8,97.3v-14.8h3.5v14.8h-3.5Z"/>
    <path d="M333.6,97.3v-2.7l8-8.9h-7.2v-3.2h11.9v2.8l-7.8,8.9h7.8v3.1h-12.7,0Z"/>
    <path d="M349,97.3v-2.7l8-8.9h-7.2v-3.2h11.9v2.8l-7.8,8.9h7.8v3.1h-12.7,0Z"/>
    <path d="M367.9,90.6c.1.7.7,3.7,4.2,3.7s3.6-1.5,3.9-2l3,1.7c-1.2,1.6-3.3,3.8-7.2,3.8s-7.6-3-7.6-7.9,3.6-7.8,7.4-7.8c5.7,0,7.3,4.5,7.3,8.6h-11,0ZM374.9,88c-.1-.7-.5-3.1-3.3-3.1s-3.5,2.5-3.6,3.1h6.9Z"/>
    <path d="M385.8,82.5v2.1c1.1-2.3,3.7-2.4,4.4-2.4h.3v3.6c-.7,0-3.6,0-4.4,2.7-.3.8-.3,1.6-.3,2.4v6.3h-3.4v-14.7h3.4Z"/>
    <path d="M402.2,97.3v-1.2c-1.1.8-2.6,1.5-4.4,1.5-3.4,0-5.4-2-5.4-4.5s2.5-4.5,5.3-5c2.2-.4,3.6-.8,4.6-1.1,0-1.1-.3-2.2-2.5-2.2s-3,1.5-3,2.2l-3.6-.2c.1-1,.3-4.8,6.5-4.8s6.2,1.6,6.2,4.2v8.6c0,1.1.1,1.4.7,2.4h-4.4ZM402.2,89.9c-.6.3-1.5.6-2.8.8-1.6.2-3.3.6-3.3,2s.7,1.8,2.4,1.8,3.6-.8,3.6-2.7v-1.9h0Z"/>
  </g>
  <g>
    <path d="M292,112.1v-3.6h3.5v3.6h-3.5ZM292,129.2v-14.8h3.5v14.8h-3.5Z"/>
    <path d="M298.3,114.4h2.2v-5.3h3.6v5.3h3.2v2.5h-3.3v7.3c0,.6,0,1.2.4,1.6s1.2.4,1.3.4c.5,0,1,0,1.5-.2v3c-.5.1-1.3.2-2.5.2-3.2,0-4.2-1.2-4.2-3.6v-8.8h-2.2v-2.4h0Z"/>
    <path d="M319.1,129.2v-1.2c-1.1.8-2.6,1.5-4.4,1.5-3.4,0-5.4-2-5.4-4.5s2.5-4.5,5.3-5c2.2-.4,3.6-.8,4.6-1.1,0-1.1-.3-2.2-2.5-2.2s-3,1.5-3,2.2l-3.6-.2c.1-1,.3-4.8,6.5-4.8s6.2,1.6,6.2,4.2v8.6c0,1.1.1,1.4.7,2.4h-4.4ZM319.1,121.8c-.6.3-1.5.6-2.8.8-1.6.2-3.3.6-3.3,2s.7,1.8,2.4,1.8,3.6-.8,3.6-2.7v-1.9h0Z"/>
    <path d="M327.1,129.2v-20.9h3.6v20.9h-3.6Z"/>
    <path d="M335,112.1v-3.6h3.5v3.6h-3.5ZM335,129.2v-14.8h3.5v14.8h-3.5Z"/>
    <path d="M351.8,129.2v-1.2c-1.1.8-2.6,1.5-4.4,1.5-3.4,0-5.4-2-5.4-4.5s2.5-4.5,5.3-5c2.2-.4,3.6-.8,4.6-1.1,0-1.1-.3-2.2-2.5-2.2s-3,1.5-3,2.2l-3.6-.2c.1-1,.3-4.8,6.5-4.8s6.2,1.6,6.2,4.2v8.6c0,1.1.1,1.4.7,2.4h-4.4ZM351.8,121.8c-.6.3-1.5.6-2.8.8-1.6.2-3.3.6-3.3,2s.7,1.8,2.4,1.8,3.6-.8,3.6-2.7v-1.9h0Z"/>
    <path d="M363.2,114.4v1.7c1.3-2,4-2.2,4.6-2.2,3.1,0,4.8,2,4.8,4.9v10.3h-3.5v-8.3c0-1.6-.4-3.5-2.6-3.5s-1.1,0-1.9.7c-1.1.9-1.4,2.1-1.4,4.7v6.4h-3.6v-14.8h3.6Z"/>
    <path d="M385.7,129.2v-1.2c-1.1.8-2.6,1.5-4.4,1.5-3.4,0-5.4-2-5.4-4.5s2.5-4.5,5.3-5c2.2-.4,3.6-.8,4.6-1.1,0-1.1-.3-2.2-2.5-2.2s-3,1.5-3,2.2l-3.6-.2c.1-1,.3-4.8,6.5-4.8s6.2,1.6,6.2,4.2v8.6c0,1.1.1,1.4.7,2.4h-4.4ZM385.7,121.8c-.6.3-1.5.6-2.8.8-1.6.2-3.3.6-3.3,2s.7,1.8,2.4,1.8,3.6-.8,3.6-2.7v-1.9h0Z"/>
  </g>
</svg>