<?xml version="1.0" encoding="UTF-8"?><svg id="Livello_1" xmlns="http://www.w3.org/2000/svg" viewBox="0 0 999.08 1587.02"><defs><style>.cls-1{fill:#fff;}</style></defs><polygon class="cls-1" points="1.08 0 220.86 109.93 220.86 441.72 333.84 167.97 557.53 279.32 557.53 509.68 635 317.77 999.08 500.67 369.71 814.49 369.71 608.62 262.29 868.42 .08 999.37 .08 0 1.08 0"/><path class="cls-1" d="M.08,1124.29l57.9.05,14.53,65.92,19.44-62.51,36.9-.36c6.67,19.79,10.83,40.86,17.98,60.46.51,1.39-.35,1.71,2.1,1.4l13.99-64.96h57.94l-46.41,135.98-44.36-.21-19.13-54.82-20.93,54.5h-45.04L.08,1128.29v-4Z"/><path class="cls-1" d="M.08,1442.09l5.01-9.99c7.25,4.35,19.95,8.24,26.95,2.49.74-3.52-11.07-3.29-13.23-3.74-8.17-1.7-18.08-4.57-17.49-14.99,1.13-20.26,36.63-20.66,43.71-3.76l-11.54,4.82c-2.76-5.51-14.52-7.46-17.43-1.32,1.01,4.26,25.01,1.34,29.21,11.76s-3.38,19.95-13.99,21.47c-10.66,1.53-22.22.41-31.21-5.74v-1h.01Z"/><path class="cls-1" d="M.08,1540.03c3.3-23.78,37.16-29.88,47.97-8.51l-11.44,5.45c-8.74-11.99-25.74-3.8-21.1,11.11,2.76,8.89,17.76,9.55,21.09.88l10.99,6.04c-10.12,21.89-44.24,15.06-47.52-8.97-.25-1.86.17-4.06,0-6h0Z"/><path class="cls-1" d="M736.35,1066.33v72.95c9.82-9.93,19.05-17.29,33.48-18.97,60-6.97,79.75,61.53,60.91,107.89-16.06,39.51-65.86,49.19-94.39,17.01v14.99h-54.95v-193.88h54.95ZM756.14,1166.5c-6.8.49-16.54,6.45-19.02,13.04-1.24,3.3-1.35,19.24-.72,23.15.94,5.87,10.88,13.58,16.49,14.49,36.03,5.8,35.96-53.01,3.25-50.67h0Z"/><path class="cls-1" d="M568.51,1124.29v84.45c0,1.07,3.41,4.59,4.65,5.35,5.6,3.42,12.4,1.99,18.01-.67,1.65-.78,9.31-6.64,9.31-7.67v-81.45h55.94v135.91h-54.45c-3.01-3.18-.91-8.85-1.51-12.99-22.82,26.93-72.46,22.4-84.36-13.03-.9-2.67-3.54-12.24-3.54-14.45v-95.44h55.95Z"/><path class="cls-1" d="M998.08,1209.24h-84.92c9.49,16.06,35.91,14.77,51.73,10.27,5.08-1.44,9.1-4.47,14.2-5.28l14.91,35.38c-29.57,19.75-81.86,19.78-112.11,1.4-47.65-28.95-39.41-108.73,13.75-126.76,20.89-7.08,51.43-5.74,70.77,5.23,28.14,15.96,35.34,49.55,31.67,79.75h0ZM943.14,1178.26c-.09-26.13-33.05-24.72-33.97,0h33.97Z"/><path class="cls-1" d="M285.8,1209.24c-1.06.9,2.69,4.29,3.47,5.02,14.73,13.64,44.83,7.89,61.45-.02l15.87,35.5c-48.69,29.08-138.68,17.7-143.72-51-4.41-60.09,48.16-91.71,102.65-74.7,23.55,7.35,45.19,32.3,45.19,57.73v25.98l-1.5,1.5h-83.42.01ZM314.77,1178.26c1.17-26.51-32.49-24.26-33.97,0h33.97Z"/><path class="cls-1" d="M456.63,1082.32v41.97h38.96v46.47l-1.5,1.5h-37.46v31.48c0,2.02,2.37,7.45,4.08,8.91,8.48,7.29,24.04,1.43,32.89-2.42v47.97c-28.43,9.95-74.1,11.43-87.68-21.72-1.19-2.91-4.23-12.12-4.23-14.75v-49.47h-19.98v-47.97h19.98v-41.97h54.95,0Z"/><path class="cls-1" d="M524.56,1565.51c-2.73,23.21-31.19,26.12-47.87,15.91l4.41-11.39c8.84,6.5,32.06,7.23,27.98-9.01-13.54,13.17-34.57,3.67-36.47-14.49-2.34-22.32,18.21-36.26,36.47-22.5l.49-3.99h14.99c-1.23,14.38,1.65,31.42,0,45.47ZM496.33,1531.27c-12.22,2.13-12.95,23.27,2.75,23.2,3-.01,9.34-1.97,10.3-5.13,1.16-3.78.85-12.56-2.3-15.31s-6.73-3.46-10.75-2.76h0Z"/><path class="cls-1" d="M716.37,1448.59c-2.89,21.6-32.85,24.46-47.72,14.03l3.72-10.11c1.15-.82,9.02,3.15,11.61,3.49,9.51,1.24,19.12-1.64,17.39-12.9-16.18,13.21-36.94,1.96-37.01-18.49-.07-20.49,20.97-32.53,37.01-18.49l1.64-4.86,13.35-.14c-1.43,14.79,1.92,33.12,0,47.47h.01ZM687.12,1413.34c-13.2,2.71-9.53,27.63,8.31,22.29,1.13-.34,5.42-3.15,5.78-4.2.53-1.55.46-11.91-.04-13.62-1.47-5.01-9.86-5.33-14.05-4.47h0Z"/><path class="cls-1" d="M437.65,1500.06v66.96h-13.99v-4.99c-2.87.6-4.4,2.91-7.31,4.18-10.42,4.54-22.98-.24-27.83-10.5-11.53-24.36,13.38-49.29,35.14-30.66v-24.98h13.99,0ZM409.41,1531.26c-13.69,2.78-11.83,27.35,6.53,23.53,8.32-1.73,9.14-9.83,7.51-17.04-1.16-5.13-9.32-7.44-14.04-6.48h0Z"/><path class="cls-1" d="M69.01,1443.09v23.98h-13.99v-65.96h13.99v4.99c4.74-2.16,7.86-5.52,13.49-6,17.95-1.52,27.76,16.37,23.41,32.43-4.67,17.28-23.82,22.22-36.9,10.55h0ZM75.72,1413.32c-10.37,2.38-9.9,23.09,3.83,23.81,17.28.91,17.75-28.76-3.83-23.81Z"/><path class="cls-1" d="M497.59,1443.09v23.98h-13.99v-65.96h13.99v5c20.72-16.43,43.05,3.21,36.51,27.03-4.43,16.15-24.75,21.76-36.51,9.95h0ZM504.29,1413.32c-8.52,1.95-9.45,17.73-3.05,21.62,21.08,12.8,28.26-27.4,3.05-21.62Z"/><path class="cls-1" d="M150.93,1448.09v-5c-21.18,17.79-44.37-4.73-35.44-28.95,5.16-13.98,24.41-19.16,34.94-8.03l.49-5c4.74.67,11.23-1.61,14.99,1.5v45.47h-14.99,0ZM135.66,1413.32c-11.17,2.54-9.56,25.17,5.66,23.72,3.34-.32,8.92-2.93,9.59-6.47,2.25-11.95-2.03-20.26-15.25-17.25Z"/><path class="cls-1" d="M198.88,1565.51c-.85,2.76-11.28,1.04-13.99,1.5.34-8.6-.9-4.23-4.65-2.16-18.96,10.45-35.6-6.47-33.05-26.07,2.49-19.09,23.67-26.71,37.69-13.75v-5h14v45.47h0ZM170.65,1531.26c-13.69,2.78-11.83,27.35,6.53,23.53,8.32-1.73,9.14-9.83,7.51-17.04-1.16-5.13-9.32-7.44-14.04-6.48h0Z"/><path class="cls-1" d="M900.18,1448.09v-5c-9.99,10.45-28.56,7.41-34.69-5.77-11.21-24.07,12.2-49.04,34.68-31.21v-5h14v46.97h-13.99ZM880.54,1433.76c5.31,5.31,18.66,3.91,19.7-4.11,1.45-11.21-2.02-18.5-14.48-16.48-8.59,1.39-11.09,14.71-5.21,20.59h-.01Z"/><path class="cls-1" d="M637.45,1567.01v-5c-20.75,16.1-42.7-3.15-36.52-27.04,4.15-16.05,24.95-22.1,36.51-9.93v-5h14v46.97h-13.99ZM623.19,1531.27c-14.08,2.88-10.68,29.19,8.32,23.31,7.45-2.3,8.17-16.43,3.45-20.55-3.25-2.83-7.55-3.62-11.77-2.76Z"/><path class="cls-1" d="M591.49,1431.1h-33.97c5.07,8.3,19.64,7.97,26.47,2.02l4.37,10.28c-1.48,5.85-20.4,6.25-25.27,5.61-29.59-3.89-27.93-48.95,3.91-48.94,18.44,0,25.95,14.14,24.48,31.04h.01ZM577.51,1420.11c-2.67-11.55-18.08-10.92-20.98,0h20.98Z"/><path class="cls-1" d="M140.94,1549.02h-33.97c5.19,9.75,18.05,7.9,26.37,3.07l4.52,10.82c-10.04,5.04-19.52,6.84-30.44,3.14-22.46-7.6-21.4-40.71,1.49-46.58,20.34-5.21,34.02,9.59,32.03,29.54h0ZM126.96,1539.03c-2.32-12.24-18.7-12.12-20.98,0h20.98Z"/><path class="cls-1" d="M773.07,1400.38c39.98-5.42,42.74,53.07-.24,48.7-28.33-2.88-29.49-44.67.24-48.7ZM773.05,1413.36c-11.19,2.87-9.27,25.7,6.48,23.54,15.43-2.11,12.62-28.45-6.48-23.54Z"/><path class="cls-1" d="M271.57,1400.38c40.74-5.97,43.92,53.78-.26,48.71-27.39-3.14-28.22-44.54.26-48.71ZM285.46,1433.76c13.25-13.26-11.69-31.19-19.15-14.66-6.29,13.92,10.1,23.71,19.15,14.66Z"/><path class="cls-1" d="M416.31,1406.47c.72.72,3.51,4.38,3.36,5.12l-11.9,5.45c-.23-7.16-18.16-5.91-17.08-1.44s26.89.62,30.28,13.69c6.11,23.58-31.95,23.21-45.2,14.73l5.42-11.89c5.5,4.81,13.9,5.66,20.99,4.98,3.28-.31,6.44-1.04,3.48-4.5-11.77-2.56-31.23-1.71-28.88-18.91,2.21-16.13,29.73-17.03,39.51-7.22h.02Z"/><path class="cls-1" d="M973.11,1448.09h-14.99v-31.48c0-2.18-6.33-3.71-8.48-3.56s-9.5,3.76-9.5,5.56v29.48h-13.99v-46.97h13.99v5c8.35-7.76,23.27-8.93,29.81,1.66.78,1.26,3.16,6.82,3.16,7.83v32.48Z"/><path class="cls-1" d="M216.87,1401.12c-.25,2.42.38,5.22.04,7.54-.96,6.75-17.22,19.65-21.02,26.44h20.48c3,3.18.92,8.85,1.5,12.99h-42.96l.52-9.98,20.46-24h-19.98v-12.99h40.96Z"/><path class="cls-1" d="M228.85,1520.04h14.99v11.99h-14.99v20.49c4.36,4.55,8.43,2.09,12.95.93,3.17-.81,2.19,9.54,1.55,11.58-7.5,5.04-22,3.84-26.7-4.31-.62-1.08-2.79-6.45-2.79-7.21v-21.49h-7v-12h7l.93-14.55,13.61.5.44,14.05v.02Z"/><path class="cls-1" d="M579.5,1505.05v14.99h15.98v11.99h-15.98v19.49c0,4.26,12.17,4.33,14.98,1.5l-.09,12.9c-8.83,2.63-19.75,4.12-25.89-4.39-.7-.98-2.99-5.29-2.99-6.01v-23.49l-8.01-.58v-11.42h8.01v-14.99h13.99Z"/><path class="cls-1" d="M821.26,1401.12c3.7,8.78,6.68,19.08,10.96,27.51.48.94.57,2.37,2.01,2.47l11-29.98h14.99l-20.42,47.03-14.07-1.03-19.45-46h14.99-.01Z"/><path class="cls-1" d="M288.29,1520.04l13.47,28.98,11-28.98h15.98l-20.08,45.37c-1.97,2.54-13.25,2.72-15.35-.43l-19.51-44.94h14.49Z"/><rect class="cls-1" x="663.42" y="1498.06" width="13.99" height="68.96"/><path class="cls-1" d="M88,1519.04v13.99c-6.11.34-12.41,2.2-16.47,7.01l-.95,26.03c-.99,1.42-12.79,1.88-14.55-.56v-45.47h14.99l.49,5.99c4.32-4.98,9.71-7.88,16.49-6.99Z"/><path class="cls-1" d="M614.47,1401.12v7c4.56-4.18,11.07-9.65,17.54-7.05l.45,14.05c-4.24-2.11-17.99,4.6-17.99,8.49v24.48h-13.99v-46.97h13.99Z"/><path class="cls-1" d="M353.73,1448.09h-13.99v-46.97h13.99l.49,7.99c3.22-5.55,10.16-9.36,16.55-8.57,1.5,1.08,1.5,13.11,0,14.13-3.91-1.53-17.04,6.07-17.04,8.93v24.48h0Z"/><path class="cls-1" d="M742.34,1401.12v46.97h-14.99v-45.47c3.75-3.11,10.25-.84,14.99-1.5Z"/><path class="cls-1" d="M444.64,1401.12v46.97h-14.99v-45.47c3.75-3.11,10.25-.84,14.99-1.5Z"/><path class="cls-1" d="M241.84,1448.09h-14.99v-46.97c4.73.66,11.23-1.61,14.99,1.5v45.47Z"/><path class="cls-1" d="M998.08,1448.09h-14.99v-45.47c3.33-2.45,11.77-2.41,14.99,0v45.47Z"/><path class="cls-1" d="M550.53,1520.04v45.47c-3.33,2.45-11.77,2.41-14.99,0v-45.47h14.99Z"/><path class="cls-1" d="M463.62,1520.04v45.47c-3.33,2.45-11.77,2.41-14.99,0v-45.47h14.99Z"/><path class="cls-1" d="M349.73,1520.04v45.47c-3.33,2.45-11.77,2.41-14.99,0v-45.47h14.99Z"/><path class="cls-1" d="M703.38,1520.04v45.47c-3.46,3.06-9.55.88-13.99,1.5v-46.97h13.99Z"/><path class="cls-1" d="M266.82,1520.04v46.97c-4.44-.62-10.53,1.56-13.99-1.5v-45.47h13.99Z"/><path class="cls-1" d="M348.42,1499.38c8.74,7.99-5.48,20.81-13.14,11.64-6.73-8.06,5.19-18.9,13.14-11.64Z"/><path class="cls-1" d="M694.13,1497.23c12.31-2.49,14.69,16,2.63,16.78-10.73.69-12.51-14.78-2.63-16.78Z"/><path class="cls-1" d="M541.31,1497.26c12.12-1.75,13.39,15.69,2.65,16.78-11.46,1.16-13.07-15.28-2.65-16.78Z"/><path class="cls-1" d="M258.59,1497.26c12.12-1.75,13.39,15.69,2.65,16.78-11.46,1.16-13.07-15.28-2.65-16.78Z"/><path class="cls-1" d="M434.36,1379.35c15.94-3.68,14.94,20.25-.76,15.32-6.92-2.17-6.61-13.62.76-15.32Z"/><path class="cls-1" d="M230.56,1379.34c12.13-3.61,16.49,11.42,8.04,15.03-13.37,5.7-16.92-12.39-8.04-15.03Z"/><path class="cls-1" d="M454.36,1497.23c11.79-2.41,14.69,15.62,2.66,16.81-10.26,1.01-12.9-14.71-2.66-16.81Z"/><path class="cls-1" d="M987.81,1379.34c15.62-3.51,14.73,20.23-1.01,15.57-6.13-1.82-6.67-13.84,1.01-15.57Z"/><path class="cls-1" d="M732.07,1379.34c15.62-3.51,14.73,20.23-1.01,15.57-6.13-1.82-6.67-13.84,1.01-15.57Z"/></svg>